<?xml version="1.0" standalone="no"?>
<!DOCTYPE svg PUBLIC "-//W3C//DTD SVG 1.1//EN" "http://www.w3.org/Graphics/SVG/1.1/DTD/svg11.dtd" >
<svg xmlns="http://www.w3.org/2000/svg">
<metadata></metadata>
<defs>
<font id="betterflysmooth" horiz-adv-x="1228" >
<font-face units-per-em="2048" ascent="1638" descent="-410" />
<missing-glyph horiz-adv-x="819" />
<glyph horiz-adv-x="0" />
<glyph horiz-adv-x="682" />
<glyph unicode=" "  horiz-adv-x="819" />
<glyph unicode="&#x09;" horiz-adv-x="819" />
<glyph unicode="&#xa0;" horiz-adv-x="819" />
<glyph unicode="!" horiz-adv-x="456" d="M150 100q1 27 16.5 41.5t34.5 14.5q23 0 40.5 -17t16.5 -43q-4 -22 -20.5 -34.5t-36.5 -12.5q-24 0 -39 13t-12 38zM184 381q29 435 80.5 745t171.5 621q27 69 90 69q49 0 79 -37q26 -32 11 -67q-148 -333 -226.5 -638.5t-106.5 -692.5q-6 -81 -42 -107q-28 -20 -46 13 q-17 30 -11 94z" />
<glyph unicode="&#x22;" horiz-adv-x="884" d="M287.5 1097.5q4.5 57.5 17.5 106.5q18 57 56 60q29 2 43 -26q7 -16 4 -34q-48 -250 -27 -323q5 -13 -5 -14q-8 0 -26 14q-38 31 -52.5 95t-10 121.5zM476 1103.5q9 50.5 28 102.5q22 56 61 54q29 -1 40 -31q5 -16 1 -33q-51 -176 -56 -220q-3 -30 1 -52q1 -3 -0.5 -6.5 t-6 -4t-12.5 4.5q-42 24 -53.5 79.5t-2.5 106z" />
<glyph unicode="#" d="M68 602.5q5 25.5 38 36.5q80 28 193 49q13 96 33 195q-91 -3 -123 -11q-34 -9 -57 8.5t-18 43.5t38 37q73 26 184 38q40 162 101 318q27 69 90 69q49 0 79 -37q26 -32 11 -67q-65 -144 -111 -276q69 -2 189 -13q39 130 90 262q27 69 90 69q50 0 80 -37q25 -32 10 -66 q-47 -105 -100 -246q8 -1 178 -29q22 -5 29 -35t-7 -56.5t-43 -20.5q-61 11 -196 24q-21 -61 -47 -153q98 -8 233 -31q22 -5 29.5 -36t-5.5 -58t-42 -21q-84 16 -246 19q-41 -179 -63 -390q-8 -77 -55 -106q-39 -23 -67 6q-29 30 -22 100q21 221 53 392q-171 -5 -208 -7 q-33 -153 -50 -323q-9 -84 -46 -109q-27 -19 -43 15q-15 31 -9 94q3 30 11.5 138.5t15.5 178.5q-98 -6 -142 -16q-34 -9 -57 8.5t-18 43zM436 705q84 8 205 8q18 77 39 159q-94 6 -195 9q-34 -117 -49 -176z" />
<glyph unicode="$" horiz-adv-x="1048" d="M141 303q2 35 27.5 56t49.5 4.5t22 -74.5q-3 -63 42.5 -114.5t116.5 -45.5q27 3 56 16q0 538 49 1137q-12 15 -47.5 57t-49.5 60t-37 50t-34.5 58t-18.5 54q-22 102 31.5 163t149.5 76q18 4 63 4q1 12 4 33.5t4 30.5q10 63 46 84q29 18 44 -11q10 -19 7 -53 q-2 -17 -5.5 -49t-5.5 -45q94 -18 136 -57q40 -35 30 -76q-8 -28 -30 -29q-8 -1 -17 4q-56 32 -131 50q-2 -16 -29 -275q269 -346 287 -655q10 -176 -32.5 -335t-127.5 -270t-196 -155q0 -1 6 -100q8 -92 -29 -114q-25 -15 -46 14q-16 23 -17 59q-2 39 -2 118h-8 q-93 -9 -167.5 37t-111 125t-29.5 168zM432 1624q1 -21 22.5 -46.5t60.5 -62.5q3 -2 5 -4l4 -4q3 26 11 93t12 102q-56 3 -87.5 -15t-27.5 -63zM537 205q95 89 154.5 240t45.5 303q-23 235 -147 419q-56 -577 -53 -962z" />
<glyph unicode="%" horiz-adv-x="1187" d="M165 1201.5q-2 53.5 6 108t21.5 103t36 89.5t50.5 67q40 38 75.5 48t62 -6t48 -46.5t37 -77.5t25.5 -96.5t16 -104.5q110 0 248 74.5t276 214.5q13 14 31 17t32 -4.5t25 -19.5t11 -28.5t-11 -32.5q-104 -118 -394 -667.5t-405 -839.5q-31 -78 -81 -96.5t-76.5 25 t-1.5 116.5q71 205 296 611t422 706q-211 -145 -366 -164q5 -125 -29 -210t-112 -99q-48 -9 -88 3t-67.5 41.5t-47.5 71t-29 92.5t-11 104.5zM311 1292q4 -85 19 -157t43.5 -117t64.5 -33q32 10 43.5 67.5t5.5 141.5q-116 6 -176 98zM322 1460q15 -68 55.5 -111t99.5 -57 q-16 97 -44 170t-58 82q-9 0 -21 -4q-23 -19 -32 -80zM718 178q2 65 23.5 133.5t51 129t71 108t84.5 69.5q158 79 187 -93q22 -127 -27 -337q-30 -121 -86.5 -194t-136.5 -66q-62 6 -102 41.5t-53.5 89.5t-11.5 119zM880 129q3 -118 62 -117q40 1 72.5 81.5t46 179 t7.5 187.5t-34 107q-8 2 -20 2q-44 -17 -88 -156q-51 -157 -46 -284z" />
<glyph unicode="&#x26;" horiz-adv-x="1372" d="M6 512q0 119 73 253t177 218q-174 141 -152 350q9 81 43.5 157t90 136.5t138 93.5t177.5 25q127 -10 193.5 -86.5t60.5 -188.5q-9 -55 -46 -66q-29 -8 -45 19q-9 15 -7 37q-2 101 -47 166t-144 72q-96 7 -171 -70t-105 -205q-13 -57 -13 -106.5t12 -89t30 -72t46 -59.5 t55.5 -47t61.5 -39q33 -18 36.5 -39.5t-8 -34.5t-26.5 -21q-116 -68 -178.5 -179t-62.5 -240q0 -211 110.5 -342t284.5 -131q80 0 156.5 37.5t138 105.5t99 174t36.5 233q-1 70 -59 151t-136 144q-71 -52 -115.5 -89t-87.5 -85t-58.5 -90t-10 -92.5t40.5 -103.5 q10 -15 10 -30.5t-7 -24t-21 -4.5t-29 24q-49 67 -58.5 132t19.5 125.5t76 116t121 115.5t142.5 110.5t152.5 116t141 117.5q73 70 98 163t-25 157q-4 4 -13.5 13t-13.5 13t-10 12t-7 12.5t-1.5 11.5t3.5 14t12 14q46 46 119 -27q40 -41 47 -99t-14 -117t-58.5 -115.5 t-85.5 -102.5q-97 -90 -283 -225q87 -74 135 -172t48 -203q0 -114 -41.5 -226t-113.5 -201t-178.5 -144.5t-226.5 -55.5q-227 0 -376.5 161.5t-149.5 422.5z" />
<glyph unicode="'" horiz-adv-x="315" d="M0 969q2 49 11 92.5t24 85.5q25 63 69 61q31 -1 44 -32q8 -19 2 -41q-4 -15 -12 -43q-23 -83 -32.5 -120.5t-15.5 -78t-2 -66.5q1 -5 -0.5 -8t-6.5 -4t-15 4q-35 20 -51.5 60.5t-14.5 89.5z" />
<glyph unicode="(" horiz-adv-x="696" d="M62.5 571.5q-19.5 -193.5 1 -379.5t83 -365.5t162.5 -322.5q33 -48 80 -43q39 4 50 41q13 44 -31 103q-76 102 -128 247.5t-76.5 310.5t-15.5 345t50 346.5t125 320.5t204 261q28 25 24 64q-4 34 -29 35q-18 1 -40 -17q-131 -103 -229.5 -255t-154.5 -325t-75.5 -366.5z " />
<glyph unicode=")" horiz-adv-x="696" d="M50 -471q-7 45 44 98q85 91 154 248.5t110.5 338.5t53 378.5t-10.5 368t-89 307t-173 196.5q-26 14 -28 41t19.5 39t62.5 -4q88 -42 157 -131t111 -206.5t63.5 -262t19.5 -297t-26.5 -312t-69 -305t-113.5 -278.5t-155 -231q-39 -45 -87 -34q-37 9 -43 46z" />
<glyph unicode="*" horiz-adv-x="962" d="M153 1298q-7 34 25 60q23 18 53 18q73 0 209 -39q8 133 -12 201q-15 50 18 68q30 17 64 -11q24 -20 35 -53q22 -66 26 -199q101 30 187 41q53 7 84 -29q25 -31 5 -56q-13 -17 -46 -21q-68 -8 -197 -61q10 -11 36.5 -41t42 -46t42.5 -39.5t55 -41.5q44 -27 24 -68 q-16 -34 -56 -43q-32 -8 -58 10q-68 45 -180 162q-37 -43 -53.5 -61t-51.5 -52t-71 -61q-44 -33 -87 -5q-35 22 -33 57q1 25 26 42q25 16 48.5 41t38 44.5t38.5 53.5t36 50q-107 43 -192 43q-49 0 -56 36z" />
<glyph unicode="+" d="M228.5 814q-11.5 28 4 53.5t48.5 21.5q165 -23 272 -25q9 94 35 262q6 39 34 52t52.5 -6t19.5 -60q-18 -138 -26 -250q145 4 235 10q61 3 78 -43q14 -38 -9 -67q-16 -19 -40 -19q-73 0 -268 5q-3 -120 2 -259q1 -61 -46 -79q-38 -15 -68 10q-21 17 -20 45q2 119 11 287 q-150 10 -271 30q-32 4 -43.5 32z" />
<glyph unicode="," horiz-adv-x="182" d="M53 79q-9 -34 10 -56q17 -20 24 -43t5.5 -40t-8.5 -28q-24 -28 -14 -43q8 -11 26 2q46 38 64 113q10 49 -9.5 96t-62.5 39q-26 -6 -35 -40z" />
<glyph unicode="-" d="M302 764.5q-15 30.5 3.5 58.5t59.5 25q151 -11 244 -10.5t253 12.5q51 4 74 -43q20 -41 -1 -74q-15 -24 -48 -24q-57 2 -169.5 3t-189 5t-172.5 14q-39 3 -54 33.5z" />
<glyph unicode="." horiz-adv-x="307" d="M45 92q1 27 16.5 41t34.5 14q23 0 41 -16.5t17 -42.5q-4 -22 -21 -34.5t-37 -12.5q-24 0 -39 13t-12 38z" />
<glyph unicode="/" horiz-adv-x="901" d="M133 -276q86 357 317.5 983.5t438.5 1016.5q14 27 35.5 40t40 9.5t33.5 -16t16 -36.5t-13 -52q-233 -471 -467 -1057t-286 -899q-17 -86 -59 -93q-31 -5 -49 31q-16 32 -7 73z" />
<glyph unicode="0" horiz-adv-x="1019" d="M57 811q8 158 46 302t94 250.5t124.5 192.5t139.5 137.5t138.5 75.5t121.5 15q112 -18 185.5 -89.5t97.5 -178.5q40 -188 9 -461t-118 -555q0 -5 -4 -17q-8 -22 -26 -62t-51.5 -107t-78 -131.5t-96.5 -124t-116.5 -96t-127.5 -36.5q-49 0 -98.5 29t-97.5 96.5 t-82.5 166.5t-51.5 252.5t-8 340.5zM240 817q-12 -341 35 -562.5t133 -221.5q55 0 108.5 35.5t96.5 95.5t74 116.5t58 120.5q104 265 152.5 585t3.5 491q-26 109 -47 148q-45 88 -147 104q-53 9 -115.5 -32.5t-122 -127t-109.5 -198t-82.5 -258.5t-37.5 -296z" />
<glyph unicode="1" horiz-adv-x="737" d="M78 1562q-10 28 10 40q8 4 16 4q56 0 124.5 24.5t171.5 98t208 188.5q28 28 39 -2q10 -26 -2 -68l-2 -4q-1 -3 -2 -7.5t-2 -6.5q-61 -172 -91 -404.5t-28.5 -473t19 -464t49.5 -426.5q12 -74 -45 -106q-45 -25 -90 -6q-35 16 -39 51q-22 190 -34 387t-13 424.5t24 452 t76 401.5q-92 -56 -190 -94.5t-160 -38.5q-29 0 -39 30z" />
<glyph unicode="2" horiz-adv-x="1413" d="M8 145q9 59 102 118t205 42q134 -21 271 -110q167 182 284 478t117 546q0 110 -25.5 200.5t-81.5 149.5t-135 59q-161 0 -260.5 -77.5t-152.5 -250.5q-12 -37 -38.5 -47t-33.5 21q-5 22 4 59q24 98 80 177t125.5 125.5t142 71t138.5 24.5q113 0 197 -36.5t134 -102 t74.5 -151t24.5 -190.5q0 -276 -145.5 -599.5t-356.5 -522.5q22 -17 66.5 -54t67 -54t56 -39.5t60 -31.5t51.5 -9q49 0 80.5 9t47 29t21 44t5.5 61q0 43 23 60.5t47.5 6t29.5 -41.5q15 -104 -61 -185.5t-189 -81.5q-40 0 -90.5 23.5t-85 47.5t-104 77.5t-99.5 75.5 q-160 -125 -313 -125q-68 0 -136 26t-112 74t-35 104zM147 92q36 -54 122 -62q12 -1 24 -1q102 0 221 98q-104 66 -197 80q-128 20 -170 -33q-30 -37 0 -82z" />
<glyph unicode="3" d="M16 125q-2 81 19.5 155t59.5 132.5t90.5 109t113.5 86t127 60.5t131.5 36.5t127.5 11t114 -13.5q18 -5 30 -18.5t11 -28.5q-2 -16 -13 -26t-30 -6q-52 10 -109 10t-115.5 -9.5t-115.5 -31t-108.5 -51.5t-95 -74t-75 -95.5t-48 -118.5t-13.5 -142q7 -131 155 -131 q110 0 233.5 62t225 157t174.5 216.5t88 233.5q15 115 -1 204.5t-57 146t-103 90.5t-134 44t-155 1q-30 -3 -58 21t-30.5 51t24.5 44q170 79 248 153.5t80 139.5q2 37 -24 55.5t-78 14.5q-178 -14 -322 -172q-25 -26 -60 -9q-30 15 -29 40q1 12 11 22q75 80 166.5 135 t183.5 68q119 19 184.5 -24.5t65.5 -112.5q0 -74 -71 -152.5t-201 -151.5q-17 -9 -12.5 -17.5t22.5 -8.5q94 0 178 -22t155 -69t118.5 -115.5t67.5 -168t3 -219.5q-19 -138 -105 -274.5t-208.5 -239t-276 -166t-299.5 -63.5q-114 0 -185.5 54.5t-74.5 176.5z" />
<glyph unicode="4" horiz-adv-x="985" d="M-8 932q18 90 78 237.5t119.5 269t100.5 221.5t29 116q-21 29 -9.5 45.5t48.5 11.5q68 -9 70.5 -94.5t-41.5 -211t-97.5 -254t-97.5 -246t-42 -163.5q2 -29 37.5 -43t82.5 -2q90 22 181.5 126.5t159.5 241.5t118 294q11 35 31.5 55t41.5 19t40 -15q26 -3 35.5 -22.5 t-5.5 -59.5q-63 -133 -101 -319t-46.5 -378.5t1.5 -378t38 -339.5q10 -61 -47 -85q-47 -20 -89 -1q-28 12 -30 37q-27 211 -28.5 460.5t34.5 532.5q-110 -140 -231 -222t-234 -91q-105 -10 -140 60.5t-7 197.5z" />
<glyph unicode="5" horiz-adv-x="1310" d="M20 145q-6 191 117 340q64 79 89 60q21 -15 2 -69q-10 -29 -27 -54q-86 -126 -80 -291q7 -131 155 -131q110 0 233.5 62t225 157.5t174.5 217t88 233.5q15 113 -3 202t-62.5 144t-108 89t-139.5 41.5t-156 -2.5t-158.5 -39t-146.5 -73q0 62 -38 227.5t-72 262.5 q-15 40 30.5 58t131 23t178.5 11.5t185.5 35.5t139.5 83q25 29 46.5 23.5t21.5 -42.5q0 -67 -40 -103t-108 -47t-141 -15t-156.5 -19t-136.5 -47q2 -10 10.5 -45t12 -51.5t9 -46t7.5 -56t2 -55.5q103 59 214.5 80t213 4.5t190.5 -70t150 -134.5t88 -198.5t8 -253.5 q-19 -138 -105 -274.5t-208 -239t-275.5 -166t-299.5 -63.5q-114 0 -186 54.5t-75 176.5z" />
<glyph unicode="6" horiz-adv-x="1187" d="M47 532.5q1 -42.5 6 -77.5q1 -9 3.5 -38t4.5 -44.5t7.5 -41t13 -40t21.5 -29t32 -20.5q57 -18 90 12q43 79 109.5 148t128 108.5t112 59.5t72.5 14q51 -15 12 -144q-47 -155 -175.5 -299.5t-225.5 -140.5q-61 3 -86.5 48t-15.5 79q14 52 -9 65q-20 10 -41 -24 q-22 -37 -30.5 -78t-2 -82.5t46 -72t109.5 -37.5q56 -5 135 26.5t161.5 91.5t161 156.5t126.5 208.5q49 125 29 206t-99 103q-89 26 -261.5 -63t-250.5 -185q-9 226 31 469q18 119 60.5 243t105 234t135.5 192.5t159.5 120.5t168.5 15q53 -16 78 -69t0 -154q-9 -36 19 -49 q28 -14 54 16q19 23 25 62q20 138 -25 220t-149 95q-99 14 -192.5 -14t-169.5 -88.5t-144 -146t-120 -182.5t-93 -202t-67 -201.5t-39 -183.5q-1 -10 -5.5 -49t-7.5 -72.5t-6 -78t-2 -87z" />
<glyph unicode="7" horiz-adv-x="1024" d="M62.5 1551.5q-87.5 246.5 3.5 258.5q75 10 157 6.5t192.5 -7t212.5 -5t216 13t203 46.5q29 11 49 -6.5t18 -45.5t-27 -43q-32 -20 -83 -32q-74 -70 -149.5 -193t-139.5 -271t-118.5 -316t-84.5 -328t-39.5 -307.5t16.5 -253.5q27 -110 -9 -150q-25 -27 -56 -1 q-13 11 -23 28q-50 87 -56 266.5t29 394t93.5 430t142.5 399t172 277.5q-113 -4 -253 4.5t-241.5 18.5t-111.5 10q-42 0 1.5 -186t74.5 -259q19 -41 3 -57t-48 12q-57 50 -144.5 296.5z" />
<glyph unicode="8" horiz-adv-x="942" d="M11.5 95q-9.5 93 41.5 229.5t168 296.5q96 129 201 276q-106 142 -145 206q-91 150 -142 329q-15 52 -19.5 116.5t8.5 139.5t45.5 138t101.5 110.5t165 58.5q80 9 146.5 -16.5t108 -76t62.5 -116t14 -141t-42 -146.5q-13 -25 -32 -34t-32 2.5t-10 37.5q46 133 20.5 224.5 t-92.5 138t-149 37.5q-53 -6 -92 -46t-56.5 -98.5t-22 -128.5t12.5 -135q16 -76 61.5 -160.5t83.5 -136t111 -143.5q118 186 129 256q5 32 36 41t45 -13q7 -10 5 -26q-3 -54 -44 -132t-119 -190q86 -111 135 -198.5t59 -176.5q23 -203 -54 -378t-233 -285 q-47 -32 -97.5 -53.5t-106 -31t-109 7t-94.5 61.5q-59 63 -68.5 156zM103.5 176q-4.5 -75 12 -127.5t50.5 -79.5q41 -34 109.5 -26.5t138.5 57.5q106 75 150.5 215t23.5 317q-17 153 -123 306q-125 -168 -186 -256q-82 -118 -126.5 -224.5t-49 -181.5z" />
<glyph unicode="9" horiz-adv-x="983" d="M31 1313q-17 -131 23.5 -206t121.5 -77q62 -2 154.5 61.5t170 150.5t109.5 157q64 -213 88 -461q16 -150 -5 -315t-71 -305t-137.5 -230t-193.5 -88q-55 4 -92.5 48.5t-38.5 148.5q0 35 -28 42q-29 8 -48 -24q-17 -27 -12 -72q15 -137 79 -204t168 -58q87 7 162.5 46 t131 101.5t100.5 143t73.5 173t48 189.5t27.5 194t8 184t-8 163q-1 8 -7 48.5t-11 73t-14 76.5t-20.5 85.5t-25.5 73.5q-2 5 -12.5 36t-15.5 42.5t-17.5 36.5t-23.5 36.5t-28 22.5t-36 12q-60 4 -84 -35q-21 -88 -67.5 -171.5t-96 -137t-94 -86t-67.5 -31.5q-14 1 -23 7.5 t-18 38.5t-6 89q4 104 45.5 222.5t105.5 205.5t127 101q60 12 95.5 -25.5t35.5 -73.5q-1 -51 22 -60q20 -7 33 25q2 4 3 9q9 32 10.5 65.5t-8 67.5t-30.5 58.5t-62 36t-97 3.5q-56 -10 -124.5 -60.5t-133 -129t-116.5 -191.5t-70 -233z" />
<glyph unicode=":" horiz-adv-x="335" d="M104 317q3 27 19 41.5t35 14.5q23 0 40.5 -17t14.5 -43q-3 -22 -19 -34.5t-36 -12.5q-24 0 -39.5 13t-14.5 38zM104 774q3 27 19 41t35 14q23 0 40.5 -16.5t14.5 -42.5q-3 -22 -19 -34.5t-36 -12.5q-24 0 -39.5 13t-14.5 38z" />
<glyph unicode=";" horiz-adv-x="276" d="M53 304q-9 -34 10 -56q17 -20 24 -43t5.5 -40t-8.5 -28q-24 -28 -14 -43q8 -11 26 2q46 38 64 113q10 49 -9.5 96t-62.5 39q-26 -6 -35 -40zM66 768q1 27 16.5 41t34.5 14q23 0 40.5 -16.5t16.5 -42.5q-4 -22 -20.5 -34.5t-36.5 -12.5q-24 0 -39 13t-12 38z" />
<glyph unicode="=" d="M200.5 710q-11.5 28 3.5 53t48 21q158 -22 279.5 -25t342.5 9q61 3 78 -43q14 -38 -9 -67q-16 -19 -40 -19q-248 2 -377 8.5t-282 30.5q-32 4 -43.5 32zM232 936.5q-14 28.5 5 54t60 21.5q182 -20 280.5 -23.5t342.5 6.5q61 3 80 -43q15 -37 -9 -67q-17 -21 -45 -21 q-245 0 -357.5 7.5t-303.5 31.5q-39 5 -53 33.5z" />
<glyph unicode="?" horiz-adv-x="552" d="M-169 1272q15 -25 41 2q14 14 28 41q72 146 167.5 224.5t184.5 78.5q91 0 149 -80.5t58 -214.5q0 -144 -78 -328q-28 -56 -81 -136.5t-93 -139.5t-71.5 -138t-31.5 -151q0 -42 26 -55.5t52.5 3.5t26.5 50q-1 59 40 143.5t90 152.5t101.5 138t63.5 90q114 207 114 389 q0 169 -91.5 273t-227.5 104q-127 0 -252.5 -96.5t-212.5 -282.5q-19 -40 -3 -67zM100 92q1 27 16.5 41t35.5 14q23 0 40.5 -16.5t16.5 -42.5q-4 -22 -20.5 -34.5t-36.5 -12.5q-24 0 -39.5 13t-12.5 38z" />
<glyph unicode="@" horiz-adv-x="1746" d="M131 395q0 91 34 191t92.5 192t139 178.5t170.5 152.5t190 110t195 55q204 24 342 -73t197 -320q41 -170 12 -328.5t-102 -297.5t-161.5 -242t-167 -162.5t-118.5 -59.5q-53 0 -84.5 40.5t-39 106.5t-3.5 144.5t19.5 159.5t32 146t32.5 110q-25 -61 -54 -114.5 t-67.5 -108t-85 -87t-92.5 -32.5q-81 0 -122.5 74t-26.5 204q15 121 63.5 235.5t111.5 194.5t130.5 132.5t122.5 62.5q56 10 97 -0.5t63 -35t32 -58.5t9.5 -68t-9.5 -66q-9 -33 -28 -34q-20 0 -27 36q-2 11 -2 25q0 35 -37 71t-96 23q-63 -15 -125 -103.5t-100.5 -206.5 t-40.5 -222q-1 -36 2 -62.5t7.5 -40t12.5 -21.5t13.5 -9.5t13.5 -1.5q25 0 71.5 69t117.5 182.5t128 180.5q19 33 59 45t66.5 -14.5t9.5 -88.5q-98 -340 -124 -472q-31 -162 -19 -246q182 101 304.5 315t131.5 418q5 94 -8 179.5t-48 159.5t-87.5 124.5t-132.5 72t-178 4.5 q-124 -22 -254.5 -108.5t-230 -202t-163 -250.5t-63.5 -250q0 -140 109 -247.5t280 -120.5q32 -2 35 -25q3 -24 -29 -38q-14 -6 -33 -7q-68 -3 -133 7.5t-130 40.5t-114 78t-79.5 126t-30.5 178z" />
<glyph unicode="A" horiz-adv-x="1234" d="M-240 -431q4 20 33 38q41 26 82 83.5t82 145.5t77.5 181t79 222t76 235.5t79.5 253.5t79 247q-130 -21 -209 -21q-90 0 -174.5 25.5t-144.5 82t-60 132.5q0 102 70 102q15 0 24 -6.5t12 -21t4 -24.5t0 -32.5t-1 -27.5q0 -78 84.5 -130.5t187.5 -52.5q83 0 228 31 q47 140 89 249.5t93 215t99.5 174t104.5 109.5q53 39 108 39h5q5 1 10 1q8 0 15 -3q22 -6 29 -27q10 -21 2 -43q-48 -126 -52 -594q208 43 382 43h22q88 -2 164.5 -20.5t133 -62.5t56.5 -107q0 -33 -12.5 -47t-27 -6t-21.5 32q-47 145 -291 145q-167 0 -406 -45 q0 -296 21.5 -526.5t56.5 -241.5q3 -1 7 -1q20 0 58 26q45 32 96 84.5t83.5 87.5t54.5 61q29 35 51 28t11 -48q-5 -19 -37.5 -65.5t-83 -102.5t-105.5 -106.5t-111 -80.5q-43 -23 -76 -22q-10 0 -19 2q-67 16 -112 148.5t-61 319.5q-11 129 -10 270q0 64 2 131 q-188 -43 -256 -56q-42 -132 -108.5 -362t-113 -382.5t-106.5 -320.5t-121 -271t-124 -140q-16 -9 -34 -9q-20 0 -42 11q-34 17 -34 41q0 5 1 9zM463 1055l237 59q16 347 84 567q-154 -117 -321 -626z" />
<glyph unicode="B" horiz-adv-x="2187" d="M5 1488q9 15 30 30q134 104 338 104q99 0 215 -22.5t252 -58t202 -48.5q48 130 121 201t162 71q73 0 124.5 -51t51.5 -117q0 -15 -5.5 -33.5t-17.5 -42t-34.5 -45t-53 -39.5t-76.5 -29t-102 -11q-50 0 -94 8q-24 -118 -24 -256q0 -80 8 -168q69 138 202.5 251.5 t278.5 135.5q36 6 67 6q72 0 118 -30q66 -44 65 -113q0 -82 -84 -167.5t-238 -162.5q196 0 345 -92t206 -281q92 40 127 66q15 10 34.5 1.5t25.5 -24.5q2 -4 2 -9q0 -18 -25 -40q-49 -29 -145 -67q12 -68 12 -148q0 -110 -53.5 -221.5t-145 -203.5t-204.5 -164.5 t-240.5 -113t-245.5 -40.5q-55 0 -103 12.5t-88.5 39t-58.5 74.5q-12 30 -12 65q0 21 4 44q12 70 49.5 135.5t92.5 118.5t124 101.5t148 89t161 76t165.5 67t158.5 59.5q43 15 64 23q-21 118 -78 195.5t-134 110.5t-171 35h-11q-89 0 -179 -26q-96 -26 -191 -75 q31 -145 82 -297q9 -26 9 -47q0 -43 -35 -71q-27 -21 -57 -21q-13 0 -27 4q-37 12 -48 49q-59 218 -83 426q-16 146 -17 270q0 53 3 103q10 166 48 300q-52 13 -182 55.5t-231.5 65.5t-194.5 23q-186 0 -322 -99q-33 -23 -58 -23q-11 0 -20 4q-14 6 -14 18q0 8 7 19z M1024 -238q0 -116 158 -116q88 0 192 40t199 109t174 153.5t126.5 183t47.5 187.5q0 28 -4 78q-250 -83 -374 -137q-90 -39 -175 -84q-132 -70 -238 -198.5t-106 -215.5zM1139 1479q40 -4 63 -4q61 0 105.5 12t66 31t30.5 36t9 33q0 42 -29 75.5t-67 33.5q-49 0 -98 -57.5 t-80 -159.5zM1163 850q123 27 223 64t163 75t106 79.5t61 77.5q19 38 19 73q-1 32 -25 50q-22 16 -61 16q-8 0 -17 -1q-90 -7 -173 -52.5t-141.5 -111t-98 -135.5t-56.5 -135z" />
<glyph unicode="C" horiz-adv-x="1122" d="M-31 506q1 193 42.5 363t110.5 292t158.5 213t185 139.5t191.5 57.5q24 2 46 2q39 -1 73 -7q52 -10 83.5 -30t53 -49.5t30.5 -56.5t12.5 -58.5t3 -48.5t-2.5 -33q-11 -62 -41 -71q-23 -6 -34 23q-6 17 -4 40q0 3 3.5 17t6 27.5t4 35t-0.5 38.5t-8 37.5t-20 33.5t-36 25 q-21 12 -53 14q-11 0 -23 1q-24 0 -52 -2q-165 -19 -290.5 -149.5t-193 -348.5t-67.5 -491v-9q1 -99 21 -175q22 -80 55.5 -127t82 -76t96.5 -39q36 -7 76 -7q13 0 26 1q74 5 155 49.5t146.5 105t128 135.5t101 131t63.5 101q21 38 47 38q4 0 7 -1q23 -4 23 -33 q0 -16 -10 -34q-26 -48 -73 -113.5t-122.5 -148.5t-157.5 -151.5t-184.5 -116t-197.5 -48.5h-6q-116 0 -206 40q-92 40 -145 112t-79 160q-25 85 -25 184v8z" />
<glyph unicode="D" horiz-adv-x="1800" d="M1 1121q-1 5 -1 10q0 17 8 38q12 36 31 76.5t53.5 97.5t76.5 108.5t104 104t132 91t163 62.5t196 24q173 0 354 -72q142 -58 250 -214.5t161 -368.5q45 -181 45 -372q0 -33 -1 -65q-2 -53 -10 -141q185 83 239 135q25 24 54 19q29 -4 35 -28q1 -5 1 -11q0 -19 -16 -40 q-74 -86 -330 -182q-34 -187 -106 -349t-169 -282t-213 -206t-242.5 -129t-254.5 -43q-52 0 -100.5 8t-96 28t-82.5 50t-55 78q-18 44 -18 97v11q7 219 278 403q-29 265 -35 531q-1 52 -2 105q0 218 22 450q27 288 95 485q-93 -27 -174.5 -79t-140.5 -117.5t-101 -133 t-71 -139.5q-20 -52 -51 -60q-23 -7 -28 20zM305 -373q9 -65 70 -105t160 -40q111 0 228 59.5t222.5 165t193.5 263t136 341.5q-40 -14 -128 -42.5t-158.5 -52.5t-133.5 -48q-127 -46 -238 -107q17 -113 39 -215q3 -16 3 -30q0 -51 -43 -78q-27 -17 -55 -17q-17 0 -35 7 q-37 13 -42 49q0 1 -10.5 70.5t-15.5 107.5q-108 -87 -156 -174q-39 -72 -39 -130q0 -12 2 -24zM602 669q10 -264 43 -519q108 51 236 96q305 105 456 164q25 133 31 264q1 41 1 81q1 123 -13 229q-18 142 -51.5 237t-82 171.5t-94.5 120.5t-100 76q-114 70 -256 70 q-28 0 -78 -4q-58 -185 -80 -453q-15 -185 -15 -368q0 -83 3 -165z" />
<glyph unicode="E" horiz-adv-x="1122" d="M-31 506q0 61 9 114.5t30.5 104t41.5 89t60 90.5t67.5 84.5t80.5 92.5q-238 130 -238 303q0 97 49.5 181.5t127.5 139t171.5 85.5t184.5 31q126 0 209.5 -60.5t87.5 -179.5q-4 -68 -39 -81q-25 -10 -41 18q-10 17 -10 41q-13 101 -81 152.5t-163 51.5q-82 0 -157.5 -35.5 t-127 -108.5t-51.5 -167t79 -184t224 -152q-77 -76 -128 -136.5t-97 -134t-68 -154t-22 -171.5q0 -104 19 -183.5t50.5 -127t76 -76.5t90.5 -39q35 -7 75 -7q12 0 25 1q74 5 155 49.5t146.5 105t128 135.5t101 131t63.5 101q21 38 47 38q4 0 7 -1q23 -4 23 -33 q0 -16 -10 -34q-26 -48 -73 -113.5t-122.5 -148.5t-157.5 -151.5t-184.5 -116t-197.5 -48.5h-6q-116 0 -206 40q-92 40 -145 112t-79 160q-25 85 -25 184v8z" />
<glyph unicode="F" horiz-adv-x="1421" d="M0 1827q0 102 70 102q15 0 24 -6.5t12 -21t4 -24.5t0 -32.5t-1 -27.5q0 -78 84.5 -130.5t187.5 -52.5q90 0 233 31.5t274.5 69t305.5 67.5q159 27 295 27h27q64 -2 124 -13.5t113 -33.5t85 -59t32 -85q0 -33 -12.5 -47t-27.5 -5.5t-22 32.5q-47 145 -290 145 q-106 -1 -238 -19t-206 -33.5t-226 -49.5q-97 -306 -97 -813q0 -48 1 -98q305 154 366 213q25 24 54 19t35 -28.5t-15 -50.5q-105 -121 -436 -258q15 -444 92 -799q3 -16 3 -30q0 -51 -43 -78q-27 -17 -55 -17q-17 0 -35 7q-37 13 -42 49q-64 387 -72 811q-99 -38 -213 -78 q-21 -6 -37 8.5t-11.5 35.5t32.5 30q54 17 227 94v29q0 582 117 925q-205 -45 -340 -45q-90 0 -174.5 25.5t-144.5 82t-60 132.5z" />
<glyph unicode="G" horiz-adv-x="1122" d="M-31 506q0 162 32 310.5t87.5 265t129.5 213t159.5 162.5t177.5 104.5t184 46.5q27 2 52 2q46 0 85 -7q61 -11 97.5 -31.5t61.5 -51.5t35.5 -60t14.5 -61.5t3 -51t-3 -34.5q-12 -65 -47 -75q-27 -7 -40 23q-8 19 -5 44l7 31q6 30 9 54t-4.5 58.5t-28 56.5t-69.5 35 q-30 7 -68 7q-25 0 -53 -3q-190 -20 -336 -159.5t-224.5 -365t-78.5 -499.5v-8q0 -115 29 -221q29 -110 75.5 -185t104.5 -120t115 -45q85 0 158 71t113 187q33 99 33 205q0 19 -1 38q-22 -1 -44 -1q-97 0 -193 22q-27 6 -38 37q-11 30 11 39q11 4 27 0q71 -20 169 -20 q57 0 123 7q18 6 35 6q149 19 228 66q25 15 41 13t23 -11q4 -5 4 -11q0 -7 -3 -15q-7 -16 -29 -31q-81 -59 -219 -86v-24q0 -130 -49 -253q-55 -133 -155 -217t-216 -84q-114 0 -206.5 42t-150 108t-96 151.5t-53.5 166.5q-14 76 -14 149v10z" />
<glyph unicode="H" horiz-adv-x="2064" d="M0 1133q0 102 70 102q12 0 20.5 -5.5t12.5 -13t5.5 -21.5t1.5 -23.5t-0.5 -26t-0.5 -23.5q0 -78 84.5 -130t187.5 -52q86 0 204.5 26t279.5 68.5t270 63.5q4 210 49.5 483t87.5 346q23 41 60 47q6 1 12 0q29 0 46 -23q11 -15 11 -35q0 -17 -8 -36q-46 -119 -75.5 -328 t-39.5 -432q119 15 208 15h21q19 199 56.5 360t85.5 238q12 20 31.5 24.5t34.5 -5.5t24 -26.5t0 -39.5q-73 -195 -90 -566q98 -21 159.5 -64.5t61.5 -111.5q0 -33 -12.5 -47t-27.5 -5.5t-22 32.5q-32 101 -161 131q-2 -76 -3 -148q0 -187 18 -351q24 -226 62 -239q3 -1 7 -1 q20 0 58 26q45 32 96 84.5t83.5 87.5t54.5 61q29 35 51 28q15 -5 15 -24q0 -10 -4 -24q-5 -19 -37.5 -65.5t-83 -102.5t-105.5 -106.5t-111 -80.5q-43 -23 -76 -22q-10 0 -19 2q-70 17 -112 154t-48 328q-2 57 -2 117q0 139 10 290q-113 -3 -227 -18v-21q-17 -553 -37 -754 q-27 -270 -103 -489.5t-180 -304.5q-19 -15 -43 -15q-15 0 -33 6q-39 12 -40 41q-1 22 28 46q47 41 85.5 98.5t65.5 132t47.5 150t33 176t20.5 186t11.5 203.5t4.5 204t1 212v106q-95 -17 -259 -55t-283 -59t-214 -21q-90 0 -174.5 25.5t-144.5 82t-60 132.5z" />
<glyph unicode="I" horiz-adv-x="1406" d="M2 120q-3 25 -3 52q-1 56 13 120q20 96 70 193q26 46 69 46q34 -1 42 -32q6 -24 -9 -53q-60 -108 -82 -208q-12 -57 -13 -105q0 -36 7 -66q16 -72 67 -117.5t130 -51.5q14 -1 28 -1q141 -1 275 113q146 124 254 348q-210 70 -352 318t-162 624q-2 45 -2 88q0 216 63 354 q76 166 226 214q55 19 109 20q22 0 42 -4q74 -10 138.5 -45t119 -100t93.5 -147.5t61 -188t22 -221.5q0 -198 -46 -423.5t-132 -426.5q198 10 367 190q24 26 50.5 21.5t30.5 -27.5q1 -4 1 -8q0 -19 -17 -41q-218 -221 -458 -221h-13q-53 -106 -113 -192t-134.5 -157.5 t-156.5 -111.5q-81 -41 -177 -55q-33 -5 -67 -4q-65 0 -132 18q-53 13 -97 51t-73 99.5t-39 137.5zM410 1354q0 -186 37.5 -346.5t103 -274.5t151.5 -189.5t185 -105.5q143 353 143 756q0 178 -50 344q-50 165 -138 262q-72 80 -151 80q-17 0 -34 -4q-111 -24 -179 -158.5 t-68 -363.5z" />
<glyph unicode="J" horiz-adv-x="1822" d="M0 -344q2 80 41.5 159t117 157t208.5 149.5t303 124.5q38 12 82.5 22.5t80 17.5t90.5 15t84.5 12t93 12t87.5 11q56 273 63 668q10 316 31 466q-29 -4 -128.5 -16.5t-148 -20.5t-124 -27.5t-133.5 -45.5q-170 -75 -254 -223q-28 -48 -61 -50q-23 -1 -23 23q-1 19 14 47 q81 153 266 236q83 38 178.5 62.5t243 50t182.5 32.5q75 395 314 395q73 0 124.5 -51t51.5 -117q0 -24 -8 -46t-30.5 -52.5t-73 -64.5t-126.5 -68q-45 -21 -112 -37q-4 -53 -4 -166v-83q2 -177 2 -191q-10 -394 -68 -695q174 28 291 75t180 134q26 26 48 26q7 0 13 -3 q13 -6 13 -18q0 -8 -5 -19t-16 -22q-81 -94 -217 -149.5t-321 -90.5q-50 -229 -142 -412q-79 -152 -234.5 -282t-339.5 -197q-135 -50 -252 -50q-44 0 -85 7q-68 11 -117.5 28.5t-94 50t-66.5 86.5q-19 48 -19 112v18zM96 -373q10 -68 55 -109.5t140 -54.5q28 -4 58 -4 q104 0 227 50q157 64 291 184.5t200 259.5q65 136 107 311q-21 -3 -86.5 -13t-92 -14t-80.5 -13t-86 -16.5t-73 -18t-74 -21.5q-133 -44 -240 -102.5t-172.5 -116.5t-108 -119t-57.5 -112q-10 -35 -10 -66q0 -13 2 -25zM1440 1575l65 24q191 86 191 156q0 42 -29.5 75.5 t-67.5 33.5q-130 0 -159 -289z" />
<glyph unicode="K" horiz-adv-x="1935" d="M-76 741v18q0 85 34 165q38 88 98.5 154.5t153 131t177.5 109t191 90.5q7 235 51 356q29 128 118 239t206.5 174t232.5 63q63 0 109.5 -19.5t73 -54t40.5 -74t18 -86.5q1 -13 2 -27q0 -117 -95 -241q-105 -138 -337 -248q-53 -24 -237 -92q2 -104 10 -426q64 109 149 186 t173 90q23 4 44 3q59 0 94 -29q48 -40 48 -101q-2 -89 -96.5 -193.5t-255.5 -189.5q23 0 39 -4q46 -9 84 -30t63.5 -44.5t46.5 -62t32.5 -67t22 -77.5t14.5 -74.5t11 -76.5q4 -37 7 -57t8.5 -49t12 -44t16 -31.5t23 -23t31.5 -6.5q22 0 53.5 13t67.5 37.5t74 53t79.5 65.5 t76.5 69t72.5 68.5t60.5 59.5t47 47.5t26 26.5q13 14 28.5 17.5t25.5 -2.5q12 -6 18 -17q5 -8 4 -18v-8q-2 -16 -16 -31q-23 -27 -62.5 -70t-122 -120t-164 -138.5t-181 -108t-179.5 -46.5q-24 0 -44 5t-34.5 12.5t-26 22.5t-19 27t-13.5 35t-9 38.5t-5 44t-2.5 45 t-1.5 48.5q-1 37 -1.5 56.5t-3.5 55t-7 56t-12 51t-19 49.5t-27.5 42.5t-38 38t-50 27.5t-63.5 20q-14 3 -26 3q-37 0 -64 -24v-66q0 -497 -57 -765q-18 -78 -81 -107q-24 -11 -46 -11q-24 0 -43 14q-27 19 -27 54q0 13 4 29q38 169 52 389q12 182 13 330q0 30 -1 59 q-2 169 -10 405q-7 208 -7 322v29q-68 -28 -126 -56t-120 -64.5t-110 -74t-91 -83.5t-70 -94.5t-39 -106.5q-8 -37 -7 -76q0 -22 2 -45q1 -31 -27 -45q-30 -16 -49 11q-13 19 -14 50zM762 1485q189 75 217 90q67 34 123.5 71.5t96.5 74t71.5 74t48.5 71.5t29 66 q11 31 11 56.5t-5 51.5q-13 49 -48.5 76t-105.5 28h-2q-142 0 -266 -126q-124 -128 -154 -304q-13 -77 -16 -229zM774 803q0 -9 1 -28.5t1 -29.5q111 28 196.5 75t129.5 96q43 50 63 94q16 36 16 63q0 7 -1 14q0 29 -24 42q-15 8 -38 8q-13 0 -28 -2q-117 -23 -198.5 -119 t-117.5 -213z" />
<glyph unicode="L" horiz-adv-x="2088" d="M4 342q12 78 120 122q68 28 161 29q55 0 118 -10q233 -38 439 -192q27 27 32 33q73 75 127 208t88.5 298.5t60.5 328.5t59 349.5t67 310.5q-70 11 -200 43t-242 51q-89 15 -167 15q-21 0 -40 -1q-184 -7 -318 -121q-34 -24 -59 -24q-9 0 -17 3q-25 10 -9 40q9 15 26 30 q130 109 334 125q26 2 54 1q82 -1 176 -13q126 -18 266 -46t216 -36q55 172 135 264q77 89 191 88h8q71 -1 110 -34t44 -86q1 -9 1 -19q1 -51 -27 -105q-32 -64 -106.5 -116t-172.5 -66q-11 -67 -27 -185t-28.5 -209.5t-33 -216t-41.5 -223.5t-53 -211.5t-68 -200.5 t-86 -170.5t-108 -139.5q-34 -34 -73 -63q49 -41 60.5 -50.5t54 -43t63.5 -45t57.5 -32t70 -30t70.5 -15.5t74 -5q169 0 309 126q113 102 261 341q33 53 100 166l1 1l1 2q35 24 53 -8q8 -14 9 -29q0 -18 -13 -36q-89 -140 -147.5 -224.5t-142.5 -182t-157 -146t-169 -74.5 q-61 -17 -125 -17q-36 0 -74 5q-42 6 -82 19t-68 23.5t-65.5 35t-54.5 35.5t-56 45.5t-48 43.5t-52 49q-189 -111 -409 -113q-3 0 -6 -1q-216 0 -376 114q-99 78 -99 166q0 14 3 29zM91 314q0 -14 13 -33t41 -39q143 -102 311 -104q3 0 7 -1q165 0 319 107 q-162 123 -366 157q-90 13 -155 13q-47 0 -81 -7q-80 -16 -88 -63q-1 -16 -1 -30zM1491 1892q99 26 159 92q56 61 56 114v9q-7 61 -86 64q-43 0 -73.5 -71t-55.5 -208z" />
<glyph unicode="M" horiz-adv-x="2048" d="M-76 741v18q0 85 34 165q38 88 98.5 154.5t153 131t177.5 109t191 90.5q7 235 51 356q29 128 118 239t206.5 174t232.5 63q63 0 109.5 -19.5t73 -54t40.5 -74t18 -86.5q1 -13 2 -27q0 -117 -95 -241q-105 -138 -337 -248q-53 -24 -237 -92q2 -152 14 -572q37 135 87 235 q51 100 119 156q50 41 103 40q19 0 39 -5q30 -8 51 -35t33.5 -64t20 -95t9.5 -113t3 -133q29 125 97 258.5t148 236t164.5 172t147.5 76.5q13 2 26 1q58 0 91 -34q41 -42 44 -119v-20q0 -70 -18 -159q-20 -92 -77 -233.5t-120.5 -275.5t-122.5 -257.5t-91 -203.5 q-23 -57 -23 -78q0 -9 4 -11q3 -3 9 -2q32 0 142 81q128 96 246 200t140 130q28 35 50 28q14 -5 15 -24q0 -10 -4 -24q-6 -24 -90.5 -106.5t-190.5 -170.5t-214 -146q-77 -42 -121 -42q-17 0 -29 6q-58 30 -62 119q-1 10 -1 20q-1 81 31 183q36 114 90.5 252.5t109.5 260 t94 230.5t39 160t-43 51q-21 0 -51 -12q-89 -37 -192.5 -249.5t-200.5 -516.5q-19 -60 -53 -80q-16 -9 -30 -9q-17 0 -33 13q-29 24 -34 82q-3 59 -18 174.5t-46.5 237t-64.5 127.5h-2q-31 -1 -75 -157q-46 -162 -88 -389.5t-66 -434.5q-13 -198 -45 -346q-18 -78 -81 -107 q-24 -11 -46 -11q-24 0 -43 14q-27 19 -27 54q0 13 4 29q38 169 52 389q12 182 13 330q0 30 -1 59q-2 169 -10 405q-7 208 -7 322v29q-68 -28 -126 -56t-120 -64.5t-110 -74t-91 -83.5t-70 -94.5t-39 -106.5q-8 -37 -7 -76q0 -22 2 -45q1 -31 -27 -45q-30 -16 -49 11 q-13 19 -14 50zM762 1485q189 75 217 90q67 34 123.5 71.5t96.5 74t71.5 74t48.5 71.5t29 66q11 31 11 56.5t-5 51.5q-13 49 -48.5 76t-105.5 28h-2q-142 0 -266 -126q-124 -128 -154 -304q-13 -77 -16 -229z" />
<glyph unicode="N" horiz-adv-x="1859" d="M18 680q18 68 56 142t77 131.5t97.5 125.5t101.5 112t103 103l-2 9q-93 265 -93 452q0 172 108 312q86 112 195 144q35 10 66 10q74 0 126 -58q21 -23 36 -54q27 -55 31 -133v-23q0 -69 -18 -149q-21 -92 -78.5 -198t-145.5 -203q-37 -40 -82 -82q70 -261 106 -559 q52 238 123.5 431t149 319.5t163.5 209.5t166 115q60 24 117 24q20 0 39 -3q157 -23 157 -215q0 -68 -20 -158q-11 -49 -32.5 -130.5t-43 -163.5t-47.5 -180.5t-46 -188t-37 -179t-23 -161.5q-3 -40 -2 -75q0 -27 2 -53q4 -56 26 -86q20 -27 55 -26h7q41 1 203.5 142.5 t204.5 190.5q28 35 50 28q14 -5 15 -24q0 -10 -4 -24q-6 -23 -72.5 -90t-152.5 -138t-178 -126q-91 -54 -140 -54h-2q-85 0 -128 67.5t-45 179.5v23q-1 101 15 223q18 136 52.5 283.5t66.5 274.5t56 233.5t24 149.5q0 13 -2.5 25t-10 30t-27 28.5t-48.5 10.5 q-27 0 -64.5 -23.5t-86.5 -78t-100 -132.5t-104.5 -198t-100.5 -264.5t-87 -341t-65 -418.5q-10 -182 -41 -325q-16 -72 -70 -90q-18 -6 -34 -6q-34 0 -62 25q-30 27 -30 68q0 15 4 31q51 226 71 412q13 120 13 228q0 59 -4 115q-11 157 -32 268t-63 263q-57 -54 -99 -97 t-93.5 -103.5t-85.5 -112.5t-65 -117q-30 -66 -42 -126q-8 -43 -9 -91q-1 -19 1 -39q4 -70 31 -137q11 -27 -14 -48q-26 -22 -53 0q-16 14 -25 42q-23 74 -23 151q0 80 18 150zM518 1784q0 -169 53 -373q26 26 58 62q82 99 136 203t71 185q12 59 12 106q0 17 -2 35 q-6 60 -37 85q-41 33 -82 34h-2q-40 0 -100 -38q-107 -78 -107 -299z" />
<glyph unicode="O" horiz-adv-x="1306" d="M20 756q16 206 85.5 380.5t183 302t241.5 173.5q72 26 134 31q20 2 38 1q36 0 64 -6q40 -10 73 -34t50.5 -49.5t30 -56t16.5 -49t6 -34.5q1 -9 1 -17q0 -52 -29 -67q-25 -14 -46 14q-11 16 -14 39q0 3 -0.5 21.5t-1.5 36.5t-6.5 42.5t-15 43.5t-29 35.5t-45.5 22.5 q-15 4 -35 4q-15 0 -33 -2q-42 -5 -94 -25q-106 -40 -186.5 -126t-126 -197.5t-65.5 -241.5q-16 -99 -16 -201q0 -32 2 -65q6 -135 36 -263q86 -369 387 -369q151 0 277 141t212 421q18 57 32 130q14 74 22 168q5 64 6 128q0 30 -2 60q-4 92 -27.5 184.5t-66 164.5 t-119.5 122t-181 62q-35 5 -35 26q0 20 24 28q8 3 17 3q4 0 9 -1q90 -12 162.5 -46t121.5 -81t83.5 -110.5t53.5 -129.5q20 -65 28 -142q8 -73 8 -137v-7q0 -68 -7.5 -142t-16.5 -127.5t-20 -107.5q-35 -175 -106.5 -318t-163.5 -235.5t-198 -142.5t-214 -50 q-322 0 -452 387q-54 164 -54 330q-1 39 2 78z" />
<glyph unicode="P" horiz-adv-x="2551" d="M2 883q6 63 38 120t77 100.5t112.5 83t132 67.5t149 55t149.5 44t147 36q6 59 18 104q29 198 184.5 351t331.5 167q20 2 39 2q84 1 132 -37q59 -46 59 -127q0 -60 -32 -127.5t-90 -132t-150 -120.5t-201 -87l-121 -28q0 -82 10 -215q131 127 287.5 221t307 143.5 t296.5 58.5q32 2 61 2q109 0 198 -26q114 -32 191.5 -113t96.5 -202q7 -42 7 -84q0 -114 -48 -235q-64 -165 -195 -316q66 -22 103 -32q38 -8 85 -12q9 -1 17 -1q38 1 68 13q38 16 75 48q21 27 48 27q9 0 18 -3q32 -9 32 -38q0 -16 -16 -33q-19 -20 -38 -35.5t-41.5 -25 t-40.5 -16.5t-45.5 -8t-45.5 -2t-50.5 4.5t-50 8.5t-56 13.5t-56 15.5t-61.5 18q-135 -135 -300 -226.5t-329 -117.5q-51 -6 -101 -8h-13q-44 0 -86 12q-49 14 -88 37t-66.5 67.5t-34.5 104.5q-3 24 -3 46q1 37 9 69q14 50 54.5 93t112.5 66q73 23 181 32q39 3 83 3 q79 0 173 -10q141 -13 285 -53q113 139 171 287q42 108 42 204q0 35 -6 68q-15 93 -64 155q-48 61 -122 87q-69 24 -155 24h-13q-93 -2 -201 -37t-219 -93.5t-225.5 -146.5t-217.5 -196q7 -71 29.5 -269.5t33.5 -315t23 -286.5q11 -151 11 -279v-31q-2 -142 -17 -262 q-12 -81 -74 -114q-26 -14 -49 -14q-20 0 -38 11q-31 19 -31 59q0 10 2 21q23 148 23 333q0 69 -4 143q-12 273 -39 488t-51 457q-20 200 -20 330q0 27 1 51q-78 -17 -140.5 -32.5t-140 -39t-136 -49t-117 -61t-97 -75.5t-62.5 -92t-24 -110q-1 -25 -28 -34q-31 -11 -47 14 q-8 12 -8 31q0 6 1 12zM977 1425q31 7 110 29q193 59 302.5 165.5t109.5 197.5q0 49 -35 77q-31 24 -84 24q-8 0 -16 -1q-95 -7 -180.5 -72.5t-140 -170t-64.5 -220.5q0 -4 -1 -14t-1 -15zM1204 442q1 -26 10 -55q20 -63 86 -93q44 -20 102 -20q29 0 62 5q118 18 248 99 t244 202q-143 34 -248 41q-74 7 -136 7q-24 0 -46 -1q-78 -4 -135 -13t-93.5 -28.5t-58 -40.5t-29.5 -49q-7 -25 -6 -48v-6z" />
<glyph unicode="Q" horiz-adv-x="1380" d="M20 756q16 205 85.5 380t183 302.5t241.5 173.5q73 26 134 31q20 2 38 2q37 0 64 -7q41 -11 73.5 -34.5t50 -49t30 -56t16.5 -49t6 -34.5q1 -9 1 -17q0 -51 -29 -67q-25 -14 -46 14q-11 16 -14 39q0 3 -0.5 21.5t-1.5 36.5t-6.5 42.5t-15 43.5t-29 35.5t-45.5 22.5 q-15 4 -35 4q-15 0 -33 -2q-42 -5 -94 -25q-106 -40 -186.5 -126t-126 -197.5t-65.5 -241.5q-16 -100 -16 -201q0 -33 2 -65q6 -135 36 -263q86 -369 387 -369q137 0 252 115q-145 134 -273 338q-39 71 -39 112q0 12 3 22q12 30 44 30q13 0 29 -5q57 -17 92 -81 q120 -222 215 -330q96 134 166 361q18 57 32.5 130.5t21.5 167.5q6 65 6 128q0 30 -2 60q-3 92 -27 184.5t-66.5 164.5t-119.5 122t-181 62q-35 5 -35 26q0 20 24 28q8 3 17 3q4 0 9 -1q90 -12 162.5 -46t121.5 -81t83.5 -110.5t53.5 -129t28 -142.5q8 -73 8 -137v-7 q-1 -68 -8 -142t-16 -127.5t-20 -107.5q-57 -280 -196 -467q62 -57 116 -57q16 0 31 5q31 11 61.5 -5.5t26.5 -45.5t-57 -47q-27 -10 -56 -10q-84 0 -190 80q-91 -97 -199.5 -148t-218.5 -51q-322 0 -452 387q-54 164 -54 330q0 39 2 78z" />
<glyph unicode="R" horiz-adv-x="2011" d="M49 1575q113 127 226.5 222t213 153t211 96.5t205.5 56t211 27.5q44 4 85 4q137 0 253 -40q152 -52 244.5 -148t124.5 -220q18 -77 17 -156q0 -33 -2 -67q-10 -113 -58.5 -225.5t-118.5 -215.5t-162.5 -194.5t-192 -162t-207.5 -118t-208 -63.5q-4 -1 -13.5 -2t-13.5 -2 q258 -147 396 -209.5t210 -62.5q48 0 102 21t100 51t97 75t84 79t71.5 79t49 59t25.5 33q23 32 49 25q19 -6 19 -28q0 -6 -1 -12q-3 -17 -16 -36q-6 -10 -18 -26t-49.5 -63.5t-76.5 -91t-95.5 -96t-111.5 -90.5t-119.5 -64t-123.5 -26q-9 0 -44.5 -0.5t-46 0t-45 3t-54 8.5 t-61.5 17t-77 27t-90.5 40.5t-113.5 56t-134 74t-163 94.5q2 -61 2 -119q0 -353 -68 -598q-9 -42 -49 -63q-19 -10 -35 -10q-17 0 -33 12q-19 15 -20 47q0 18 6 41q44 172 52 408q2 63 3 126q1 173 -17 349q-24 240 -65.5 468.5t-95.5 415.5q-6 20 -6 38q0 46 40 74 q28 20 58 20q15 0 30 -5q36 -10 44 -45q107 -444 143 -946l31 -19q83 -54 164 -54q19 0 39 3q107 17 225.5 76t228.5 154.5t195 211t129 258.5q33 105 33 209q0 37 -4 74q-11 92 -60.5 177.5t-125.5 150t-178.5 103t-213.5 38.5q-550 0 -1003 -604q-13 -16 -42 -9 q-34 9 -34 41q0 38 49 95z" />
<glyph unicode="S" horiz-adv-x="1611" d="M0 -344q5 164 170.5 319t501.5 271q321 109 510 182q0 122 -23 246q-16 84 -48.5 164.5t-66.5 138t-88 124t-90.5 104t-97.5 97.5t-86 87q-111 -87 -183.5 -181t-106.5 -198q-21 -63 -21 -128q1 -42 9 -88q22 -114 103 -227q17 -23 -11 -36q-14 -6 -28 -6q-18 0 -35 10 q-10 6 -16 14q-81 106 -98 230q-5 36 -5 72q0 87 29 171q41 119 119.5 229.5t186.5 202.5q-99 117 -99 221q0 115 125 189q72 41 156 41q11 0 22 -1q97 -6 154 -57q17 -14 30 -37t17 -58q1 -9 1 -18q0 -27 -9 -55q-12 -38 -54 -83.5t-112 -86.5l-59 -36q24 -23 74 -69.5 t83 -77.5t83 -83t85 -95t76.5 -104t70.5 -120t55 -132.5t40 -150.5q13 -72 16 -129q159 71 213 123q25 24 54 19q29 -4 35 -28q1 -5 1 -11q0 -19 -16 -40q-67 -78 -283 -163q-2 -135 -37.5 -260.5t-96 -226.5t-141 -189t-174 -151.5t-193 -109.5t-198.5 -68.5t-192 -22.5 q-52 0 -100.5 8t-96 28t-82.5 50t-55 78q-18 44 -18 97v11zM96 -373q9 -65 70 -105t160 -40q77 0 164.5 25.5t177.5 72.5t174.5 122t154 166.5t117.5 213t62 254.5q-16 -6 -203 -69t-287 -99q-132 -48 -238.5 -108t-173 -117.5t-110.5 -116.5q-42 -58 -58 -108 q-11 -36 -11 -67q-1 -13 1 -24zM651 1712q0 -80 84 -174l41 25q52 32 85.5 63t46 54.5t13.5 44.5v6q0 17 -5 29q-6 14 -17 22q-36 34 -95 40q-13 1 -24 1q-43 0 -75 -19q-54 -34 -54 -92z" />
<glyph unicode="T" horiz-adv-x="1173" d="M0 1690q0 63 51.5 107t123.5 62.5t159 20.5h24q168 0 496 -63q21 81 49 133q23 40 71 46q8 1 15 1q37 0 63 -23q20 -18 20 -41q0 -14 -7 -30q-19 -51 -37 -117q110 -20 196 -33t186 -23q90 -9 174 -9h16q92 1 172 14q28 4 50.5 11.5t37.5 15t27.5 19.5t19 20.5t12.5 23.5 t8 23t5.5 24t4.5 22q7 31 23.5 48t52.5 20q25 1 39 -15.5t14 -49.5q0 -29 -15 -61q-16 -34 -48 -69.5t-91.5 -63t-135.5 -38.5q-88 -13 -186 -15q-22 -1 -45 -1q-76 1 -154 7q-101 8 -187 20t-192 30q-55 -275 -66 -653q-17 -553 -37 -754q-10 -101 -30 -205.5t-55.5 -216.5 t-80 -198t-109.5 -141.5t-138 -55.5q-58 0 -80 35q-19 32 11 56q27 21 83 21q36 0 67 23t54.5 68.5t42.5 101t32.5 134t23.5 153t16.5 171.5t10.5 177t6 183t2.5 174t0.5 165q0 153 18 388.5t54 408.5q-17 3 -80.5 15.5t-84 16t-72 13t-77 12.5t-65 8t-69.5 7t-58 2 q-110 0 -178 -34t-93 -112q-7 -24 -21.5 -32t-27 6t-12.5 47z" />
<glyph unicode="U" horiz-adv-x="1478" d="M4 1654q16 92 59.5 166t112 120.5t139.5 46.5q123 0 194 -73t71 -196q0 -100 -33 -244.5t-79.5 -286.5t-98.5 -294t-89.5 -281.5t-53.5 -234.5q-6 -40 -7 -73q0 -56 17 -94q27 -62 102 -65q38 0 93.5 54.5t116.5 151.5t122.5 252t103.5 335q24 311 71.5 581.5 t104.5 395.5q9 16 28 22.5t38.5 2t36.5 -14t25.5 -25.5t2.5 -32q-51 -135 -88.5 -369t-53.5 -477.5t-19 -467.5q-1 -40 -1 -77q0 -173 12 -293q14 -146 40 -155h3q18 0 64 45q50 50 114 129t123.5 156.5t108 143t54.5 72.5q28 35 50 28q14 -5 15 -24q0 -10 -4 -24 q-7 -25 -82.5 -134.5t-172.5 -232.5q-96 -124 -197 -216q-90 -83 -137 -82q-6 0 -11 1q-77 17 -111 219q-28 171 -29 420q0 44 1 91q-117 -291 -262 -435q-124 -124 -239 -123q-19 0 -38 3q-80 15 -125 76t-45 155q0 175 127 552q23 69 72 208q123 352 156 496 q23 103 23 176q0 119 -63 156q-31 18 -77 18q-18 0 -47 -15t-62.5 -47t-57.5 -81.5t-34 -117.5q-3 -23 -2 -48q0 -50 12 -109q6 -27 -8 -43t-34.5 -8t-32.5 39q-24 62 -24 125q0 28 5 56z" />
<glyph unicode="V" horiz-adv-x="1173" d="M10 1098q6 24 56.5 87.5t116.5 131.5q66 69 141 115q60 37 102 36q11 0 20 -2q79 -19 123.5 -199.5t48.5 -416.5q1 -32 1 -64q-1 -206 -23 -421q-26 -249 -76 -402q75 55 150.5 193.5t139.5 318t128 387t127 411.5t124.5 378t132 300.5t140.5 166.5q16 9 34 9 q21 0 43 -12q33 -17 33 -41q0 -4 -1 -9q-4 -20 -33 -37q-72 -45 -149 -193t-147 -346.5t-144 -428.5t-151 -449t-156 -397q-79 -180 -171 -286q-88 -101 -176 -100h-10h-16q-30 6 -37 33q-6 19 2 39q39 102 53 448q6 154 7 301q0 183 -10 355q-18 311 -60 325q-4 1 -9 1 q-66 0 -294 -255q-28 -35 -50 -27q-14 5 -14 25q0 10 4 25z" />
<glyph unicode="W" horiz-adv-x="2254" d="M9 1283q-9 24 -9 46q0 23 10 43q15 29 42 29q16 0 36 -10q12 -6 32 -6q40 0 112 22q110 33 228.5 82t244 92t180.5 43q31 0 49 -45q11 -26 11 -51q0 -18 -5 -35q-38 -118 -99.5 -539t-97.5 -794q-22 -224 -22 -313q0 -58 10 -58q19 1 97 119q76 116 176.5 282.5t203 334 t192 288t128.5 127.5q36 6 53 -22q11 -19 11 -46q0 -15 -3 -32q-19 -98 -19 -304q0 -6 -1 -13q-1 -200 15 -403q16 -210 56.5 -369t96.5 -161h1q42 0 72 110q30 112 52.5 299.5t46 391.5t66 423.5t100.5 359.5q16 36 44 32q26 -3 26 -36q0 -18 -9 -40q-43 -97 -78 -319 t-62.5 -455.5t-61.5 -457.5t-91 -365q-55 -137 -131 -137h-4q-57 3 -105.5 45t-81.5 110t-60.5 157t-42.5 185.5t-27.5 196t-16 188t-7.5 161.5q-2 45 -2 79q1 21 1 38q2 44 0 54q-7 -11 -112 -179t-191.5 -302t-196 -299t-185.5 -261t-101 -97h-2q-46 0 -62 103 q-12 71 -12 171q0 49 2 105q8 171 30.5 377t53.5 418t58.5 388t47 298t19.5 136q0 22 -26 22q-33 0 -107 -35q-24 -11 -222 -115q-210 -111 -280 -111q-50 0 -71 54z" />
<glyph unicode="X" horiz-adv-x="1570" d="M1 -385q8 19 38 31q39 17 83.5 59.5t87.5 99.5t93.5 139t95 163t100 188t100.5 197t104 206t104 201q-76 190 -138.5 312.5t-127.5 185.5q-17 16 -17 36t12.5 33t31 18.5t38.5 -7.5q95 -60 283 -424q82 148 153 257t147 197q75 88 147 125q48 25 94 25q22 0 43 -6 q17 -4 27 -16t9.5 -26.5t-6.5 -28t-20.5 -21t-32.5 -5.5h-9q-43 0 -90 -26q-52 -28 -101.5 -79t-104 -129t-104.5 -163.5t-107 -193.5q38 -73 90.5 -179.5t87.5 -176.5t72.5 -140.5t62.5 -107.5t39 -42q3 -1 7 -1q20 0 58 26q45 32 96 84.5t83.5 87.5t54.5 61q29 35 51 28 q15 -5 15 -24q0 -10 -4 -24q-6 -24 -56 -89t-115.5 -134t-139.5 -116q-60 -38 -103 -38q-10 0 -19 2q-28 6 -57 29.5t-53.5 52.5t-54 81.5t-50 93.5t-51.5 113.5t-48.5 116.5t-49.5 126q-44 -89 -111.5 -230t-114.5 -237.5t-108.5 -218.5t-111 -205.5t-103.5 -163.5 t-104.5 -128t-96.5 -65q-12 -5 -24 -5q-24 0 -50 19q-28 20 -28 42q0 7 3 14z" />
<glyph unicode="Y" horiz-adv-x="1822" d="M8 1446q88 142 281 217q87 31 188.5 48.5t249 30.5t191.5 19q5 1 9 1q15 0 22 -9q9 -11 3 -33q-32 -95 -61.5 -234.5t-47.5 -289.5q-8 -70 -8 -132q0 -72 11 -134q21 -116 86 -137q3 -1 7 -1q20 0 58 26q45 32 96 84.5t83.5 87.5t54.5 61q8 10 24 22q13 229 72 596 q4 27 35 43.5t60.5 5t29.5 -54.5q0 -89 -4 -208t-9.5 -241t-6.5 -157q-10 -394 -68 -695q174 28 291 75t180 134q26 26 48 26q7 0 13 -3q13 -6 13 -18q0 -8 -5 -19t-16 -22q-81 -94 -217 -149.5t-321 -90.5q-50 -229 -142 -412q-79 -152 -234.5 -282t-339.5 -197 q-135 -50 -252 -50q-44 0 -85 7q-68 11 -117.5 28.5t-94 50t-66.5 86.5q-19 48 -19 112v18q2 80 41.5 159t117 157t208.5 149.5t303 124.5q38 12 82.5 22.5t80 17.5t90.5 15t84.5 12t93 12t87.5 11q54 275 61 622q-35 -49 -83 -102t-103 -103.5t-111 -78.5q-41 -22 -72 -22 q-10 0 -20 3q-62 14 -107 81.5t-66.5 163t-24.5 211.5v31q0 100 14 194q16 108 53 204t90 150q-358 -29 -475 -66q-161 -50 -270 -203q-31 -44 -63 -44q-21 0 -21 20q0 21 18 49zM96 -373q10 -68 55 -109.5t140 -54.5q28 -4 58 -4q104 0 227 50q157 64 291 184.5t200 259.5 q65 136 107 311q-21 -3 -86.5 -13t-92 -14t-80.5 -13t-86 -16.5t-73 -18t-74 -21.5q-133 -44 -240 -102.5t-172.5 -116.5t-108 -119t-57.5 -112q-10 -35 -10 -66q0 -13 2 -25z" />
<glyph unicode="Z" horiz-adv-x="1570" d="M3 -386q6 20 36 32q67 29 148 137t162 263t167 339t175.5 378.5t175.5 368t178.5 319.5t173.5 222q-88 -4 -194 -4q-99 -1 -213 3q-236 8 -414.5 20t-180.5 12q-21 0 -20 -45q-1 -47 21 -141q44 -186 75 -258q19 -41 3 -57.5t-48 11.5q-57 50 -145 296q-43 121 -43 186 q0 67 46 73q58 7 139 7h61q122 -4 294 -8q173 -2 334 -4q15 0 30 -1q146 -1 288 13q156 14 245 47q11 4 21 4q16 -1 28 -11q20 -18 18.5 -45t-26.5 -42q-32 -18 -78 -29q-82 -82 -206 -299t-252.5 -478.5l-257 -523t-252.5 -479.5t-207 -301q80 -10 191.5 -29.5t202.5 -37 t207.5 -36.5t207 -27.5t200.5 -10.5q16 0 31 -1q91 0 158 13q36 6 64 19.5t43.5 27t27.5 37.5t15.5 36.5t9 39t6.5 31.5q7 30 31.5 44t50.5 10.5t46.5 -25t20.5 -54.5q1 -31 -15 -65.5t-48.5 -69.5t-92 -62.5t-135.5 -38.5q-91 -16 -204 -16h-25q-128 2 -234 13t-232.5 32.5 t-223.5 41.5t-208 41t-187 30q-48 -15 -87 -15q-43 0 -74 18q-31 17 -31 39q0 5 2 10z" />
<glyph unicode="[" d="M344 -479q16 166 16.5 442.5t-6.5 520t0 514t35 438.5q6 32 35 43h2q16 3 58 10t55.5 9t48 7.5t50 6.5t45.5 3.5t50 2t49 -1t57 -3t60 -6.5q16 -3 23 -24.5t1.5 -42t-20.5 -19.5q-67 7 -115.5 8t-101.5 -6t-92 -15.5t-119 -27.5q-14 -175 -11 -421t14.5 -464t14 -494.5 t-13.5 -514.5v-8q113 -15 157.5 -14t175.5 15q21 2 32 3q25 3 36 -23t5 -53.5t-23 -28.5q-12 -1 -62 -3t-61 -2.5t-51 -1.5t-54.5 0t-48 3t-55.5 6t-53 9.5t-63 13.5q-33 -5 -55 25.5t-15 93.5z" />
<glyph unicode="\" horiz-adv-x="1261" d="M112 1755q21 24 60 7q30 -15 49 -46q185 -319 449.5 -932.5t382.5 -1037.5q8 -29 2.5 -53t-22 -34.5t-35 -12t-37 14.5t-27.5 46q-95 307 -225.5 665t-292.5 725.5t-283 547.5q-50 76 -21 110z" />
<glyph unicode="]" d="M346.5 1438.5q-5.5 20.5 1.5 42t23 24.5q36 5 70 7t57.5 3.5t59.5 -0.5t50.5 -2.5t56.5 -6.5t52 -7.5t62.5 -10.5t64.5 -11h4q30 -11 33 -43q28 -168 35 -438.5t0 -514t-6.5 -520t16.5 -442.5q7 -63 -15 -93.5t-55 -25.5q-116 -28 -221 -31t-227 6q-17 1 -23 28.5t5 53.5 t36 23q102 -11 145 -14.5t102 -2t120 12.5l-2 8q-15 233 -12.5 515.5t14 494.5t15 463t-10.5 421q-147 37 -214.5 44.5t-215.5 -3.5q-15 -1 -20.5 19.5z" />
<glyph unicode="^" d="M332 1258q0 16 12 26q30 25 74.5 63t69 58.5t63.5 50.5t82 60q28 20 47 4q18 -13 58 -65.5t90.5 -113.5t93.5 -94q18 -13 12.5 -35.5t-24 -32t-36.5 0.5q-115 87 -225 223q-88 -69 -213 -191q-29 -29 -70 -4q-33 21 -34 50z" />
<glyph unicode="_" horiz-adv-x="962" d="M16.5 24.5q-6.5 18.5 7 35t37.5 14.5q219 -24 377 -25t393 14q55 4 70 -33q10 -28 -12 -46q-10 -8 -25 -9q-218 -8 -408.5 -4t-408.5 31q-24 4 -30.5 22.5z" />
<glyph unicode="`" d="M358 1343q-30 63 4 93q26 23 59 6q15 -8 25 -23q104 -167 135 -204q27 -33 50 -48q5 -2 7 -5.5t-1 -8t-14 -8.5q-39 -12 -80 2.5t-76 49.5t-61 70.5t-48 75.5z" />
<glyph unicode="a" horiz-adv-x="989" d="M-59 465q15 121 63.5 235.5t111.5 194.5t130.5 132.5t122.5 62.5q27 5 51 4q25 0 46 -4q41 -10 63 -35t32 -59q10 -32 10 -65q0 -35 -10 -69q-9 -33 -28 -34q-20 0 -27 36q-2 11 -2 25q0 35 -37 71q-27 26 -66 26q-14 0 -30 -3q-63 -15 -125.5 -103.5t-101 -206.5 t-40.5 -222v-18q0 -118 50 -118q25 0 71.5 69t117.5 183t128 181q19 33 59 45q12 4 24 4q24 -1 42 -19q16 -16 17 -45q0 -19 -7 -43q-99 -342 -124 -476q-22 -115 -22 -191q0 -29 3 -52q67 151 210 331t281 306q18 17 48 5q24 -9 24 -26q0 -4 -2 -9q-4 -9 -12 -17 q-114 -112 -207 -232t-142.5 -205.5t-90 -157.5t-73 -108t-67.5 -36q-53 0 -84.5 40.5t-39.5 106.5q-5 43 -4 91q0 26 1 53q4 78 19.5 159.5t32 146t32.5 109.5q-25 -61 -54 -114.5t-67.5 -108t-85 -87t-92.5 -32.5q-80 0 -122 74q-30 55 -31 140q0 30 4 65z" />
<glyph unicode="b" horiz-adv-x="751" d="M-47 470q-3 47 -3 105q0 118 13 283q22 217 70.5 404t114 321t144 229.5t162 142t167.5 46.5q221 -8 221 -190v-7q-2 -100 -42.5 -218t-110 -235.5t-143 -223.5t-166.5 -215t-153.5 -176.5t-128.5 -137.5q7 -71 21 -113q3 16 39 52.5t91 70t99 33.5q57 0 99.5 -34.5 t66.5 -94.5q124 83 217 117q19 6 36.5 -1t23.5 -22q13 -35 -21 -51q-166 -81 -235 -123q4 -46 4 -72q0 -79 -17.5 -171.5t-49.5 -180.5t-87 -146.5t-121 -58.5q-60 -1 -92 67q-28 58 -28 125q0 10 1 21q7 110 83.5 219.5t193.5 206.5q-5 41 -26.5 63.5t-67.5 22.5 q-37 0 -73 -23t-61.5 -53t-51.5 -76.5t-39 -76.5t-29 -70q-12 -9 -40.5 1t-39.5 34q-31 66 -41 206zM98 717q250 258 404 462.5t217.5 349t71.5 275.5v10q1 46 -25 82q-28 40 -74 41h-3q-66 1 -138 -45q-74 -46 -144.5 -137.5t-131 -214.5t-104 -287.5t-60.5 -343.5 q-12 -160 -13 -192zM203 29q-2 -15 -3 -29q0 -35 16 -59q20 -33 42 -33q37 0 75 74.5t63 179.5t30 200q-197 -146 -223 -333z" />
<glyph unicode="c" horiz-adv-x="507" d="M-68 469q0 83 42 183.5t116.5 176.5t153.5 78h3q53 0 75 -33q24 -37 25 -96q-1 -45 -21 -61t-41 -10q-13 6 -17.5 15.5t-7.5 39.5q-4 65 -31 65q-41 -3 -74.5 -45.5t-52.5 -105.5t-29 -128.5t-10 -123.5q0 -55 7 -111.5t18 -56.5q40 0 79.5 15t82 48.5t68.5 57t73.5 72.5 t61.5 63q14 13 40.5 44.5t44 49t23.5 12.5q11 -9 11 -26q0 -23 -21 -60q-32 -56 -84 -121.5t-115 -127.5t-133 -103t-125 -41q-47 0 -79.5 24.5t-50 71.5t-25 103.5t-7.5 130.5z" />
<glyph unicode="d" horiz-adv-x="1187" d="M-76 410q2 97 33 186.5t78.5 151.5t98 104t97.5 61q45 17 79 18q20 0 36 -7q0 74 2 138t7.5 152t15 162.5t26 160t39 155t56 137.5t74 116.5t96 83t120.5 46.5q37 6 68 6q103 0 147.5 -60t44.5 -190q0 -144 -56.5 -326.5t-143 -348.5t-176 -305t-166.5 -228 q22 -646 180 -646q47 0 110.5 58.5t123.5 145.5t111.5 171.5t89.5 153.5t42 74q21 32 47 25q21 -6 21 -30q0 -4 -1 -8q-3 -19 -16 -39q-7 -14 -19 -37.5t-49.5 -92.5t-75.5 -131.5t-92 -138.5t-103.5 -131t-105 -92.5t-101.5 -37.5q-255 0 -304 522q-65 -85 -135 -137 q-66 -50 -126 -49h-7q-77 3 -123 53q-43 47 -43 141v13zM68 391q-1 -15 -1 -27q0 -88 42 -88h1q36 0 112 101q76 103 126 223q-2 68 -2 184q-1 3 -2.5 15t-3 17.5t-4.5 15.5t-8 14t-12 7.5t-17.5 2t-24.5 -7.5q-77 -36 -139 -179t-67 -278zM492 960q0 -84 4 -159v-45 q267 379 380 635t113 444q0 52 -10 94q-9 42 -39 72q-25 25 -61 25q-7 0 -15 -1q-77 -13 -139 -72.5t-101 -144.5t-66.5 -198t-41 -221.5t-19 -226.5t-5.5 -202z" />
<glyph unicode="e" horiz-adv-x="708" d="M-41 549q0 208 96 353t203 145q39 0 71.5 -26.5t32.5 -86.5q0 -90 -81.5 -191.5t-184.5 -179.5q1 -167 40.5 -265.5t94.5 -98.5q63 0 141 54.5t131.5 116t108 130.5t60.5 75q31 31 54 9q12 -11 12 -24q0 -7 -4 -14q-2 -4 -5 -7q-2 -2 -42.5 -55.5t-94.5 -116.5t-121 -129 t-142.5 -110t-138.5 -44q-68 0 -122 70t-81.5 175t-27.5 220zM104 639q70 59 129 147q58 87 58 131q0 27 -31 33q-4 1 -8 1q-24 -1 -46 -27q-26 -30 -45.5 -81t-34 -103t-22.5 -101z" />
<glyph unicode="f" horiz-adv-x="532" d="M-152 165q-1 7 -1 14q0 15 7 33q12 25 42 46q25 19 51 35q1 247 22 487t65 463.5t106 393t151.5 271t195.5 101.5q57 0 106.5 -50t49.5 -155q0 -148 -139.5 -452t-374.5 -662q-12 -196 -14 -295q93 53 195 104.5t158 76.5l56 26q23 10 40 10q20 0 30 -14q16 -21 -7 -43 q-9 -9 -20 -14q-283 -123 -454 -232v-203q214 -157 293 -471q31 -126 31 -222q0 -41 -5 -77q-20 -117 -73.5 -174t-127.5 -57q-81 0 -143 135t-95.5 354t-41.5 496q-12 6 -47 16q-20 5 -35 21.5t-21 37.5zM115 -23q8 -327 43.5 -531t93.5 -204q11 0 25 7t31 30t26 59 q9 31 9 85q0 8 -1 17q-1 66 -20 150q-52 232 -207 387zM137 823q220 352 337.5 620t117.5 374q0 37 -13 64t-32 39.5t-35 18t-29 5.5q-67 0 -125 -91t-100.5 -250t-72.5 -354.5t-48 -425.5z" />
<glyph unicode="g" horiz-adv-x="1064" d="M-59 465q15 121 63.5 235.5t111.5 194.5t130.5 132.5t122.5 62.5q27 5 51 5q25 0 46 -5q41 -11 63 -35.5t32 -58.5q10 -32 10 -65q0 -35 -10 -69q-9 -33 -28 -34q-20 0 -27 36q-2 11 -2 25q0 35 -37 71q-27 26 -66 26q-14 0 -30 -3q-63 -15 -125.5 -103.5t-101 -206.5 t-40.5 -222v-18q0 -118 50 -118q22 0 65.5 33.5t92.5 88.5t94 139t65 172q20 36 71 36h11q19 -1 36 -11t28.5 -22.5t24 -35.5t18.5 -36.5t16.5 -41t13.5 -35.5q38 -82 64 -217q182 146 303 215q31 15 50 6q18 -8 18 -30q0 -25 -25 -41q-83 -51 -334 -222l10 -65 q11 -87 12 -190v-16q0 -95 -10 -202q-12 -115 -35 -225.5t-66 -212t-99.5 -177.5t-139.5 -121.5t-182 -45.5q-112 0 -181 60.5t-69 181.5q0 119 50 249t137 253.5t185.5 232t215.5 213.5q-35 181 -78 317q-30 -71 -105.5 -159.5t-167 -154t-153.5 -65.5q-81 0 -122 74 q-31 55 -31 140q0 30 4 65zM92 -647q0 -91 41.5 -142t93.5 -51q72 0 135.5 42.5t108.5 114.5t80 167t51 200t22 214q1 29 1 58q0 78 -11 150q-2 13 -5 40.5t-5 41.5q-100 -85 -187.5 -181t-162.5 -204.5t-118.5 -225.5t-43.5 -224z" />
<glyph unicode="h" horiz-adv-x="1024" d="M-49 604.5q0 127.5 12 253.5q22 217 70.5 404t114 321t144 229.5t162 142t167.5 46.5q221 -8 221 -190v-7q-3 -117 -60 -260.5t-134.5 -267.5t-185.5 -262t-185 -224t-160 -172q14 -156 37 -219q41 181 137 308t174 127q45 0 73 -38t36 -86q6 -39 6 -82v-22 q-1 -31 -18.5 -117.5t-32.5 -168.5t-20 -189q-1 -18 -1 -36q0 -83 20 -142q19 -66 52 -66q31 0 73 60q51 72 165 317l1 1v1l1 1q111 239 158 306q7 9 13 17q20 24 42.5 24.5t26.5 -19.5q1 -3 1 -7q0 -18 -17 -43q-59 -77 -161 -287q-24 -49 -64.5 -134t-62 -128.5 t-54.5 -107t-55 -95.5t-49 -66q-28 -35 -52 -47q-21 -11 -43 -10h-7q-83 9 -109 137q-23 111 -23 214q0 19 1 38q5 121 21 225q17 104 34 182q14 66 14 108v14q-3 44 -37 45q-29 0 -57 -29.5t-56.5 -90.5t-50.5 -120.5t-53 -152.5q-24 -72 -42 -104.5t-38 -33.5h-4 q-51 0 -85 69q-35 72 -47.5 189t-12.5 244.5zM111 729q245 254 396 456t213.5 345.5t70.5 273.5v10q1 46 -25 82q-28 40 -74 41h-3q-66 1 -138 -45q-74 -46 -144.5 -137.5t-131 -214.5t-104 -287.5t-60.5 -343.5q-3 -34 -3 -79t3 -101z" />
<glyph unicode="i" horiz-adv-x="649" d="M-46 362q-4 40 -3 81q-1 51 5 103q10 95 37.5 179t84.5 94q7 1 14 1q34 0 57 -30q16 -22 16 -48q0 -11 -3 -23q-43 -176 -43 -298q0 -21 1 -41q10 -132 40 -193q30 -60 64 -60h1q28 1 69 34t79 76t84.5 105.5t74.5 104.5t61 93t34 52q29 40 49 28q9 -5 9 -16 q0 -15 -15 -39l-19 -32q-19 -32 -34.5 -57t-45 -70t-56.5 -81t-62 -80t-69.5 -77t-71.5 -62t-74.5 -44.5t-71.5 -16.5h-3q-59 0 -105 42q-46 43 -71 115t-33 160zM96 966q11 10 25 11q16 0 29 -12t12 -31q-3 -16 -15 -25.5t-26 -9.5q-16 -1 -27 9q-10 9 -10 25q0 21 12 33z " />
<glyph unicode="j" horiz-adv-x="552" d="M-518 -700q0 119 50 249t137 253.5t185.5 232t215.5 213.5q-33 191 -78 317q-9 25 -9 46q0 38 28 61q21 17 46 17q19 0 40 -9q45 -20 69 -78q36 -78 63 -217q182 146 303 215q31 15 50 6q18 -8 18 -30q0 -25 -25 -41q-74 -45 -333 -222l10 -65q11 -87 12 -190v-16 q0 -95 -10 -202q-12 -115 -35 -225.5t-66 -212t-99.5 -177.5t-139.5 -121.5t-182 -45.5q-112 0 -181 60.5t-69 181.5zM-432 -647q0 -91 41.5 -142t93.5 -51q72 0 135.5 42.5t108.5 114.5t80 167t51 200t22 214q1 29 1 58q0 78 -11 150q-2 13 -5 40.5t-5 41.5 q-100 -85 -187.5 -181t-162.5 -204.5t-118.5 -225.5t-43.5 -224zM-27 774q-1 4 -1 8q0 16 14 28q13 12 28 12q4 0 9 -2q20 -4 24 -29v-9q0 -21 -17 -32q-11 -7 -22 -7q-7 0 -14 3q-18 6 -21 28z" />
<glyph unicode="k" horiz-adv-x="696" d="M-30 506v16q0 160 10 328q10 176 33.5 347.5t57.5 328t86 288t115 226t147 142.5q67 38 143 38q19 0 38 -2q104 -13 143 -89q29 -56 29 -152q0 -34 -4 -74q-21 -222 -115 -479.5t-234.5 -482t-289.5 -349.5v-23q2 1 59 34.5t81 49t74 48t90.5 64.5t78.5 66q31 29 48 3 q8 -13 8 -29q0 -20 -12 -46q-12 -27 -36 -48q-162 -137 -315 -236q81 -110 182 -221t178 -152q35 -21 42.5 -47t-14.5 -39.5t-61 -1.5q-78 24 -197 132t-200 208q14 -262 41 -432q3 -16 2 -30q0 -48 -34 -70q-18 -12 -37 -12q-20 0 -42 13q-43 27 -53 91q-20 121 -31 272.5 t-11 319.5zM127 707q112 100 220.5 270.5t184 345t125 333.5t58.5 257q4 24 4 49q0 16 -2 33q-4 42 -14 77q-11 35 -35 57q-23 21 -57 21h-3q-80 -5 -147 -54.5t-115.5 -129.5t-86.5 -192t-62.5 -235.5t-40 -268t-22.5 -281t-7 -282.5z" />
<glyph unicode="l" horiz-adv-x="858" d="M-41 1016q11 196 64 370t128.5 293.5t164.5 204t175 120.5q66 27 122 27q17 0 34 -3q58 -9 98 -42.5t56 -80.5t23 -104q3 -27 3 -53q0 -30 -4 -60q-23 -225 -221.5 -549.5t-454.5 -577.5q21 -190 64.5 -303t101.5 -113q45 0 96.5 20.5t95 49t93 73t82 78.5t71.5 81 t52.5 64.5t32.5 43.5q5 6 6 8q23 32 49 25q19 -6 19 -28q0 -6 -1 -12q-3 -17 -16 -36q-6 -10 -18 -27t-49.5 -66.5t-76.5 -95t-95.5 -100.5t-111.5 -94.5t-119.5 -66.5t-123.5 -27q-42 0 -85 26.5t-84.5 77.5t-76 134t-59 188t-34.5 249q-5 78 -5 161q0 70 4 145zM133 1022 q-3 -82 -3 -154q0 -114 7 -204q229 219 424 522t213 502q5 31 5 63q0 13 -1 27q-3 46 -13 85.5t-44 68.5t-90 38q-10 2 -20 2q-49 0 -104 -36q-67 -43 -130 -131.5t-116 -205.5t-88 -268.5t-40 -308.5z" />
<glyph unicode="m" horiz-adv-x="1277" d="M-29 625q7 70 41 94q18 13 36 13l32 -11q34 -22 41 -68q12 -81 16 -204q90 270 195 270q27 -1 45 -25.5t26 -74.5t11 -97.5t4 -122.5q28 124 86 237t129 182t133 69q138 0 138 -159q0 -44 -11 -101q-21 -116 -67.5 -282.5t-82.5 -352.5q41 72 81.5 135t71.5 108t70 90.5 t61 70t62 60t55 47.5t57.5 45.5t53.5 41.5q21 16 40 16q13 0 25 -7q19 -9 19 -26q0 -6 -3 -13q-5 -13 -21 -25q-120 -92 -215.5 -191t-149.5 -178.5t-96 -153t-63 -122.5t-41 -79t-39 -30q-21 0 -36 5.5t-24 19.5t-14.5 25.5t-7.5 34.5t-2 33v35v15q0 136 27 291t54 269.5 t27 152.5q0 79 -22 79q-35 0 -70 -39t-70 -114t-64.5 -155.5t-64.5 -192.5q-14 -43 -39 -58t-45.5 2.5t-23.5 59.5v13q0 25 2 101q1 27 0 52q0 74 -6 131q-8 76 -31 80h-2q-32 -1 -81 -137q-51 -142 -83 -271q-5 -56 -25.5 -81t-44 -19t-44.5 29.5t-27 54.5q-12 65 -20 209 q-5 89 -5 151q0 39 2 68z" />
<glyph unicode="n" horiz-adv-x="886" d="M-33 696q6 83 48 97q8 3 15 3q22 0 40 -25q13 -19 16 -46q1 -11 2.5 -29t5 -56.5t7 -62.5t5.5 -22q5 22 12 46t23.5 69t35.5 84t49.5 82t64.5 71.5t81 44.5q33 11 68 11q15 0 31 -2q32 -4 54.5 -23t32 -46t14 -59t-0.5 -63q-11 -102 -86 -331t-79 -279q-3 -37 12 -36 q15 2 45 32q17 17 103.5 97.5t169 165t155.5 175.5q21 24 41 11q13 -8 13 -22q0 -9 -5 -20q-4 -9 -12 -18q-81 -94 -193.5 -215t-229.5 -230q-114 -106 -145 -106h-2q-54 4 -54 129q0 30 3 67q7 80 21 163.5t28.5 144.5t29 120t22 98.5t8 70.5t-13 46.5t-42.5 16.5h-5 q-45 0 -85 -52q-44 -56 -72.5 -137.5t-51.5 -171.5t-33.5 -156t-10.5 -91q-3 -44 -14 -69.5t-26 -30t-30 3t-27 28t-17 45.5q-12 63 -20 232q-4 94 -4 159q0 52 3 86z" />
<glyph unicode="o" horiz-adv-x="495" d="M-94 281q2 71 13.5 137.5t38.5 124t62 90.5q42 41 79 49q12 3 23 2q23 0 41 -12q27 -18 49.5 -56.5t37 -86.5t24.5 -107q37 19 78 49.5t75 59.5t42 34q32 22 55 1q11 -11 11 -23q0 -9 -6 -19t-17 -16q-9 -5 -91 -65t-136 -91l6 -88q1 -16 1 -31q0 -105 -30 -180 q-34 -86 -112 -100q-21 -4 -40 -4q-38 0 -70 15q-48 23 -75.5 71.5t-43.5 111.5q-15 58 -15 122v12zM55 342q4 -82 19 -150q15 -70 43 -112q22 -34 49 -33q7 0 14 2q38 11 48 94q4 34 4 71q0 52 -9 108q-43 -17 -63 -17q-78 0 -105 37zM61 524q27 -129 117 -129q9 0 33 4 q-42 195 -94 209q-9 0 -21 -4q-22 -16 -35 -80z" />
<glyph unicode="p" horiz-adv-x="817" d="M-89 106q36 491 157 855q20 60 42 80q15 14 38 14q9 0 20 -2q31 -5 40 -29q6 -13 6 -38q0 -19 -3 -44q-2 -15 -12 -57.5t-25.5 -113t-28.5 -134.5q214 218 364 218q10 0 19 -1q61 -7 91.5 -57.5t33.5 -126.5v-11q0 -53 -26 -133q102 40 182 66q13 4 25 4q23 0 39 -17 q11 -11 11 -23q0 -10 -10 -21q-9 -9 -26 -15q-169 -58 -270 -102q-62 -121 -149 -231.5t-187 -181.5q-85 -60 -152 -60q-12 0 -24 2h-5q-2 -61 -2 -119q0 -334 54 -586q4 -16 4 -31q0 -40 -30 -63q-24 -19 -51 -19q-18 0 -38 8q-49 21 -57 83q-43 255 -43 551q0 161 13 335z M76 209q125 136 401 256q78 143 78 199q0 73 -57 73q-62 0 -187.5 -110t-212.5 -230q-14 -94 -22 -188zM80 57q0 -16 17 -16q9 0 23 4q29 9 60 35q96 77 213 250q-172 -90 -264 -189q-49 -55 -49 -84z" />
<glyph unicode="q" horiz-adv-x="962" d="M-121 336q15 121 63.5 235.5t111.5 194.5t130.5 132.5t122.5 62.5q27 5 51 5q25 0 46 -6q42 -10 63.5 -34.5t32.5 -58.5q10 -32 10 -65q0 -35 -10 -69q-9 -34 -29 -34q-21 1 -27 38q-2 11 -2 23q0 35 -37 71q-27 26 -66 26q-14 0 -30 -3q-63 -15 -125 -103.5 t-100.5 -206.5t-40.5 -222v-18q0 -118 49 -118q24 0 65.5 70t106 183t123.5 182q18 33 58 38q5 1 10 1q42 0 61 -47q10 -26 10 -63q0 -64 -30 -161q-23 -93 -45 -194q110 78 236.5 178.5t197.5 161.5l71 61q27 26 48 26q10 0 18 -5q15 -9 15 -24q0 -8 -4 -18q-6 -12 -15 -22 q-360 -324 -592 -481q-15 -72 -35 -199q100 -111 177 -301.5t77 -335.5v-13q0 -160 -70 -236q-64 -69 -159 -69q-13 0 -27 1q-95 9 -149.5 136t-59.5 339q-1 23 -1 47q0 195 36 444q-1 0 -29 6q-16 2 -28 13.5t-16 28.5t-1.5 36.5t18.5 39t42 32.5q21 12 47 25 q30 158 80 333q-25 -61 -54 -114.5t-67.5 -108t-85 -87t-92.5 -32.5q-81 0 -123 75q-31 54 -31 139q0 31 4 65zM348 -779q15 -210 84 -216h5q8 0 17 2q13 3 30.5 16t32 35t26 64t14.5 98v8q0 110 -50 261q-52 157 -132 267q-32 -239 -32 -416q0 -63 5 -119z" />
<glyph unicode="r" horiz-adv-x="798" d="M-96 778q3 27 10 53t23.5 63t50.5 61t80 26h7q33 0 55 -8q24 -9 35.5 -23.5t15.5 -38t2.5 -44t-7.5 -48.5q-13 -72 -88 -172q33 -21 98 -40.5t98 -37t23 -47.5q-32 -102 -49 -210q-18 -108 -18 -194v-8q0 -81 10 -148q10 -70 29 -108.5t43 -37.5q35 1 89.5 73.5 t111.5 181t108 214.5t92 196.5t49 104.5q18 31 47 23q24 -6 25 -30q0 -14 -10 -28q-7 -11 -47.5 -104t-95.5 -207.5t-120.5 -231.5t-139.5 -197t-136 -83h-9q-90 0 -138 98q-51 101 -51 264v6q1 167 50 355q-30 9 -61.5 24t-69 43t-64.5 63q-28 35 -42 87q-9 34 -9 70 q0 19 3 40zM23 758q0 -43 24 -74q59 80 63 156v8q0 52 -35 55h-9q-23 0 -33 -48t-10 -97z" />
<glyph unicode="s" horiz-adv-x="516" d="M-262 -211q2 42 19.5 84.5t50 83t67 75.5t85.5 74.5t88 66t91 63.5q-27 109 -108 225q-29 43 -43.5 66.5t-29 63t-17.5 79.5v14q1 68 37 111q40 48 108 51h6q40 0 85 -38q48 -42 69 -83q15 -31 2 -46.5t-33 -6.5q-9 4 -55 42q-35 30 -52 30q-9 0 -13 -8q-5 -9 -5 -29 q-1 -24 18 -57.5t58 -84.5q82 -114 127 -217q140 111 203 223q19 33 40 33q7 0 13 -3q17 -9 17 -30q0 -11 -5 -18q-96 -156 -244 -264q37 -99 37 -192q0 -19 -2 -38q-5 -73 -38.5 -162.5t-86 -170.5t-127.5 -136t-151 -55q-104 -1 -159 75q-52 72 -52 168v11zM-172 -195 q-2 -11 -1 -21q0 -36 18 -66q24 -40 79 -40q92 0 164 114.5t72 270.5q0 66 -8 113q-61 -42 -108 -80t-96 -86.5t-80 -100.5t-40 -104z" />
<glyph unicode="t" horiz-adv-x="552" d="M-526 1541q1 11 12 18q19 8 31 4t44 -16t65 -25t92.5 -23t127.5 -10q118 0 426 47q15 26 41.5 69t28.5 46q30 43 82 45h6q37 0 45 -24q6 -15 -6 -36l-49 -80q77 11 226.5 33.5t241.5 36t206 29t196.5 24.5t136.5 11q38 2 74 2q80 0 151 -8q104 -11 177.5 -34t131 -50 t96.5 -61t61.5 -59.5t38.5 -52.5q19 -33 19 -56q0 -18 -12 -28q-18 -16 -41 0q-9 7 -14 17q-69 126 -253 188q-168 56 -378 57q-21 0 -42 -1q-149 -4 -310 -20t-250.5 -29t-269 -42.5t-227.5 -37.5q-66 -134 -120.5 -290.5t-96.5 -342.5q-41 -182 -41 -370v-9 q1 -193 55 -348q55 35 119 107.5t115 150.5t80.5 127t41.5 73q21 38 44 38h4q23 -5 19 -46q-3 -27 -19 -61q-36 -70 -89.5 -154.5t-118 -171.5t-132.5 -145t-117 -58t-91 73q-42 72 -62 186q-15 85 -15 172q0 30 2 59q29 519 270 987q-209 -28 -366 -33q-31 -2 -61 -2 q-183 0 -278 60q-48 30 -48 59v5z" />
<glyph unicode="u" horiz-adv-x="1112" d="M-37 148q-7 57 -7 144q0 137 18 348q2 21 8 85q6 65 57 87q22 10 43 10q26 0 52 -16q37 -25 38 -70q0 -9 -2 -19q-34 -195 -44 -343q-5 -72 -4 -127q0 -57 5 -93q11 -72 38 -72h1q47 2 92.5 50t77.5 117t58 144t38.5 132t13.5 81q6 80 60 91q8 1 15 1q33 0 60 -28 q22 -23 22 -50q0 -7 -1 -14q-15 -68 -32 -172q-18 -104 -35 -236q-13 -99 -13 -176q0 -26 2 -48q6 -92 39 -91q47 0 134.5 94.5t177 225t149.5 225t84 137.5q19 33 49 25q24 -7 24 -31q0 -13 -10 -27q-4 -5 -45 -72.5t-89.5 -144t-118.5 -173t-135 -172t-135 -127.5 t-122 -52q-64 0 -108 106q-28 68 -28 169q0 56 9 122q-15 -64 -104 -164t-166 -100q-139 0 -166 224z" />
<glyph unicode="v" horiz-adv-x="921" d="M-46 650q22 40 63 40h5q44 -2 80 -53q39 -65 68.5 -125.5t48.5 -119t31.5 -99t19 -98.5t9 -82t5 -84.5t3.5 -73.5q56 106 118 273t82 270q-156 23 -159 120q0 76 48 120q39 35 89 34q13 0 27 -2q103 -16 102 -174v-27q52 -7 98 -7q42 0 80 6q78 13 115 38q21 18 42.5 9.5 t21.5 -28.5t-23 -38q-68 -42 -154 -56q-58 -9 -101 -9q-21 0 -39 2l-52 6q0 -12 -9 -53t-32 -114.5t-55.5 -157.5t-86.5 -192t-118 -208q-13 -20 -28 -34t-29 -20q-5 -2 -11 -2q-8 1 -15 7q-11 10 -14 38q-58 537 -223 803q-17 27 -17 52q0 20 10 39zM387 672q-5 -13 -5 -25 q0 -19 15 -35q25 -24 57 -31q15 -3 26 -3q13 0 22 4q2 13 2 25q0 47 -37 73q-22 15 -42 15q-11 0 -22 -5q-12 -6 -16 -18z" />
<glyph unicode="w" horiz-adv-x="1146" d="M-105 352q-1 29 -1 58q0 84 8 172q12 119 35 215.5t45 134.5q38 65 85 65q5 0 10 -1q36 -6 50 -43q10 -29 -4 -58q-51 -108 -78 -289q-24 -160 -24 -282q1 -16 1 -32q3 -131 28 -130h1q35 3 76.5 60.5t71.5 128.5t53 147q6 39 12 67q17 73 27 86q13 17 41 17q35 0 48 -24 q11 -21 11 -65v-14q0 -2 -4 -91.5t-7 -185.5q-1 -34 -1 -72q-1 -70 3 -154q6 -130 21.5 -233t52 -184.5t91.5 -101.5q8 -3 16 -3q32 0 62 44q38 56 64 151.5t46.5 213t24.5 227.5q2 44 2 83q0 60 -4 110h-12q-44 1 -84 7q-44 8 -77 28q-34 22 -34 56q1 47 29 75q30 29 71 33 q19 2 38 2q24 0 50 -3q112 -18 138 -118q118 11 247 151q12 13 26.5 17.5t24.5 0.5t16 -14q4 -7 4 -17q-1 -4 -1 -8q-2 -15 -14 -30q-125 -157 -299 -176q5 -55 7 -131v-19q0 -67 -10 -145q-11 -88 -26.5 -178t-44.5 -173t-64 -147t-85 -102.5t-107 -38.5q-38 0 -78 22.5 t-81 75t-74 130t-56.5 198.5t-28.5 268v16q0 43 7 144q-44 -82 -99 -142.5t-98 -60.5q-69 0 -106.5 75t-41.5 187zM635 469q0 -31 46 -43q24 -7 43 -7q16 0 28 5q1 32 -43 55q-26 14 -44 14q-12 0 -21 -6t-9 -18z" />
<glyph unicode="x" horiz-adv-x="552" d="M-88 -248q3 10 10 15.5t17.5 6t18 -0.5t21 -3t17.5 -3q86 321 158 507q-154 234 -215 496q-10 43 -10 74q1 42 19 64q16 19 36 19t43 -18q47 -36 59 -108q34 -193 129 -381q15 32 29.5 59.5t27.5 48.5t23 37t21.5 29.5t17 20.5t15 16.5l11.5 11.5q29 28 57 15 q19 -9 12 -24q-3 -5 -9 -9q-53 -35 -148 -308q118 -193 299 -348q29 -25 29 -53q0 -22 -18 -30q-20 -8 -56 5q-53 24 -136 99.5t-165 183.5q-39 -129 -51 -178q-69 -253 -106 -318q-30 -52 -74 -54q-3 0 -6 -1q-42 -1 -66 37q-17 25 -16 55q0 17 6 37z" />
<glyph unicode="y" horiz-adv-x="1126" d="M-162 -961q2 106 46.5 227t115 235t168 236t196.5 225t211 206q-17 120 -39 186t-42.5 83.5t-49.5 15.5q-19 -2 -59 -43t-89 -96t-103.5 -108t-116.5 -82q-42 -20 -79 -20q-18 0 -36 5q-50 14 -63 79q-6 28 -6 60q0 41 10 89q17 85 48.5 179t64 167t57.5 114q38 61 84 61 q6 0 13 -1q35 -7 47 -44q9 -28 -5 -57q-57 -115 -108 -253t-71 -226q-9 -41 -9 -66q0 -27 12 -33h3q38 0 98 53q61 55 116.5 123.5t120.5 130.5t108 70q12 2 24 2q57 0 112 -48q66 -58 110 -208q128 108 237.5 188t168.5 111q28 15 43 -11q6 -11 6 -21q0 -14 -10 -26 q-6 -8 -15 -12q-47 -21 -162.5 -103t-251.5 -196q14 -61 22.5 -103.5t20 -118.5t16 -144t4.5 -162q1 -6 1 -11q0 -89 -8 -179q-11 -139 -42.5 -256.5t-74.5 -200t-98 -148t-111.5 -105.5t-118 -66t-113 -36t-100.5 -10q-125 0 -216 97q-87 93 -87 238v13zM-92 -977v-21 q0 -113 60 -182q67 -75 204 -75q72 0 142.5 48.5t131 140.5t104.5 238.5t60 327.5q9 104 9 202t-5 150t-15.5 132.5t-12.5 105.5q-130 -122 -241 -246t-210.5 -264t-160 -284t-66.5 -273z" />
<glyph unicode="z" horiz-adv-x="935" d="M-238 -1180q0 81 18.5 164.5t54 176.5t81.5 183t105 187t120 185.5t131 181.5q-44 68 -90 120q-12 14 -35 39q-30 33 -43 48t-28 39.5t-15 39.5t5.5 39.5t22.5 50t46 60.5q19 23 27 33.5t14 25.5t-1 24.5t-23.5 20.5t-47.5 23q-92 35 -140 117q-31 53 -30 125q0 40 9 85 q5 22 17 47t34 52t60 39q22 7 46 8q18 0 37 -4q107 -23 107 -105q0 -16 -4 -34q-14 -69 -56.5 -114t-128.5 -95q20 -30 58.5 -53.5t76 -35.5t71 -28.5t50.5 -35t8.5 -52t-49.5 -82.5q-38 -45 -47.5 -75.5t3 -50.5t48.5 -48q51 -40 101 -90q155 193 310 357.5t247 248.5 q22 21 41 21q10 0 18 -6q13 -8 13 -22q0 -8 -4 -17q-5 -9 -13 -17q-302 -290 -569 -612q103 -119 173 -270q71 -150 101 -301q25 -126 25 -253q0 -25 -1 -50q-6 -152 -48 -277t-126 -219.5t-200 -133.5q-115 -37 -211 -37q-26 1 -50 3q-115 12 -191.5 71.5t-106.5 153.5 q-21 68 -21 149zM-179 -1152q2 -61 19 -114q25 -78 95.5 -129t157.5 -61q26 -3 52 -3q62 0 127 17q102 32 166 112q65 80 87 186q18 85 18 184q1 25 -1 50q-6 128 -39 260t-83.5 259t-114.5 235q-58 -74 -109.5 -146t-102 -148.5t-91.5 -149.5t-76 -146.5t-58 -143.5 t-36 -136q-11 -57 -11 -110v-16zM31 655q85 55 103 106q4 10 4 18q0 26 -36 32q-4 1 -9 1q-18 0 -32 -21q-17 -26 -24 -66q-7 -30 -7 -54q0 -8 1 -16z" />
<glyph unicode="{" d="M287 375q-8 22 11 40t60 21q64 4 112 22t78.5 44t52 68t32.5 84t20 102q15 98 26 161.5t30 158.5t40 159t49.5 131.5t65.5 111t80 64.5q101 48 132 1q20 -32 -1 -75q-12 -24 -31 -34q-46 -22 -83.5 -59t-66 -91t-50.5 -108.5t-41 -134.5t-31.5 -144t-28.5 -160 q-43 -241 -165 -342q176 -85 217 -309q14 -84 19 -193.5t6.5 -191.5t10 -163.5t35.5 -141t76 -92.5q32 -23 32.5 -55.5t-38.5 -36.5q-38 -4 -105 26q-44 20 -73 65t-43 101.5t-22.5 134.5t-11.5 149.5t-9.5 162t-16.5 157.5q-9 60 -20 102t-32.5 84t-52 68t-78.5 44t-112 22 q-69 6 -73 47z" />
<glyph unicode="|" horiz-adv-x="327" d="M102 -68v1645q0 28 12 47.5t28.5 23.5t33.5 -0.5t29 -23t12 -45.5q0 -73 4 -830.5t4 -814.5q0 -34 -12.5 -56t-30.5 -26t-36.5 1.5t-31 27t-12.5 51.5z" />
<glyph unicode="}" d="M282 -775q-18 23 5 57q8 12 20 20q61 40 89 128.5t30 180t7 233t22 240.5q21 113 77 190t138 117q-139 111 -164 344q-7 70 -10.5 157.5t-4 149t-7 129.5t-19.5 114t-42.5 85.5t-74.5 61.5q-32 16 -39 60q-8 49 28 65q38 18 112 -17q43 -21 71.5 -68t41 -104.5t18.5 -138 t6 -152.5t2 -165t8 -158q13 -150 77 -230t218 -90q41 -3 60.5 -21.5t11.5 -39.5q-2 -18 -21 -31t-53 -16q-64 -4 -112 -22t-78.5 -44t-52 -68t-32.5 -84t-20 -102q-10 -67 -16.5 -157.5t-9.5 -162t-11.5 -149.5t-22.5 -134.5t-43 -101.5t-73 -65q-107 -48 -136 -11z" />
<glyph unicode="~" d="M258 654.5q16 42.5 65.5 85.5t96.5 57q35 10 86.5 -4.5t94 -37t86 -43t63.5 -20.5q34 0 64 10t47.5 22t33.5 21.5t30.5 9t30.5 -15.5q27 -24 0 -67t-81 -76t-97 -33q-30 0 -72.5 20t-78.5 43t-81 40.5t-81 13.5q-22 -2 -50 -21t-49.5 -39.5t-45.5 -32t-41 -1.5 q-37 26 -21 68.5z" />
<glyph unicode="&#xa1;" horiz-adv-x="499" d="M39 -104q0 340 61 646t197 701q27 80 70 107q32 20 41 -11q9 -28 -13 -90q-120 -332 -154.5 -631t-19.5 -700q3 -71 -49 -109q-44 -32 -86 -12q-47 23 -47 99zM391 1528q1 22 16 35.5t35 15.5q23 2 40.5 -11t17.5 -38q-1 -27 -16 -41t-35 -16q-23 -2 -41 13.5t-17 41.5z " />
<glyph unicode="&#xa2;" horiz-adv-x="753" d="M37 387q0 114 102.5 255t220.5 194q20 64 72 198q13 33 40.5 40.5t44.5 -13t3 -55.5q-25 -76 -55 -158q37 -13 61.5 -45.5t26.5 -67.5q1 -49 -19.5 -65.5t-41.5 -10.5q-13 6 -17.5 16t-7.5 40q-4 41 -29 53q-89 -281 -131 -498q38 14 81.5 45.5t70.5 57.5t74 74.5 t63 64.5q14 13 40.5 44.5t44.5 49t24 12.5q26 -21 -11 -86q-64 -112 -183.5 -234t-223.5 -151q-10 -75 -15 -139q-5 -63 -38 -70q-26 -6 -41 22q-11 20 -7 46q3 22 10.5 67t10.5 68q-85 6 -127.5 63.5t-42.5 182.5zM168 342q0 -38 19 -60t38 -26q43 268 107 487 q-66 -52 -115 -176.5t-49 -224.5z" />
<glyph unicode="&#xa3;" horiz-adv-x="1310" d="M55 47q-8 85 65 151t195 76q83 6 156 -8q-6 141 -82 459q-19 -3 -68 -8.5t-79 -9.5q-60 -7 -82 39q-18 37 4 69q15 21 43 23q47 3 153 8q-69 287 -69 403q0 212 102.5 334t327.5 146q97 10 194.5 -32t177.5 -138t113 -228q17 -71 -12 -81q-21 -7 -42 22q-8 12 -13 26 q-55 178 -156 260.5t-258 67.5q-120 -12 -191 -126.5t-71 -278.5q0 -131 49 -369q138 4 358 -8q39 -3 54.5 -31t-2 -54t-58.5 -24q-204 7 -325 0q25 -115 38 -184t24 -162t7 -162q36 -14 77.5 -32.5t73 -34t68 -33t63 -28t58 -19.5t52.5 -8t47 8q146 55 114 176q-11 42 7 65 t45.5 17.5t39.5 -33.5q40 -98 -15.5 -194.5t-164.5 -124.5q-55 -13 -124.5 6t-187.5 72t-165 71q-44 -177 -217 -219q-48 -14 -103.5 -10t-103 18.5t-80.5 47t-37 75.5zM176 107q-24 -42 11 -78q43 -45 129 -31q11 1 22 4q109 25 129 170q-72 13 -127 8q-129 -11 -164 -73z " />
<glyph unicode="&#xa4;" d="M97.5 309q7.5 32 36 60t69.5 47q-47 103 -47 246q0 195 67 329q-62 37 -91.5 94t5.5 103q28 29 62.5 24.5t67 -29t57.5 -61.5q123 109 348 123q95 7 197.5 -31t177.5 -122q49 51 113.5 71t92.5 -16q34 -54 -10 -106.5t-117 -75.5q48 -113 48 -248q0 -161 -80 -293 q43 -19 79 -59t47 -82t-18 -76q-32 -33 -70.5 -23t-73 45t-54.5 80q-73 -71 -167.5 -110t-197.5 -39q-212 0 -340 119q-45 -40 -95 -51t-87 20q-27 29 -19.5 61zM297 668q0 -179 98 -270t248 -91q157 0 271 116t114 286q0 85 -22 152t-57.5 108.5t-84 69t-97 38t-101.5 10.5 q-44 0 -86.5 -7.5t-96 -34t-92.5 -69.5t-66.5 -122.5t-27.5 -185.5z" />
<glyph unicode="&#xa5;" d="M162 1466q-10 37 3 61t40 17.5t53 -47.5q42 -68 117.5 -240.5t136 -291.5t92.5 -119q10 0 35.5 31.5t60 87t71 116.5t78 135.5t71 128.5t60 110.5t36.5 66.5q28 51 75 54q39 2 51 -29q7 -20 -1 -46q-21 -63 -209.5 -381.5t-229.5 -398.5q46 0 218 8q61 3 80 -43 q15 -37 -9 -67q-17 -21 -45 -21q-132 0 -280 4q-1 -13 -1 -30t0.5 -40.5t0.5 -37.5q44 0 208 8q61 3 78 -43q14 -38 -9 -67q-16 -19 -40 -19q-46 0 -123 1t-110 1q12 -324 -33 -426q-15 -33 -33 -48t-33 -12t-27 14.5t-18 29.5t-4 34q5 39 6 155.5t-6 258.5q-140 9 -278 31 q-32 4 -43.5 32t3.5 53t48 21q149 -21 264 -24q-7 74 -14 118q-9 1 -217 25q-39 5 -53 33.5t5 53.5t60 21q168 -15 178 -16q-15 40 -84.5 189.5t-137.5 306t-91 241.5z" />
<glyph unicode="&#xa6;" horiz-adv-x="376" d="M102 879q1 52 2 137.5t1.5 130t4.5 116t11 146.5q3 39 40 55t71.5 -1.5t31.5 -59.5q-9 -149 -8 -244.5t14 -253.5q6 -65 -44 -98q-43 -28 -83 -8q-41 20 -41 80zM104 455q-7 66 43 100q43 28 83 8.5t42 -78.5q0 -55 1 -138t1 -129t-2 -117.5t-8 -147.5q-3 -39 -40 -55.5 t-72 0.5t-33 59q8 151 5 244.5t-20 253.5z" />
<glyph unicode="&#xa7;" horiz-adv-x="712" d="M107.5 806q16.5 102 121.5 187q-40 43 -63.5 82t-34.5 90q-16 78 19 148.5t99 106.5t134.5 47t133 -27t85.5 -119q9 -33 -3 -52t-33 -14t-34 31q-60 128 -163 76q-68 -38 -67 -115.5t67 -152.5q101 -114 158.5 -206t76.5 -176.5t-10.5 -156t-108.5 -135.5q40 -45 63 -83 t34 -89q16 -78 -18.5 -147.5t-98.5 -106t-134.5 -47.5t-132.5 27t-85 118q-9 33 2 52.5t31.5 14.5t33.5 -32q63 -128 164 -74q68 38 67.5 116.5t-67.5 152.5q-135 152 -194 267t-42.5 217zM244 786q10 -64 38.5 -120t53 -84.5t78.5 -85.5q11 -11 16 -17q54 61 41 148 q-8 52 -24 93.5t-47 83.5t-49.5 62t-65.5 68q-55 -58 -41 -148z" />
<glyph unicode="&#xa8;" d="M492 1221q1 27 16.5 41t34.5 14q23 0 40.5 -16.5t16.5 -42.5q-4 -22 -20.5 -35t-36.5 -13q-24 0 -39 13.5t-12 38.5zM672 1221q1 27 16.5 41t34.5 14q23 0 40.5 -16.5t16.5 -42.5q-4 -22 -20.5 -35t-36.5 -13q-24 0 -39 13.5t-12 38.5z" />
<glyph unicode="&#xa9;" horiz-adv-x="1796" d="M205 266q0 91 34 191t92.5 192t139 178.5t170.5 152.5t190 110t195 55q204 24 342 -73t197 -320q44 -175 13.5 -320t-116.5 -259t-207 -193t-259 -120.5t-273 -41.5q-108 0 -200 27t-164 80.5t-113 141t-41 199.5zM330 274q0 -92 30 -162t84 -112.5t123 -64t152 -21.5 q100 0 206.5 29.5t205.5 86t178.5 131.5t130 175.5t55.5 208.5q5 94 -8.5 179.5t-48 159.5t-87.5 124.5t-133 72t-178 4.5q-124 -22 -254.5 -108.5t-229.5 -202t-162.5 -250.5t-63.5 -250zM621 408q0 61 25.5 136.5t66.5 142t100 112.5t119 47q56 1 78 -33t24 -92 q1 -49 -19.5 -65.5t-41.5 -10.5q-13 6 -17.5 15.5t-7.5 39.5q-4 66 -30 66q-41 -3 -74.5 -45.5t-52.5 -105.5t-29 -129t-10 -124q0 -106 24 -106q40 0 79.5 15t82 48.5t68.5 57t73.5 72.5t61.5 63q14 13 40.5 44.5t44 49t23.5 12.5q26 -22 -10 -86q-32 -56 -84 -121.5 t-115 -127.5t-133 -103t-125 -41q-93 0 -127 61.5t-34 207.5z" />
<glyph unicode="&#xaa;" horiz-adv-x="806" d="M53 1049q19 133 109.5 236.5t169.5 115.5q84 13 112 -30t13 -99q-5 -14 -14.5 -17.5t-17 6t-7.5 27.5q0 19 -24 39.5t-62 13.5q-40 -9 -80.5 -58.5t-65.5 -116.5t-26 -126q-1 -25 2 -41.5t9 -23t10.5 -8.5t11.5 -2q16 0 46 38.5t75.5 102.5t82.5 102q13 19 38.5 25.5 t43 -8t6.5 -49.5q-36 -107 -51.5 -156t-32 -129t-10.5 -121q45 86 138.5 188t181.5 170q13 11 34 2q24 -10 3 -28q-90 -76 -159.5 -160t-99.5 -135.5t-59.5 -86t-56.5 -34.5q-51 0 -71 48t-12.5 117t22.5 130.5t32 101.5q-94 -192 -192 -192q-53 0 -80.5 42t-18.5 116z" />
<glyph unicode="&#xab;" horiz-adv-x="1024" d="M127 502q14 22 110 109.5t148 146.5q30 32 60 20q24 -11 18 -37q-3 -10 -10 -20q-93 -126 -222 -232q87 -107 209 -227q30 -28 5 -69q-21 -34 -51 -35q-16 -1 -27 12q-21 25 -62.5 72t-60.5 69t-50.5 61.5t-62.5 82.5q-18 26 -4 47zM397 502q13 18 65 58.5t112 92 t92 95.5q15 17 35.5 13.5t33 -23t0.5 -36.5q-91 -123 -219 -229q29 -37 61.5 -73t53 -57t80.5 -81q29 -28 4 -69q-20 -34 -49 -35q-16 -1 -27 12q-24 28 -63.5 72.5t-60 68t-51.5 62.5t-61 82q-19 27 -6 47z" />
<glyph unicode="&#xad;" d="M302 764.5q-15 30.5 3.5 58.5t59.5 25q151 -11 244 -10.5t253 12.5q51 4 74 -43q20 -41 -1 -74q-15 -24 -48 -24q-57 2 -169.5 3t-189 5t-172.5 14q-39 3 -54 33.5z" />
<glyph unicode="&#xae;" horiz-adv-x="1413" d="M84.5 643q3.5 101 26.5 193q27 104 75 186.5t119.5 140.5t162.5 75t204 -9q105 -26 210.5 -101.5t190 -182t147.5 -229t91.5 -253.5t13.5 -244q-27 -204 -154.5 -313.5t-357.5 -112.5q-125 -1 -233 33.5t-187.5 95.5t-141 143.5t-98 177.5t-54.5 197t-14.5 203z M184 644.5q-1 -91.5 16 -182.5t54 -179t89 -161.5t126 -129.5t160 -82q114 -35 220 -37t197 29.5t150 113t68 205.5q9 126 -43 273t-140 271t-204 218.5t-228 122.5q-174 43 -287.5 -40t-156.5 -249q-20 -81 -21 -172.5zM481 489q0 4 1 13.5t1 13.5q-5 99 14 208.5t52 123.5 q48 19 61 -60q59 53 127 56q31 2 60.5 -1.5t61.5 -13.5t51.5 -34.5t19.5 -59.5q0 -77 -69.5 -153.5t-143.5 -92.5q16 -25 81.5 -97.5t99.5 -127t11 -80.5q-41 -48 -136.5 56t-162.5 227q0 -6 1 -18.5t1 -18.5q3 -80 2 -152.5t-25.5 -123t-72.5 -50.5q-23 0 -34.5 124 t-0.5 261zM618 551q63 21 139 76.5t77 85.5q1 22 -29 34.5t-53 10.5q-41 -3 -80.5 -60.5t-53.5 -146.5z" />
<glyph unicode="&#xaf;" d="M313.5 1203q-5.5 18 5.5 33.5t31 12.5q124 -17 217.5 -21t150 -1t165.5 14q23 3 33 -18.5t4.5 -44t-21.5 -23.5q-106 -8 -245 -5t-316 30q-19 5 -24.5 23z" />
<glyph unicode="&#xb0;" horiz-adv-x="684" d="M143 1837q-7 91 51.5 154.5t141.5 74.5q89 13 150 -42.5t57 -170.5q-4 -94 -67.5 -161.5t-143.5 -67.5q-77 0 -129.5 59t-59.5 154zM229 1833q0 -51 38.5 -95t78.5 -44q36 0 69.5 48t43.5 103q10 61 -32 111.5t-105 25.5q-37 -14 -65 -57t-28 -92z" />
<glyph unicode="&#xb1;" d="M228.5 364q-11.5 28 4 53t48.5 21q158 -22 279.5 -25t342.5 9q61 3 78 -43q14 -38 -9 -67q-16 -19 -40 -19q-249 2 -378 8.5t-282 30.5q-32 4 -43.5 32zM228.5 937q-11.5 28 4 53.5t48.5 21.5q165 -23 272 -25q9 94 35 262q6 39 34 52t52.5 -6t19.5 -60 q-18 -138 -26 -250q145 4 235 10q61 3 78 -43q14 -38 -9 -67q-16 -19 -40 -19q-112 0 -268 4q-3 -120 2 -258q1 -61 -46 -79q-38 -15 -68 10q-21 17 -20 45q2 118 11 286q-139 9 -271 31q-32 4 -43.5 32z" />
<glyph unicode="&#xb2;" horiz-adv-x="696" d="M-4 1157q3 31 50.5 60.5t103.5 21.5q62 -11 124 -49q67 91 110.5 240t43.5 270q0 58 -15 103t-39 68t-54 28.5t-59.5 -9t-57.5 -52t-45 -93.5q-7 -22 -22 -25q-12 -2 -15 14q-2 11 2 27q24 96 98 149.5t146 53.5q111 0 164 -66.5t53 -177.5q0 -140 -73.5 -304.5 t-178.5 -266.5q9 -7 28 -23.5t28 -23.5t24.5 -18.5t25 -17t22 -9.5t23.5 -4q47 0 61.5 17.5t14.5 55.5q0 22 11.5 31t24 3t15.5 -21q7 -52 -31 -93.5t-94 -41.5q-19 0 -44.5 12t-42.5 23.5t-52.5 39.5t-50.5 39q-81 -65 -158 -65q-55 0 -101.5 31t-39.5 73zM62 1166 q-13 -26 16 -49q23 -19 59 -19q55 0 107 55q-46 29 -92 37q-73 11 -90 -24z" />
<glyph unicode="&#xb3;" horiz-adv-x="552" d="M14 1169q0 18 9 70q4 24 25 26q20 3 25 -15q1 -7 -1 -15q-11 -44 -9 -74q4 -63 78 -63q106 0 188.5 89.5t98.5 207.5q10 70 -4 120t-46.5 76.5t-75 36t-93.5 4.5q-15 -2 -28.5 9.5t-15 25.5t12.5 23q88 40 155 92t68 82q0 38 -49 32q-87 -5 -159 -84q-13 -14 -32 1 q-18 13 -5 26q79 86 172 98q59 11 90 -10t31 -57q0 -70 -134 -148q-6 -4 -4 -8t11 -4q123 0 199.5 -74.5t56.5 -216.5q-19 -138 -154 -252t-281 -114q-126 0 -129 116z" />
<glyph unicode="&#xb4;" d="M495 1188.5q0 34.5 12.5 66.5t35.5 66.5t46.5 60.5t49.5 50q52 45 90 20q28 -18 21 -53q-4 -19 -17 -33q-132 -139 -161 -179q-26 -35 -35 -63q-1 -5 -4 -7.5t-9 -0.5t-12 10q-17 28 -17 62.5z" />
<glyph unicode="&#xb7;" horiz-adv-x="579" d="M223 328q4 42 28 64t54 22q37 0 64.5 -26t23.5 -66q-4 -35 -30.5 -55.5t-57.5 -20.5q-36 0 -60.5 21.5t-21.5 60.5z" />
<glyph unicode="&#xb8;" d="M524 -162q-5 31 50 98.5t100 59.5q39 -8 -14 -82l-3 -4q21 4 46 0t49 -18t32.5 -41t-2.5 -70q-16 -54 -77 -113t-110.5 -78t-66.5 2q-6 19 16 43.5t53.5 45.5t61.5 47.5t37 48.5q9 31 -5 49t-38 16.5t-39 -18.5q-22 -24 -53.5 -18t-36.5 32z" />
<glyph unicode="&#xb9;" horiz-adv-x="389" d="M26.5 1651.5q-6.5 9.5 1 20t25.5 14.5q72 15 130.5 62.5t142.5 156.5q15 22 33 11t8 -38q-91 -247 -121.5 -459.5t-12.5 -331.5q7 -52 -15.5 -72.5t-50 -2t-32.5 62.5q-7 78 -9.5 150.5t21.5 198.5t78 296q-26 -36 -81.5 -57t-92.5 -21q-18 0 -24.5 9.5z" />
<glyph unicode="&#xba;" horiz-adv-x="495" d="M49.5 1044q1.5 69 13 133.5t37.5 120.5t60 88q125 118 199 -39q54 -116 63 -319q3 -78 -8 -140t-44 -107.5t-85 -55.5q-60 -11 -106.5 11t-73.5 69t-42 108.5t-13.5 130.5zM191 1178q-2 -165 38 -278q35 -98 86 -81q37 12 46 95.5t-4.5 179.5t-42.5 178t-60 92 q-9 0 -21 -4q-39 -30 -42 -182z" />
<glyph unicode="&#xbb;" horiz-adv-x="1024" d="M197 748q-12 17 0.5 36t33 22.5t35.5 -13.5q32 -44 92 -95.5t112 -92t65 -58.5q13 -19 -7 -47q-31 -43 -62 -82.5t-50 -61.5t-60 -69t-63 -72q-21 -26 -54 -1q-32 23 -33 57q0 21 15 36q60 60 80.5 81t53 57t61.5 73q-126 104 -219 230zM477 274q1 19 15 33 q114 111 208 228q-128 106 -221 231q-23 31 -1 51q21 19 52 0q9 -5 17 -14q52 -59 148 -146.5t110 -109.5q14 -21 -4 -47q-31 -43 -62.5 -82.5t-50.5 -61.5t-60.5 -69t-62.5 -72q-23 -26 -57 0q-32 24 -31 59z" />
<glyph unicode="&#xbf;" horiz-adv-x="962" d="M49 -367q-9 -169 77 -277t222 -116q128 -6 258.5 83t227.5 271q20 37 7 65q-13 27 -40 4q-16 -13 -33 -42q-80 -142 -179 -215t-188 -68q-91 5 -144 88.5t-46 217.5q6 145 98 321q30 56 86 133t99 134t78.5 134.5t39.5 149.5q2 42 -23.5 57t-52.5 -0.5t-28 -48.5 q-3 -59 -48.5 -141t-98 -147.5t-109 -132.5t-68.5 -87q-125 -201 -135 -383zM526 864q4 21 21 33t37 10q24 -2 39 -15t12 -38q-4 -27 -19.5 -40t-35.5 -13q-24 2 -41 19.5t-13 43.5z" />
<glyph unicode="&#xc0;" horiz-adv-x="1234" d="M-240 -431q4 20 33 38q41 26 82 83.5t82 145.5t77.5 181t79 222t76 235.5t79.5 253.5t79 247q-130 -21 -209 -21q-90 0 -174.5 25.5t-144.5 82t-60 132.5q0 102 70 102q15 0 24 -6.5t12 -21t4 -24.5t0 -32.5t-1 -27.5q0 -78 84.5 -130.5t187.5 -52.5q83 0 228 31 q47 140 89 249.5t93 215t99.5 174t104.5 109.5t113 39q14 3 25 -2q22 -6 29 -27q10 -21 2 -43q-48 -126 -52 -594q222 46 404 43q88 -2 164.5 -20.5t133 -62.5t56.5 -107q0 -33 -12.5 -47t-27 -6t-21.5 32q-47 145 -291 145q-167 0 -406 -45q0 -296 21.5 -526.5t56.5 -241.5 q20 -6 65 25.5t96 84t83.5 87.5t54.5 61q29 35 51 28t11 -48q-5 -19 -37.5 -65.5t-83 -102.5t-105.5 -106.5t-111.5 -80t-94.5 -20.5q-67 16 -112 148.5t-60.5 319.5t-8.5 401q-188 -43 -256 -56q-42 -132 -108.5 -362t-113 -382.5t-106.5 -320.5t-121 -271t-124 -140 q-34 -19 -76 2q-40 20 -33 50zM463 1055l237 59q16 347 84 567q-154 -117 -321 -626zM645 2138q-30 63 4 93q26 23 59 6q15 -8 25 -23q104 -167 135 -204q27 -33 50 -48q5 -2 7 -6t-1.5 -8.5t-14.5 -8.5q-39 -12 -80 2.5t-75.5 50t-60.5 71t-48 75.5z" />
<glyph unicode="&#xc1;" horiz-adv-x="1234" d="M-240 -431q4 20 33 38q41 26 82 83.5t82 145.5t77.5 181t79 222t76 235.5t79.5 253.5t79 247q-130 -21 -209 -21q-90 0 -174.5 25.5t-144.5 82t-60 132.5q0 102 70 102q15 0 24 -6.5t12 -21t4 -24.5t0 -32.5t-1 -27.5q0 -78 84.5 -130.5t187.5 -52.5q83 0 228 31 q47 140 89 249.5t93 215t99.5 174t104.5 109.5t113 39q14 3 25 -2q22 -6 29 -27q10 -21 2 -43q-48 -126 -52 -594q222 46 404 43q88 -2 164.5 -20.5t133 -62.5t56.5 -107q0 -33 -12.5 -47t-27 -6t-21.5 32q-47 145 -291 145q-167 0 -406 -45q0 -296 21.5 -526.5t56.5 -241.5 q20 -6 65 25.5t96 84t83.5 87.5t54.5 61q29 35 51 28t11 -48q-5 -19 -37.5 -65.5t-83 -102.5t-105.5 -106.5t-111.5 -80t-94.5 -20.5q-67 16 -112 148.5t-60.5 319.5t-8.5 401q-188 -43 -256 -56q-42 -132 -108.5 -362t-113 -382.5t-106.5 -320.5t-121 -271t-124 -140 q-34 -19 -76 2q-40 20 -33 50zM463 1055l237 59q16 347 84 567q-154 -117 -321 -626zM857 1983.5q0 34.5 12.5 66.5t35.5 66t46.5 60t49.5 50q53 45 91 20q28 -18 21 -53q-4 -18 -17 -32q-131 -138 -160 -175q-28 -38 -37 -67q-1 -5 -4 -7.5t-9 -0.5t-12 10q-17 28 -17 62.5 z" />
<glyph unicode="&#xc2;" horiz-adv-x="1234" d="M-240 -431q4 20 33 38q41 26 82 83.5t82 145.5t77.5 181t79 222t76 235.5t79.5 253.5t79 247q-130 -21 -209 -21q-90 0 -174.5 25.5t-144.5 82t-60 132.5q0 102 70 102q15 0 24 -6.5t12 -21t4 -24.5t0 -32.5t-1 -27.5q0 -78 84.5 -130.5t187.5 -52.5q83 0 228 31 q47 140 89 249.5t93 215t99.5 174t104.5 109.5t113 39q14 3 25 -2q22 -6 29 -27q10 -21 2 -43q-48 -126 -52 -594q222 46 404 43q88 -2 164.5 -20.5t133 -62.5t56.5 -107q0 -33 -12.5 -47t-27 -6t-21.5 32q-47 145 -291 145q-167 0 -406 -45q0 -296 21.5 -526.5t56.5 -241.5 q20 -6 65 25.5t96 84t83.5 87.5t54.5 61q29 35 51 28t11 -48q-5 -19 -37.5 -65.5t-83 -102.5t-105.5 -106.5t-111.5 -80t-94.5 -20.5q-67 16 -112 148.5t-60.5 319.5t-8.5 401q-188 -43 -256 -56q-42 -132 -108.5 -362t-113 -382.5t-106.5 -320.5t-121 -271t-124 -140 q-34 -19 -76 2q-40 20 -33 50zM463 1055l237 59q16 347 84 567q-154 -117 -321 -626zM648 2027q2 9 9 15q18 15 57 48.5t56 47.5t49 38.5t66 47.5q19 15 37 4q14 -10 45 -52t70.5 -90t74.5 -73q12 -11 9 -27t-18.5 -25.5t-29.5 -0.5q-98 78 -176 176q-68 -55 -168 -149 q-25 -25 -58 -2q-27 19 -23 42z" />
<glyph unicode="&#xc3;" horiz-adv-x="1234" d="M-240 -431q4 20 33 38q41 26 82 83.5t82 145.5t77.5 181t79 222t76 235.5t79.5 253.5t79 247q-130 -21 -209 -21q-90 0 -174.5 25.5t-144.5 82t-60 132.5q0 102 70 102q15 0 24 -6.5t12 -21t4 -24.5t0 -32.5t-1 -27.5q0 -78 84.5 -130.5t187.5 -52.5q83 0 228 31 q47 140 89 249.5t93 215t99.5 174t104.5 109.5t113 39q14 3 25 -2q22 -6 29 -27q10 -21 2 -43q-48 -126 -52 -594q222 46 404 43q88 -2 164.5 -20.5t133 -62.5t56.5 -107q0 -33 -12.5 -47t-27 -6t-21.5 32q-47 145 -291 145q-167 0 -406 -45q0 -296 21.5 -526.5t56.5 -241.5 q20 -6 65 25.5t96 84t83.5 87.5t54.5 61q29 35 51 28t11 -48q-5 -19 -37.5 -65.5t-83 -102.5t-105.5 -106.5t-111.5 -80t-94.5 -20.5q-67 16 -112 148.5t-60.5 319.5t-8.5 401q-188 -43 -256 -56q-42 -132 -108.5 -362t-113 -382.5t-106.5 -320.5t-121 -271t-124 -140 q-34 -19 -76 2q-40 20 -33 50zM463 1055l237 59q16 347 84 567q-154 -117 -321 -626zM657 1970q-43 25 2.5 84.5t104.5 75.5q34 9 85 -10.5t98 -43.5t65 -24q32 0 59 11t38.5 21t28.5 14t29 -11q20 -18 0 -50.5t-61 -57.5t-74 -25q-32 0 -112 46.5t-123 41.5 q-20 -2 -47.5 -25.5t-51.5 -40t-41 -6.5z" />
<glyph unicode="&#xc4;" horiz-adv-x="1234" d="M-240 -431q4 20 33 38q41 26 82 83.5t82 145.5t77.5 181t79 222t76 235.5t79.5 253.5t79 247q-130 -21 -209 -21q-90 0 -174.5 25.5t-144.5 82t-60 132.5q0 102 70 102q15 0 24 -6.5t12 -21t4 -24.5t0 -32.5t-1 -27.5q0 -78 84.5 -130.5t187.5 -52.5q83 0 228 31 q47 140 89 249.5t93 215t99.5 174t104.5 109.5t113 39q14 3 25 -2q22 -6 29 -27q10 -21 2 -43q-48 -126 -52 -594q222 46 404 43q88 -2 164.5 -20.5t133 -62.5t56.5 -107q0 -33 -12.5 -47t-27 -6t-21.5 32q-47 145 -291 145q-167 0 -406 -45q0 -296 21.5 -526.5t56.5 -241.5 q20 -6 65 25.5t96 84t83.5 87.5t54.5 61q29 35 51 28t11 -48q-5 -19 -37.5 -65.5t-83 -102.5t-105.5 -106.5t-111.5 -80t-94.5 -20.5q-67 16 -112 148.5t-60.5 319.5t-8.5 401q-188 -43 -256 -56q-42 -132 -108.5 -362t-113 -382.5t-106.5 -320.5t-121 -271t-124 -140 q-34 -19 -76 2q-40 20 -33 50zM463 1055l237 59q16 347 84 567q-154 -117 -321 -626zM737 2015q1 27 16.5 41.5t34.5 14.5q23 0 41 -17t17 -43q-4 -22 -21 -34.5t-37 -12.5q-24 0 -39 13t-12 38zM918 2015q1 27 16.5 41.5t34.5 14.5q23 0 40.5 -17t16.5 -43 q-4 -22 -20.5 -34.5t-36.5 -12.5q-24 0 -39 13t-12 38z" />
<glyph unicode="&#xc5;" horiz-adv-x="1234" d="M-240 -431q4 20 33 38q41 26 82 83.5t82 145.5t77.5 181t79 222t76 235.5t79.5 253.5t79 247q-130 -21 -209 -21q-90 0 -174.5 25.5t-144.5 82t-60 132.5q0 102 70 102q15 0 24 -6.5t12 -21t4 -24.5t0 -32.5t-1 -27.5q0 -78 84.5 -130.5t187.5 -52.5q83 0 228 31 q47 140 89 249.5t93 215t99.5 174t104.5 109.5t113 39q14 3 25 -2q22 -6 29 -27q10 -21 2 -43q-48 -126 -52 -594q222 46 404 43q88 -2 164.5 -20.5t133 -62.5t56.5 -107q0 -33 -12.5 -47t-27 -6t-21.5 32q-47 145 -291 145q-167 0 -406 -45q0 -296 21.5 -526.5t56.5 -241.5 q20 -6 65 25.5t96 84t83.5 87.5t54.5 61q29 35 51 28t11 -48q-5 -19 -37.5 -65.5t-83 -102.5t-105.5 -106.5t-111.5 -80t-94.5 -20.5q-67 16 -112 148.5t-60.5 319.5t-8.5 401q-188 -43 -256 -56q-42 -132 -108.5 -362t-113 -382.5t-106.5 -320.5t-121 -271t-124 -140 q-34 -19 -76 2q-40 20 -33 50zM463 1055l237 59q16 347 84 567q-154 -117 -321 -626zM682 2181q-7 91 51 154.5t141 74.5q90 13 150.5 -42t54.5 -170q-3 -94 -66 -162t-143 -68q-77 0 -129 59t-59 154zM768 2177q0 -51 38.5 -95t78.5 -44q36 0 69 48t43 103q5 28 -3.5 58 t-27 52t-45.5 31.5t-61 -3.5q-37 -14 -64.5 -57.5t-27.5 -92.5z" />
<glyph unicode="&#xc6;" horiz-adv-x="1865" d="M-260 -431q4 20 33 38q41 26 82 83.5t82 145.5t77.5 181t79 222t76 235.5t79.5 253.5t79 247q-130 -21 -209 -21q-90 0 -174.5 25.5t-144.5 82t-60 132.5q0 102 70 102q15 0 23.5 -6.5t12 -21t4 -25t-0.5 -31.5t-1 -28q0 -78 85 -130.5t188 -52.5q82 0 227 31 q38 112 72.5 204t74 183t78.5 159.5t81 123t87 84.5t90 33q78 34 202.5 56.5t252 27t233 -24t136.5 -90.5q26 -64 -2 -91q-20 -20 -48 2q-13 11 -22 30q-36 55 -125 80t-191.5 20t-202.5 -28.5t-163 -59.5q-45 -132 -49 -588q221 46 403 43q64 -2 124.5 -13.5t113.5 -33 t85 -58.5t32 -85q0 -33 -12.5 -47t-27.5 -6t-22 32q-47 145 -291 145q-166 0 -405 -45q0 -333 25 -563q13 -120 49.5 -208.5t88.5 -137t110 -70t122 -18.5q74 5 155 49.5t146.5 105t128 135.5t101 131t63.5 101q24 43 54 37q23 -4 24 -31q0 -18 -10 -36q-26 -48 -73 -113.5 t-122.5 -148.5t-157.5 -151.5t-184.5 -116t-197.5 -48.5q-89 -1 -161 22.5t-120.5 63t-85 98.5t-57 120.5t-35.5 137.5q-48 243 -35 605q-209 -46 -258 -56q-38 -120 -92 -303.5t-92 -316.5t-90 -289t-95.5 -261.5t-97.5 -190t-107 -115.5q-34 -19 -76 2q-39 20 -32 50z M442 1055l240 59q16 354 82 567q-155 -115 -322 -626z" />
<glyph unicode="&#xc7;" horiz-adv-x="1122" d="M-31 506q1 193 42.5 363t110.5 292t158.5 213t185 139.5t191.5 57.5q66 6 118.5 -4.5t84 -30.5t53 -49.5t30.5 -56.5t12.5 -58.5t3 -48.5t-2.5 -33q-11 -62 -41 -71q-23 -6 -34 23q-6 17 -4 40q0 3 3.5 17t6 27.5t4 35t-0.5 38.5t-8 37.5t-20 33.5t-35.5 25.5t-53.5 14 t-75 -1.5q-165 -19 -290.5 -149.5t-193 -348.5t-67.5 -491q-1 -104 20.5 -183.5t55.5 -127t82.5 -76.5t96.5 -38.5t102 -6.5q74 5 155 49.5t146.5 105t128 135.5t101 131t63.5 101q24 43 54 37q23 -4 23 -33q0 -16 -10 -34q-26 -47 -70.5 -110t-117 -144t-151.5 -148.5 t-178.5 -117t-192.5 -56.5q2 -6 0 -13.5t-6.5 -17t-8.5 -16t-10.5 -16t-7.5 -11.5q21 4 46 0t49 -18t32.5 -41t-2.5 -70q-16 -54 -77 -112.5t-110.5 -77.5t-66.5 2q-6 19 16 43.5t53.5 45t61.5 47t37 48.5q9 31 -5 49t-38 16.5t-39 -18.5q-22 -24 -53.5 -17.5t-36.5 32.5 q-3 22 28.5 71t69.5 72q-88 5 -159 34.5t-119 77t-80 111t-46.5 133.5t-13.5 148z" />
<glyph unicode="&#xc8;" horiz-adv-x="1122" d="M-31 506q0 61 9 114.5t30.5 104t41.5 89t60 90.5t67.5 84.5t80.5 92.5q-238 130 -238 303q0 97 49.5 181.5t127.5 139t171.5 85.5t184.5 31q126 0 209.5 -60.5t87.5 -179.5q-4 -68 -39 -81q-25 -10 -41 18q-10 17 -10 41q-13 101 -81 152.5t-163 51.5q-82 0 -157.5 -35.5 t-127 -108.5t-51.5 -167t79 -184t224 -152q-77 -76 -128 -136.5t-97 -134t-68 -154t-22 -171.5q0 -104 19 -183.5t50.5 -127t76 -76.5t90.5 -38.5t100 -6.5q74 5 155 49.5t146.5 105t128 135.5t101 131t63.5 101q24 43 54 37q23 -4 23 -33q0 -16 -10 -34q-26 -48 -73 -113.5 t-122.5 -148.5t-157.5 -151.5t-184.5 -116t-197.5 -48.5q-121 -1 -212.5 39.5t-144.5 112.5t-79 160.5t-25 191.5zM317 2140q-30 62 4 92q26 24 59 7q16 -7 26 -23q9 -14 25 -40t23.5 -37.5t20.5 -32.5t19.5 -30.5t17 -25.5t17 -24t15.5 -19t16 -18t14.5 -13.5t15.5 -11.5 q5 -2 7 -5.5t-1 -8t-14 -8.5q-39 -12 -80 2.5t-76 49.5t-61 70.5t-48 75.5z" />
<glyph unicode="&#xc9;" horiz-adv-x="1122" d="M-31 506q0 61 9 114.5t30.5 104t41.5 89t60 90.5t67.5 84.5t80.5 92.5q-238 130 -238 303q0 97 49.5 181.5t127.5 139t171.5 85.5t184.5 31q126 0 209.5 -60.5t87.5 -179.5q-4 -68 -39 -81q-25 -10 -41 18q-10 17 -10 41q-13 101 -81 152.5t-163 51.5q-82 0 -157.5 -35.5 t-127 -108.5t-51.5 -167t79 -184t224 -152q-77 -76 -128 -136.5t-97 -134t-68 -154t-22 -171.5q0 -104 19 -183.5t50.5 -127t76 -76.5t90.5 -38.5t100 -6.5q74 5 155 49.5t146.5 105t128 135.5t101 131t63.5 101q24 43 54 37q23 -4 23 -33q0 -16 -10 -34q-26 -48 -73 -113.5 t-122.5 -148.5t-157.5 -151.5t-184.5 -116t-197.5 -48.5q-121 -1 -212.5 39.5t-144.5 112.5t-79 160.5t-25 191.5zM530 1985.5q0 34.5 12.5 66.5t35.5 66t46.5 60t49.5 50q53 46 91 20q28 -19 20 -55q-5 -17 -17 -30q-131 -138 -160 -175q-28 -38 -37 -67q-1 -5 -4 -7.5 t-8.5 -0.5t-11.5 10q-17 28 -17 62.5z" />
<glyph unicode="&#xca;" horiz-adv-x="1122" d="M-31 506q0 61 9 114.5t30.5 104t41.5 89t60 90.5t67.5 84.5t80.5 92.5q-238 130 -238 303q0 97 49.5 181.5t127.5 139t171.5 85.5t184.5 31q126 0 209.5 -60.5t87.5 -179.5q-4 -68 -39 -81q-25 -10 -41 18q-10 17 -10 41q-13 101 -81 152.5t-163 51.5q-82 0 -157.5 -35.5 t-127 -108.5t-51.5 -167t79 -184t224 -152q-77 -76 -128 -136.5t-97 -134t-68 -154t-22 -171.5q0 -104 19 -183.5t50.5 -127t76 -76.5t90.5 -38.5t100 -6.5q74 5 155 49.5t146.5 105t128 135.5t101 131t63.5 101q24 43 54 37q23 -4 23 -33q0 -16 -10 -34q-26 -48 -73 -113.5 t-122.5 -148.5t-157.5 -151.5t-184.5 -116t-197.5 -48.5q-121 -1 -212.5 39.5t-144.5 112.5t-79 160.5t-25 191.5zM321 2029q1 9 9 15q21 17 57.5 48.5t54.5 47t49.5 39.5t65.5 47q19 15 37 4q14 -10 45 -52t70.5 -90t74.5 -73q12 -11 9 -27t-18.5 -25.5t-29.5 -0.5 q-98 78 -176 176q-68 -55 -168 -149q-25 -25 -58 -2q-26 19 -22 42z" />
<glyph unicode="&#xcb;" horiz-adv-x="1122" d="M-31 506q0 61 9 114.5t30.5 104t41.5 89t60 90.5t67.5 84.5t80.5 92.5q-238 130 -238 303q0 97 49.5 181.5t127.5 139t171.5 85.5t184.5 31q126 0 209.5 -60.5t87.5 -179.5q-4 -68 -39 -81q-25 -10 -41 18q-10 17 -10 41q-13 101 -81 152.5t-163 51.5q-82 0 -157.5 -35.5 t-127 -108.5t-51.5 -167t79 -184t224 -152q-77 -76 -128 -136.5t-97 -134t-68 -154t-22 -171.5q0 -104 19 -183.5t50.5 -127t76 -76.5t90.5 -38.5t100 -6.5q74 5 155 49.5t146.5 105t128 135.5t101 131t63.5 101q24 43 54 37q23 -4 23 -33q0 -16 -10 -34q-26 -48 -73 -113.5 t-122.5 -148.5t-157.5 -151.5t-184.5 -116t-197.5 -48.5q-121 -1 -212.5 39.5t-144.5 112.5t-79 160.5t-25 191.5zM410 2017q1 27 16.5 41.5t34.5 14.5q23 0 40.5 -17t16.5 -43q-4 -22 -20.5 -34.5t-36.5 -12.5q-24 0 -39 13t-12 38zM590 2017q1 27 16.5 41.5t34.5 14.5 q23 0 40.5 -17t16.5 -43q-4 -22 -20.5 -34.5t-36.5 -12.5q-24 0 -39 13t-12 38z" />
<glyph unicode="&#xcc;" horiz-adv-x="1406" d="M2.5 120.5q-9.5 75.5 10 171t69.5 193.5q26 46 69 46q34 -1 42 -32q6 -24 -9 -53q-61 -108 -82.5 -207.5t-5.5 -171.5t67 -117.5t130 -51.5q157 -12 303.5 112.5t253.5 347.5q-210 70 -352 318t-162 624q-15 275 61 441.5t226 214.5q77 27 150.5 16.5t138.5 -45.5 t119.5 -100t93.5 -147.5t61 -188t22 -221.5q0 -198 -46 -423.5t-132 -426.5q198 10 367 190q24 26 50.5 21.5t31 -27.5t-16.5 -49q-224 -227 -471 -221q-53 -106 -113 -192t-134.5 -157.5t-156.5 -111.5t-177.5 -54.5t-198.5 13.5q-53 13 -97 51t-73 100t-38.5 137.5z M410 1354q0 -186 37.5 -346.5t103 -274.5t151.5 -189.5t185 -105.5q143 353 143 756q0 178 -50.5 343.5t-138 262.5t-184.5 76q-111 -24 -179 -158.5t-68 -363.5zM471 2277q-30 63 4 93q26 23 59 6q15 -8 25 -23q9 -14 25 -40t23.5 -37.5t20.5 -32.5t19.5 -30.5t17 -25.5 t17 -24t15.5 -19t16 -18t14.5 -13.5t15.5 -11.5q5 -2 7 -5.5t-1 -8t-14 -8.5q-39 -12 -80 2.5t-75.5 49.5t-60.5 70.5t-48 75.5z" />
<glyph unicode="&#xcd;" horiz-adv-x="1406" d="M2.5 120.5q-9.5 75.5 10 171t69.5 193.5q26 46 69 46q34 -1 42 -32q6 -24 -9 -53q-61 -108 -82.5 -207.5t-5.5 -171.5t67 -117.5t130 -51.5q157 -12 303.5 112.5t253.5 347.5q-210 70 -352 318t-162 624q-15 275 61 441.5t226 214.5q77 27 150.5 16.5t138.5 -45.5 t119.5 -100t93.5 -147.5t61 -188t22 -221.5q0 -198 -46 -423.5t-132 -426.5q198 10 367 190q24 26 50.5 21.5t31 -27.5t-16.5 -49q-224 -227 -471 -221q-53 -106 -113 -192t-134.5 -157.5t-156.5 -111.5t-177.5 -54.5t-198.5 13.5q-53 13 -97 51t-73 100t-38.5 137.5z M410 1354q0 -186 37.5 -346.5t103 -274.5t151.5 -189.5t185 -105.5q143 353 143 756q0 178 -50.5 343.5t-138 262.5t-184.5 76q-111 -24 -179 -158.5t-68 -363.5zM683 2122.5q0 34.5 12.5 66.5t35.5 66t46.5 60t49.5 50q53 45 91 20q28 -18 21 -53q-4 -18 -17 -32 q-131 -138 -160 -175q-28 -38 -37 -67q-1 -5 -4 -7.5t-9 -0.5t-12 10q-17 28 -17 62.5z" />
<glyph unicode="&#xce;" horiz-adv-x="1406" d="M2.5 120.5q-9.5 75.5 10 171t69.5 193.5q26 46 69 46q34 -1 42 -32q6 -24 -9 -53q-61 -108 -82.5 -207.5t-5.5 -171.5t67 -117.5t130 -51.5q157 -12 303.5 112.5t253.5 347.5q-210 70 -352 318t-162 624q-15 275 61 441.5t226 214.5q77 27 150.5 16.5t138.5 -45.5 t119.5 -100t93.5 -147.5t61 -188t22 -221.5q0 -198 -46 -423.5t-132 -426.5q198 10 367 190q24 26 50.5 21.5t31 -27.5t-16.5 -49q-224 -227 -471 -221q-53 -106 -113 -192t-134.5 -157.5t-156.5 -111.5t-177.5 -54.5t-198.5 13.5q-53 13 -97 51t-73 100t-38.5 137.5z M410 1354q0 -186 37.5 -346.5t103 -274.5t151.5 -189.5t185 -105.5q143 353 143 756q0 178 -50.5 343.5t-138 262.5t-184.5 76q-111 -24 -179 -158.5t-68 -363.5zM474 2166q1 9 9 15q18 15 57 48.5t56 47.5t49 38.5t66 47.5q19 15 37 4q14 -10 45 -52t70.5 -90t74.5 -73 q12 -11 9 -27t-18.5 -25.5t-29.5 -0.5q-98 78 -176 176q-68 -55 -168 -149q-25 -25 -58 -2q-27 19 -23 42z" />
<glyph unicode="&#xcf;" horiz-adv-x="1406" d="M2.5 120.5q-9.5 75.5 10 171t69.5 193.5q26 46 69 46q34 -1 42 -32q6 -24 -9 -53q-61 -108 -82.5 -207.5t-5.5 -171.5t67 -117.5t130 -51.5q157 -12 303.5 112.5t253.5 347.5q-210 70 -352 318t-162 624q-15 275 61 441.5t226 214.5q77 27 150.5 16.5t138.5 -45.5 t119.5 -100t93.5 -147.5t61 -188t22 -221.5q0 -198 -46 -423.5t-132 -426.5q198 10 367 190q24 26 50.5 21.5t31 -27.5t-16.5 -49q-224 -227 -471 -221q-53 -106 -113 -192t-134.5 -157.5t-156.5 -111.5t-177.5 -54.5t-198.5 13.5q-53 13 -97 51t-73 100t-38.5 137.5z M410 1354q0 -186 37.5 -346.5t103 -274.5t151.5 -189.5t185 -105.5q143 353 143 756q0 178 -50.5 343.5t-138 262.5t-184.5 76q-111 -24 -179 -158.5t-68 -363.5zM563 2154q1 27 16.5 41.5t34.5 14.5q23 0 41 -17t17 -43q-4 -22 -21 -34.5t-37 -12.5q-24 0 -39 13t-12 38z M743 2154q1 27 17 41.5t35 14.5q23 0 40.5 -17t16.5 -43q-4 -22 -20.5 -34.5t-36.5 -12.5q-24 0 -39.5 13t-12.5 38z" />
<glyph unicode="&#xd0;" horiz-adv-x="1800" d="M1 1121q-3 20 7 48q12 36 31 76.5t53.5 97.5t76.5 108.5t104 104t132 91t163 62.5t196 24q173 0 354 -72q142 -58 250 -214.5t161 -368t44 -437.5q-2 -53 -10 -141q185 83 239 135q25 24 54 19t35 -28.5t-15 -50.5q-74 -86 -330 -182q-34 -187 -106 -349t-169 -282 t-213 -206t-242.5 -129t-254.5 -43q-52 0 -100.5 8t-96 28t-82.5 50t-55 78t-18 108q7 219 278 403q-39 330 -36 705q-63 4 -95 8q-39 3 -54 33.5t3.5 58.5t59.5 25l90 -6q14 467 112 747q-93 -27 -174.5 -79t-140.5 -117.5t-101 -133t-71 -139.5q-20 -52 -51 -60 q-23 -7 -28 20zM305 -373q9 -65 70 -105t160 -40q111 0 228 59.5t222.5 165t193.5 263t136 341.5q-40 -14 -128 -42.5t-158.5 -52.5t-133.5 -48q-127 -46 -238 -107q17 -113 39 -215q15 -73 -40 -108q-44 -27 -90 -10q-37 13 -42 49q0 1 -10.5 70.5t-15.5 107.5 q-108 -87 -155.5 -174t-37.5 -154zM600 756q6 -316 45 -606q108 51 236 96q305 105 456 164q25 133 31 264q6 168 -12.5 309.5t-51.5 237t-81.5 172t-94.5 120.5t-100 76q-114 70 -256 70q-28 0 -78 -4q-91 -284 -94 -776q92 0 262 12q51 4 74 -43q20 -41 -1 -74 q-15 -24 -48 -24q-56 2 -149 3t-138 3z" />
<glyph unicode="&#xd1;" horiz-adv-x="1859" d="M0.5 533.5q0.5 78.5 18 146.5t55.5 142t77 131.5t97.5 125.5t101.5 112t103 103l-2 9q-93 265 -93 452q0 172 108 312q86 112 195 144q118 35 192 -48q21 -23 36 -54q27 -55 30.5 -133.5t-17.5 -171t-78.5 -198.5t-145.5 -203q-37 -40 -82 -82q70 -261 106 -559 q52 238 123.5 431t149 319.5t163 209.5t166 115t156.5 21q213 -31 137 -373q-11 -49 -32.5 -130.5t-43 -163.5t-47.5 -180.5t-46 -188t-37 -179t-22.5 -162t-1 -128t27 -85t61.5 -26.5q41 1 203.5 142.5t204.5 190.5q29 35 50.5 28t10.5 -48q-6 -23 -72.5 -90t-152.5 -138 t-178.5 -126t-141.5 -54q-85 0 -128 67.5t-45 179t15.5 247t52 283t66.5 274.5t56 233.5t24 149.5q0 13 -2.5 25t-10 30t-27 28.5t-48.5 10.5q-27 0 -64.5 -23.5t-86.5 -78t-100 -132.5t-104.5 -198t-100.5 -264.5t-87 -341t-65 -418.5q-10 -182 -41 -325q-16 -72 -70 -90 t-95.5 19t-26.5 99q51 227 71 412.5t9 342.5t-32 268t-63 263q-57 -54 -99 -97t-93.5 -103.5t-85.5 -112.5t-65 -117t-42.5 -125.5t-7 -130t30.5 -137.5q11 -27 -14 -48q-26 -22 -53 0q-16 14 -25 42q-23 76 -22.5 154.5zM518 1784q0 -169 53 -373q26 26 58 62 q82 99 136 203t71 185t10.5 141.5t-37.5 84.5q-41 33 -82 34t-102 -38q-107 -78 -107 -299zM1245 2058q-43 25 2.5 84.5t104.5 75.5q34 9 84.5 -10.5t97.5 -43.5t65 -24q32 0 59 11t39 21t29 14t29 -11q20 -18 0 -50.5t-61 -57.5t-74 -25q-32 0 -112.5 46.5t-123.5 41.5 q-20 -2 -47.5 -25.5t-51 -40t-40.5 -6.5z" />
<glyph unicode="&#xd2;" horiz-adv-x="1306" d="M20.5 755.5q15.5 205.5 85 380.5t183 302.5t241.5 173.5q73 26 134.5 31t102 -5.5t73 -34t50 -49t30 -56t16.5 -49t6 -34.5q5 -66 -28 -84q-25 -14 -46 14q-11 16 -14 39q0 3 -0.5 21.5t-1.5 36.5t-6.5 42.5t-15 43.5t-29 35.5t-46 23t-68 1.5t-93.5 -25 q-106 -40 -186.5 -126t-126 -197.5t-66 -242t-14 -265.5t36.5 -263q86 -369 387 -369q151 0 277 141t212 421q18 57 32.5 130.5t22 168t4 187t-27.5 185t-66.5 164.5t-119.5 122t-181 62q-35 5 -35 26q0 20 24 28q12 4 26 2q90 -12 162.5 -46t121.5 -81t83.5 -110.5 t53.5 -129t27.5 -142.5t8 -144.5t-7.5 -141.5t-16 -127.5t-20 -107.5q-35 -175 -106.5 -318t-163.5 -235.5t-198 -142.5t-214 -50q-322 0 -452 387q-67 202 -51.5 407.5zM532 2064q-30 62 4 92q26 24 59 7q16 -7 26 -23q9 -14 25 -40t23.5 -37.5t20.5 -32.5t19.5 -30.5 t17 -25.5t17 -24t15.5 -19t16 -18t14.5 -13.5t15.5 -11.5q5 -2 7 -5.5t-1 -8t-14 -8.5q-39 -12 -80 2.5t-76 49.5t-61 70.5t-48 75.5z" />
<glyph unicode="&#xd3;" horiz-adv-x="1306" d="M20.5 755.5q15.5 205.5 85 380.5t183 302.5t241.5 173.5q73 26 134.5 31t102 -5.5t73 -34t50 -49t30 -56t16.5 -49t6 -34.5q5 -66 -28 -84q-25 -14 -46 14q-11 16 -14 39q0 3 -0.5 21.5t-1.5 36.5t-6.5 42.5t-15 43.5t-29 35.5t-46 23t-68 1.5t-93.5 -25 q-106 -40 -186.5 -126t-126 -197.5t-66 -242t-14 -265.5t36.5 -263q86 -369 387 -369q151 0 277 141t212 421q18 57 32.5 130.5t22 168t4 187t-27.5 185t-66.5 164.5t-119.5 122t-181 62q-35 5 -35 26q0 20 24 28q12 4 26 2q90 -12 162.5 -46t121.5 -81t83.5 -110.5 t53.5 -129t27.5 -142.5t8 -144.5t-7.5 -141.5t-16 -127.5t-20 -107.5q-35 -175 -106.5 -318t-163.5 -235.5t-198 -142.5t-214 -50q-322 0 -452 387q-67 202 -51.5 407.5zM745 1909.5q0 34.5 12.5 66.5t35.5 66t46.5 60t49.5 50q53 46 91 20q28 -19 20 -55q-5 -17 -17 -30 q-131 -138 -160 -175q-28 -38 -37 -67q-1 -5 -4 -7.5t-8.5 -0.5t-11.5 10q-17 28 -17 62.5z" />
<glyph unicode="&#xd4;" horiz-adv-x="1306" d="M20.5 755.5q15.5 205.5 85 380.5t183 302.5t241.5 173.5q73 26 134.5 31t102 -5.5t73 -34t50 -49t30 -56t16.5 -49t6 -34.5q5 -66 -28 -84q-25 -14 -46 14q-11 16 -14 39q0 3 -0.5 21.5t-1.5 36.5t-6.5 42.5t-15 43.5t-29 35.5t-46 23t-68 1.5t-93.5 -25 q-106 -40 -186.5 -126t-126 -197.5t-66 -242t-14 -265.5t36.5 -263q86 -369 387 -369q151 0 277 141t212 421q18 57 32.5 130.5t22 168t4 187t-27.5 185t-66.5 164.5t-119.5 122t-181 62q-35 5 -35 26q0 20 24 28q12 4 26 2q90 -12 162.5 -46t121.5 -81t83.5 -110.5 t53.5 -129t27.5 -142.5t8 -144.5t-7.5 -141.5t-16 -127.5t-20 -107.5q-35 -175 -106.5 -318t-163.5 -235.5t-198 -142.5t-214 -50q-322 0 -452 387q-67 202 -51.5 407.5zM536 1953q1 9 9 15q21 17 57.5 48.5t54.5 47t49.5 39.5t65.5 47q19 15 37 4q14 -10 45 -52t70.5 -90 t74.5 -73q12 -11 9.5 -27t-18 -25.5t-29.5 -0.5q-101 80 -177 176q-68 -55 -168 -149q-25 -25 -58 -2q-26 19 -22 42z" />
<glyph unicode="&#xd5;" horiz-adv-x="1306" d="M20.5 755.5q15.5 205.5 85 380.5t183 302.5t241.5 173.5q73 26 134.5 31t102 -5.5t73 -34t50 -49t30 -56t16.5 -49t6 -34.5q5 -66 -28 -84q-25 -14 -46 14q-11 16 -14 39q0 3 -0.5 21.5t-1.5 36.5t-6.5 42.5t-15 43.5t-29 35.5t-46 23t-68 1.5t-93.5 -25 q-106 -40 -186.5 -126t-126 -197.5t-66 -242t-14 -265.5t36.5 -263q86 -369 387 -369q151 0 277 141t212 421q18 57 32.5 130.5t22 168t4 187t-27.5 185t-66.5 164.5t-119.5 122t-181 62q-35 5 -35 26q0 20 24 28q12 4 26 2q90 -12 162.5 -46t121.5 -81t83.5 -110.5 t53.5 -129t27.5 -142.5t8 -144.5t-7.5 -141.5t-16 -127.5t-20 -107.5q-35 -175 -106.5 -318t-163.5 -235.5t-198 -142.5t-214 -50q-322 0 -452 387q-67 202 -51.5 407.5zM545 1896q-43 25 2 84.5t104 75.5q34 9 85 -10.5t98 -43.5t65 -24q32 0 59 11t39 21t29 14t29 -11 q20 -18 0 -50.5t-61 -57.5t-74 -25q-32 0 -112.5 46.5t-123.5 41.5q-20 -2 -47.5 -25.5t-51 -40t-40.5 -6.5z" />
<glyph unicode="&#xd6;" horiz-adv-x="1306" d="M20.5 755.5q15.5 205.5 85 380.5t183 302.5t241.5 173.5q73 26 134.5 31t102 -5.5t73 -34t50 -49t30 -56t16.5 -49t6 -34.5q5 -66 -28 -84q-25 -14 -46 14q-11 16 -14 39q0 3 -0.5 21.5t-1.5 36.5t-6.5 42.5t-15 43.5t-29 35.5t-46 23t-68 1.5t-93.5 -25 q-106 -40 -186.5 -126t-126 -197.5t-66 -242t-14 -265.5t36.5 -263q86 -369 387 -369q151 0 277 141t212 421q18 57 32.5 130.5t22 168t4 187t-27.5 185t-66.5 164.5t-119.5 122t-181 62q-35 5 -35 26q0 20 24 28q12 4 26 2q90 -12 162.5 -46t121.5 -81t83.5 -110.5 t53.5 -129t27.5 -142.5t8 -144.5t-7.5 -141.5t-16 -127.5t-20 -107.5q-35 -175 -106.5 -318t-163.5 -235.5t-198 -142.5t-214 -50q-322 0 -452 387q-67 202 -51.5 407.5zM625 1942q1 27 16.5 41t34.5 14q23 0 40.5 -17t16.5 -43q-4 -22 -20.5 -34.5t-36.5 -12.5 q-24 0 -39 13.5t-12 38.5zM805 1942q1 27 16.5 41t34.5 14q23 0 40.5 -17t16.5 -43q-4 -22 -20.5 -34.5t-36.5 -12.5q-24 0 -39 13.5t-12 38.5z" />
<glyph unicode="&#xd7;" d="M325 543q-4 25 13 43q113 122 184 196q-108 100 -172 172q-13 14 -15 31.5t6.5 31t21.5 23t30 8t31 -15.5q83 -90 176 -170q113 108 211 185q15 13 32.5 13.5t30.5 -9t21.5 -23t5.5 -30t-18 -29.5q-125 -108 -195 -181q81 -64 211 -157q51 -36 34 -84q-12 -35 -46 -44 q-25 -7 -45 9l-82.5 67.5t-86 70.5t-65.5 55q-38 -43 -155 -185q-41 -50 -88 -28q-34 16 -40 51z" />
<glyph unicode="&#xd8;" horiz-adv-x="1306" d="M20.5 755.5q15.5 205.5 85 380.5t183 302.5t241.5 173.5q185 63 293 4l25 53q-35 9 -70 12q-35 5 -35 26q0 20 24 28q12 4 26 2q45 -6 79 -17q26 57 89 176q14 27 35.5 40t40 9.5t33.5 -16t16 -36.5t-13 -52q-16 -30 -46 -92.5t-36 -75.5q69 -40 120 -102t79 -130.5 t42.5 -152.5t16.5 -159t-5 -158t-16 -143t-22 -121q-35 -175 -106.5 -318t-163.5 -235.5t-198 -142.5t-214 -50q-99 0 -182 39q-3 -13 -11.5 -54t-11.5 -61q-17 -86 -59 -93q-31 -5 -49 32q-15 32 -6 72q11 46 43 163q-113 99 -176 289q-67 202 -51.5 407.5zM201.5 732 q6.5 -135 36.5 -263q26 -114 75 -195q96 303 227 651.5t261 639.5q-67 52 -207 -2q-106 -40 -186.5 -126t-126 -197.5t-66 -242t-14 -265.5zM391 180q96 -80 234 -80q151 0 277 141t212 421q22 69 38.5 160t21 209t-10.5 225t-65 206t-133 154q-168 -359 -326.5 -750 t-247.5 -686z" />
<glyph unicode="&#xd9;" horiz-adv-x="1478" d="M3.5 1654.5q15.5 91.5 59.5 165.5t112.5 120.5t139.5 46.5q123 0 194 -73t71 -196q0 -100 -33 -244.5t-79.5 -286.5t-98.5 -294t-89.5 -281.5t-54 -234.5t10.5 -166.5t102 -65.5q38 0 93.5 54.5t116.5 151.5t122.5 252t103.5 335q24 311 71.5 581.5t104.5 395.5 q9 16 28 22.5t38.5 2t36.5 -14t25.5 -25.5t2.5 -32q-51 -135 -88.5 -369t-53.5 -477.5t-19 -467.5t11 -370t40 -155q17 -5 67.5 45t114 129t123 156.5t108 143t54.5 72.5q29 35 50.5 28t10.5 -48q-7 -25 -82.5 -134.5t-172 -232.5t-197.5 -215.5t-148 -81.5 q-78 18 -111.5 219.5t-27.5 510.5q-117 -290 -262 -434.5t-277 -120.5q-80 15 -125 76t-45 155q0 175 127 552q23 69 72 208q123 352 156 496q62 273 -40 332q-31 18 -77 18q-18 0 -47 -15t-62.5 -47t-57.5 -81.5t-33.5 -118t9.5 -156.5q6 -27 -8 -43t-34.5 -8t-32.5 39 q-35 90 -19.5 181.5zM483 2329q-30 63 4 93q26 22 59 5q15 -8 25 -23q104 -167 135 -204q27 -33 50 -48q5 -2 7 -5.5t-1 -8t-14 -8.5q-39 -12 -80 3t-76 50t-61 70.5t-48 75.5z" />
<glyph unicode="&#xda;" horiz-adv-x="1478" d="M3.5 1654.5q15.5 91.5 59.5 165.5t112.5 120.5t139.5 46.5q123 0 194 -73t71 -196q0 -100 -33 -244.5t-79.5 -286.5t-98.5 -294t-89.5 -281.5t-54 -234.5t10.5 -166.5t102 -65.5q38 0 93.5 54.5t116.5 151.5t122.5 252t103.5 335q24 311 71.5 581.5t104.5 395.5 q9 16 28 22.5t38.5 2t36.5 -14t25.5 -25.5t2.5 -32q-51 -135 -88.5 -369t-53.5 -477.5t-19 -467.5t11 -370t40 -155q17 -5 67.5 45t114 129t123 156.5t108 143t54.5 72.5q29 35 50.5 28t10.5 -48q-7 -25 -82.5 -134.5t-172 -232.5t-197.5 -215.5t-148 -81.5 q-78 18 -111.5 219.5t-27.5 510.5q-117 -290 -262 -434.5t-277 -120.5q-80 15 -125 76t-45 155q0 175 127 552q23 69 72 208q123 352 156 496q62 273 -40 332q-31 18 -77 18q-18 0 -47 -15t-62.5 -47t-57.5 -81.5t-33.5 -118t9.5 -156.5q6 -27 -8 -43t-34.5 -8t-32.5 39 q-35 90 -19.5 181.5zM696 2173.5q0 34.5 12.5 66.5t35.5 66.5t46.5 60.5t49.5 50q52 45 90 20q28 -18 21 -53q-4 -19 -17 -33q-131 -138 -160 -175q-28 -38 -37 -67q-1 -5 -4 -7.5t-8.5 -0.5t-11.5 10q-17 28 -17 62.5z" />
<glyph unicode="&#xdb;" horiz-adv-x="1478" d="M3.5 1654.5q15.5 91.5 59.5 165.5t112.5 120.5t139.5 46.5q123 0 194 -73t71 -196q0 -100 -33 -244.5t-79.5 -286.5t-98.5 -294t-89.5 -281.5t-54 -234.5t10.5 -166.5t102 -65.5q38 0 93.5 54.5t116.5 151.5t122.5 252t103.5 335q24 311 71.5 581.5t104.5 395.5 q9 16 28 22.5t38.5 2t36.5 -14t25.5 -25.5t2.5 -32q-51 -135 -88.5 -369t-53.5 -477.5t-19 -467.5t11 -370t40 -155q17 -5 67.5 45t114 129t123 156.5t108 143t54.5 72.5q29 35 50.5 28t10.5 -48q-7 -25 -82.5 -134.5t-172 -232.5t-197.5 -215.5t-148 -81.5 q-78 18 -111.5 219.5t-27.5 510.5q-117 -290 -262 -434.5t-277 -120.5q-80 15 -125 76t-45 155q0 175 127 552q23 69 72 208q123 352 156 496q62 273 -40 332q-31 18 -77 18q-18 0 -47 -15t-62.5 -47t-57.5 -81.5t-33.5 -118t9.5 -156.5q6 -27 -8 -43t-34.5 -8t-32.5 39 q-35 90 -19.5 181.5zM487 2217q1 9 9 15q23 19 58 49.5t54 46.5t50 40t65 47q19 15 37 4q14 -10 45 -52t70.5 -90t74.5 -73q12 -11 9 -27t-18.5 -26t-29.5 -1q-96 76 -176 177q-61 -49 -168 -150q-25 -25 -58 -2q-26 19 -22 42z" />
<glyph unicode="&#xdc;" horiz-adv-x="1478" d="M3.5 1654.5q15.5 91.5 59.5 165.5t112.5 120.5t139.5 46.5q123 0 194 -73t71 -196q0 -100 -33 -244.5t-79.5 -286.5t-98.5 -294t-89.5 -281.5t-54 -234.5t10.5 -166.5t102 -65.5q38 0 93.5 54.5t116.5 151.5t122.5 252t103.5 335q24 311 71.5 581.5t104.5 395.5 q9 16 28 22.5t38.5 2t36.5 -14t25.5 -25.5t2.5 -32q-51 -135 -88.5 -369t-53.5 -477.5t-19 -467.5t11 -370t40 -155q17 -5 67.5 45t114 129t123 156.5t108 143t54.5 72.5q29 35 50.5 28t10.5 -48q-7 -25 -82.5 -134.5t-172 -232.5t-197.5 -215.5t-148 -81.5 q-78 18 -111.5 219.5t-27.5 510.5q-117 -290 -262 -434.5t-277 -120.5q-80 15 -125 76t-45 155q0 175 127 552q23 69 72 208q123 352 156 496q62 273 -40 332q-31 18 -77 18q-18 0 -47 -15t-62.5 -47t-57.5 -81.5t-33.5 -118t9.5 -156.5q6 -27 -8 -43t-34.5 -8t-32.5 39 q-35 90 -19.5 181.5zM575 2206q1 27 16.5 41t35.5 14q23 0 40.5 -16.5t16.5 -42.5q-4 -22 -20.5 -35t-36.5 -13q-24 0 -39.5 13.5t-12.5 38.5zM756 2206q1 27 16.5 41t34.5 14q23 0 40.5 -16.5t16.5 -42.5q-4 -22 -20.5 -35t-36.5 -13q-24 0 -39 13.5t-12 38.5z" />
<glyph unicode="&#xdd;" horiz-adv-x="1822" d="M-10 1401q1 19 18 45q88 142 281 217q87 31 188.5 48.5t249 30.5t191.5 19q22 3 31 -8t3 -33q-32 -95 -61.5 -234.5t-47.5 -290t3 -266t86 -136.5q20 -6 65 25.5t96 84t83.5 87.5t54.5 61q8 10 24 22q13 229 72 596q4 27 35 43.5t60.5 5t29.5 -54.5q0 -89 -4 -208 t-9.5 -241t-6.5 -157q-10 -394 -68 -695q174 28 291 75t180 134q35 34 61 23q22 -9 8 -37q-5 -11 -16 -22q-81 -94 -217 -149.5t-321 -90.5q-50 -229 -142 -412q-79 -152 -234.5 -282t-340 -197.5t-336.5 -42.5q-68 11 -117.5 28.5t-94 50t-66.5 87t-19 129.5q2 80 41.5 159 t117 157t208.5 149.5t303 124.5q38 12 82.5 22.5t80 17.5t90.5 15t84.5 12t93 12t87.5 11q54 275 61 622q-35 -49 -83 -102t-103 -103.5t-110.5 -79t-92.5 -18.5q-62 14 -107 81.5t-66.5 163t-24 211.5t13.5 224.5t53 204.5t90 150q-358 -29 -475 -66q-161 -50 -270 -203 q-31 -44 -63 -44q-23 0 -21 24zM96 -373q10 -68 55 -109.5t140 -54.5q128 -18 285 46t291 184.5t200 259.5q65 136 107 311q-21 -3 -86.5 -13t-92 -14t-80.5 -13t-86 -16.5t-73 -18t-74 -21.5q-133 -44 -240 -102.5t-172.5 -116.5t-108 -119t-57 -111.5t-8.5 -91.5z M1142 1889.5q0 34.5 12.5 66.5t35.5 66t46.5 60t49.5 50q52 45 90 20q28 -18 21 -53q-4 -19 -17 -33q-131 -138 -159 -175t-37 -66q-1 -5 -4 -7.5t-9 -0.5t-12 10q-17 28 -17 62.5z" />
<glyph unicode="&#xde;" d="M152 1612q-21 73 33 111q42 30 88 17q36 -11 44 -46q81 -211 129 -449l41 19q130 60 247.5 70t202.5 -24.5t144.5 -95.5t87.5 -141q29 -85 33 -168.5t-14.5 -155.5t-55.5 -137.5t-88.5 -115.5t-116 -87t-134 -55.5t-146 -18t-149.5 22.5q-20 -282 -92 -540 q-9 -42 -49 -63.5t-69.5 1.5t-13.5 88q44 172 52.5 408t-14.5 476t-64.5 468.5t-95.5 415.5zM459 1182q65 -382 43 -762q114 -40 219.5 -24t178.5 84.5t103 188t-6 285.5q-23 107 -89.5 177.5t-175.5 93t-255 -34.5q-12 -4 -18 -8z" />
<glyph unicode="&#xdf;" horiz-adv-x="962" d="M35 317q0 223 51.5 451t135.5 410.5t196.5 315t230.5 175.5q111 37 193 14t126.5 -97.5t35.5 -178.5q-7 -74 -46 -150.5t-90 -136.5t-117 -119.5t-115.5 -95.5t-98 -69t-52.5 -37q151 37 240.5 -22t89.5 -175q0 -75 -39 -155t-126.5 -163t-213.5 -145q-66 -32 -91 3 q-18 26 3 60q12 20 33 29q177 75 269.5 174t92.5 187q0 52 -35.5 88t-99 49.5t-162.5 -7t-215 -77.5q-18 -141 -18 -287q0 -121 24 -245.5t56 -192.5q22 -48 -20 -100q-38 -48 -87 -49q-60 -2 -84 75q-67 214 -67 471zM248 745q60 26 143 76t175.5 121t172.5 147t137 160.5 t66 155.5q7 55 -10.5 94t-51 55.5t-76 20.5t-85.5 -12q-153 -51 -283.5 -278.5t-187.5 -539.5z" />
<glyph unicode="&#xe0;" horiz-adv-x="989" d="M-59 465q15 121 63.5 235.5t111.5 194.5t130.5 132.5t122.5 62.5q56 10 97 -0.5t63 -35t32 -58.5t9.5 -68t-9.5 -66q-9 -33 -28 -34q-20 0 -27 36q-2 11 -2 25q0 35 -37 71t-96 23q-63 -15 -125.5 -103.5t-101 -206.5t-40.5 -222q-4 -136 50 -136q25 0 71.5 69t117.5 183 t128 181q19 33 59 45t66.5 -14.5t9.5 -88.5q-99 -342 -124 -476q-31 -160 -19 -243q67 151 210 331t281 306q18 17 48 5t22 -35q-4 -9 -12 -17q-114 -112 -207 -232t-142.5 -205.5t-90 -157.5t-73 -108t-67.5 -36q-53 0 -84.5 40.5t-39 106.5t-3.5 144t19.5 159.5t32 146 t32.5 109.5q-25 -61 -54 -114.5t-67.5 -108t-85 -87t-92.5 -32.5q-81 0 -122.5 74.5t-26.5 204.5zM201 1417q-30 63 4 93q26 23 59 6q15 -8 25 -23q9 -14 25 -40t23.5 -37.5t20.5 -32.5t19.5 -30.5t17 -25.5t17 -24t15.5 -19t16 -18t14.5 -13.5t15.5 -11.5q5 -2 7 -5.5 t-1 -8t-14 -8.5q-39 -12 -80 2.5t-75.5 49.5t-60.5 70.5t-48 75.5z" />
<glyph unicode="&#xe1;" horiz-adv-x="989" d="M-59 465q15 121 63.5 235.5t111.5 194.5t130.5 132.5t122.5 62.5q56 10 97 -0.5t63 -35t32 -58.5t9.5 -68t-9.5 -66q-9 -33 -28 -34q-20 0 -27 36q-2 11 -2 25q0 35 -37 71t-96 23q-63 -15 -125.5 -103.5t-101 -206.5t-40.5 -222q-4 -136 50 -136q25 0 71.5 69t117.5 183 t128 181q19 33 59 45t66.5 -14.5t9.5 -88.5q-99 -342 -124 -476q-31 -160 -19 -243q67 151 210 331t281 306q18 17 48 5t22 -35q-4 -9 -12 -17q-114 -112 -207 -232t-142.5 -205.5t-90 -157.5t-73 -108t-67.5 -36q-53 0 -84.5 40.5t-39 106.5t-3.5 144t19.5 159.5t32 146 t32.5 109.5q-25 -61 -54 -114.5t-67.5 -108t-85 -87t-92.5 -32.5q-81 0 -122.5 74.5t-26.5 204.5zM413 1262.5q0 34.5 12.5 66.5t35.5 66t46.5 60t49.5 50q53 46 91 20q28 -19 20 -55q-4 -17 -17 -30q-132 -139 -161 -179q-26 -35 -35 -63q-1 -5 -4 -7.5t-9 -0.5t-12 10 q-17 28 -17 62.5z" />
<glyph unicode="&#xe2;" horiz-adv-x="989" d="M-59 465q15 121 63.5 235.5t111.5 194.5t130.5 132.5t122.5 62.5q56 10 97 -0.5t63 -35t32 -58.5t9.5 -68t-9.5 -66q-9 -33 -28 -34q-20 0 -27 36q-2 11 -2 25q0 35 -37 71t-96 23q-63 -15 -125.5 -103.5t-101 -206.5t-40.5 -222q-4 -136 50 -136q25 0 71.5 69t117.5 183 t128 181q19 33 59 45t66.5 -14.5t9.5 -88.5q-99 -342 -124 -476q-31 -160 -19 -243q67 151 210 331t281 306q18 17 48 5t22 -35q-4 -9 -12 -17q-114 -112 -207 -232t-142.5 -205.5t-90 -157.5t-73 -108t-67.5 -36q-53 0 -84.5 40.5t-39 106.5t-3.5 144t19.5 159.5t32 146 t32.5 109.5q-25 -61 -54 -114.5t-67.5 -108t-85 -87t-92.5 -32.5q-81 0 -122.5 74.5t-26.5 204.5zM204 1306q2 9 9 15q21 17 57.5 48.5t54.5 47t49.5 39.5t65.5 47q19 15 37 4q14 -10 45.5 -52t71 -90t74.5 -73q12 -11 9 -27t-18.5 -25.5t-29.5 -0.5q-98 78 -176 176 q-68 -55 -168 -149q-25 -25 -58 -2q-27 19 -23 42z" />
<glyph unicode="&#xe3;" horiz-adv-x="989" d="M-59 465q15 121 63.5 235.5t111.5 194.5t130.5 132.5t122.5 62.5q56 10 97 -0.5t63 -35t32 -58.5t9.5 -68t-9.5 -66q-9 -33 -28 -34q-20 0 -27 36q-2 11 -2 25q0 35 -37 71t-96 23q-63 -15 -125.5 -103.5t-101 -206.5t-40.5 -222q-4 -136 50 -136q25 0 71.5 69t117.5 183 t128 181q19 33 59 45t66.5 -14.5t9.5 -88.5q-99 -342 -124 -476q-31 -160 -19 -243q67 151 210 331t281 306q18 17 48 5t22 -35q-4 -9 -12 -17q-114 -112 -207 -232t-142.5 -205.5t-90 -157.5t-73 -108t-67.5 -36q-53 0 -84.5 40.5t-39 106.5t-3.5 144t19.5 159.5t32 146 t32.5 109.5q-25 -61 -54 -114.5t-67.5 -108t-85 -87t-92.5 -32.5q-81 0 -122.5 74.5t-26.5 204.5zM213 1249q-43 25 2 84.5t104 75.5q34 9 85 -10.5t98 -43.5t65 -24q32 0 59 11t39 21t29 14t29 -11q20 -18 0 -50.5t-61 -57.5t-74 -25q-32 0 -112.5 46.5t-123.5 41.5 q-20 -2 -47.5 -25.5t-51 -40t-40.5 -6.5z" />
<glyph unicode="&#xe4;" horiz-adv-x="989" d="M-59 465q15 121 63.5 235.5t111.5 194.5t130.5 132.5t122.5 62.5q56 10 97 -0.5t63 -35t32 -58.5t9.5 -68t-9.5 -66q-9 -33 -28 -34q-20 0 -27 36q-2 11 -2 25q0 35 -37 71t-96 23q-63 -15 -125.5 -103.5t-101 -206.5t-40.5 -222q-4 -136 50 -136q25 0 71.5 69t117.5 183 t128 181q19 33 59 45t66.5 -14.5t9.5 -88.5q-99 -342 -124 -476q-31 -160 -19 -243q67 151 210 331t281 306q18 17 48 5t22 -35q-4 -9 -12 -17q-114 -112 -207 -232t-142.5 -205.5t-90 -157.5t-73 -108t-67.5 -36q-53 0 -84.5 40.5t-39 106.5t-3.5 144t19.5 159.5t32 146 t32.5 109.5q-25 -61 -54 -114.5t-67.5 -108t-85 -87t-92.5 -32.5q-81 0 -122.5 74.5t-26.5 204.5zM293 1294q1 27 16.5 41.5t34.5 14.5q23 0 40.5 -17t16.5 -43q-4 -22 -20.5 -34.5t-36.5 -12.5q-24 0 -39 13t-12 38zM473 1294q1 27 16.5 41.5t34.5 14.5q23 0 41 -17t17 -43 q-4 -22 -21 -34.5t-37 -12.5q-24 0 -39 13t-12 38z" />
<glyph unicode="&#xe5;" horiz-adv-x="989" d="M-59 465q15 121 63.5 235.5t111.5 194.5t130.5 132.5t122.5 62.5q56 10 97 -0.5t63 -35t32 -58.5t9.5 -68t-9.5 -66q-9 -33 -28 -34q-20 0 -27 36q-2 11 -2 25q0 35 -37 71t-96 23q-63 -15 -125.5 -103.5t-101 -206.5t-40.5 -222q-4 -136 50 -136q25 0 71.5 69t117.5 183 t128 181q19 33 59 45t66.5 -14.5t9.5 -88.5q-99 -342 -124 -476q-31 -160 -19 -243q67 151 210 331t281 306q18 17 48 5t22 -35q-4 -9 -12 -17q-114 -112 -207 -232t-142.5 -205.5t-90 -157.5t-73 -108t-67.5 -36q-53 0 -84.5 40.5t-39 106.5t-3.5 144t19.5 159.5t32 146 t32.5 109.5q-25 -61 -54 -114.5t-67.5 -108t-85 -87t-92.5 -32.5q-81 0 -122.5 74.5t-26.5 204.5zM238 1460q-7 91 51 155t141 75q89 13 150 -42.5t55 -170.5q-3 -94 -66 -162t-143 -68q-77 0 -129 59t-59 154zM324 1456q0 -51 38.5 -95t77.5 -44q36 0 69.5 48t43.5 103 q5 28 -3.5 58t-27 52t-45.5 31.5t-61 -3.5q-37 -14 -64.5 -57.5t-27.5 -92.5z" />
<glyph unicode="&#xe6;" horiz-adv-x="1697" d="M-59 465q15 121 63.5 235.5t111.5 194.5t130.5 132.5t122.5 62.5q56 10 97 -0.5t63 -35t32 -58.5t9.5 -68t-9.5 -66q-9 -33 -28 -34q-20 0 -27 36q-2 11 -2 25q0 35 -37 71t-96 23q-63 -15 -125.5 -103.5t-101 -206.5t-40.5 -222q-4 -136 50 -136q25 0 71.5 69t117.5 183 t128 181q19 33 59 45t66.5 -14.5t9.5 -88.5q-99 -342 -124 -476q-31 -160 -19 -243q68 150 209.5 329t277.5 304q13 189 105 316t192 127q40 0 72.5 -26.5t32.5 -86.5q0 -62 -45.5 -136.5t-101.5 -130.5t-120 -104q1 -167 41 -265.5t95 -98.5q52 0 111.5 34t112 87t95 103.5 t78 97t43.5 54.5q31 31 54 9q18 -17 8 -38q-2 -4 -5 -7q-2 -2 -42.5 -55.5t-94.5 -116.5t-120.5 -129t-142 -110t-138.5 -44t-114.5 60.5t-80.5 153.5t-35 200q-98 -103 -179 -214t-125.5 -188.5t-81.5 -143t-67.5 -98t-64.5 -32.5q-53 0 -84.5 40.5t-39 106.5t-3.5 144 t19.5 159.5t32 146t32.5 109.5q-25 -61 -54 -114.5t-67.5 -108t-85 -87t-92.5 -32.5q-81 0 -122.5 74.5t-26.5 204.5zM1094 639q70 59 128.5 147t57.5 132q0 26 -31 32q-27 5 -53 -25.5t-46 -81.5t-34 -103t-22 -101z" />
<glyph unicode="&#xe7;" horiz-adv-x="507" d="M-68 469q0 83 42 183.5t116.5 176.5t153.5 78q56 1 78 -33t24 -92q1 -49 -19.5 -65t-41.5 -10q-13 6 -17.5 15.5t-7.5 39.5q-4 65 -31 65q-41 -3 -74.5 -45.5t-52.5 -105.5t-29 -128.5t-10 -123.5q0 -55 7 -111.5t18 -56.5q40 0 79.5 15t82 48.5t68.5 57t73.5 72.5 t61.5 63q14 13 40.5 44.5t44 49t23.5 12.5q26 -22 -10 -86q-32 -56 -84 -121.5t-115 -127.5t-133 -103t-125 -41q-47 0 -79.5 24.5t-50 71.5t-25 103.5t-7.5 130.5zM-29 -23q-5 31 50 98.5t100 59.5q39 -8 -14 -82q-2 -3 -3 -4q21 4 46 0t49 -18t32.5 -41t-2.5 -70 q-16 -54 -77 -112.5t-110.5 -77.5t-66.5 2q-6 19 16 43.5t53.5 45t61.5 47t37 48.5q9 31 -5 49t-38 16.5t-39 -18.5q-22 -24 -53.5 -18t-36.5 32z" />
<glyph unicode="&#xe8;" horiz-adv-x="708" d="M-41 549q0 208 96 353t203 145q39 0 71.5 -26.5t32.5 -86.5q0 -90 -81.5 -191.5t-184.5 -179.5q1 -167 40.5 -265.5t94.5 -98.5q63 0 141 54.5t131.5 116t108 130.5t60.5 75q31 31 54 9q18 -17 8 -38q-2 -4 -5 -7q-2 -2 -42.5 -55.5t-94.5 -116.5t-121 -129t-142.5 -110 t-138.5 -44q-68 0 -122 70t-81.5 175t-27.5 220zM23 1366q-30 63 4 93q26 23 59 6q15 -8 25 -23q9 -14 25 -40t23.5 -37.5t20.5 -32.5t19.5 -30.5t17 -25.5t17 -24t15.5 -19t16 -18t14.5 -13.5t15.5 -11.5q5 -2 7 -6t-1 -8.5t-14 -8.5q-39 -12 -80 2.5t-75.5 50t-60.5 71 t-48 75.5zM104 639q70 59 129 147t58 132q0 26 -31 32q-27 5 -53.5 -25.5t-46 -81.5t-34 -103t-22.5 -101z" />
<glyph unicode="&#xe9;" horiz-adv-x="708" d="M-41 549q0 208 96 353t203 145q39 0 71.5 -26.5t32.5 -86.5q0 -90 -81.5 -191.5t-184.5 -179.5q1 -167 40.5 -265.5t94.5 -98.5q63 0 141 54.5t131.5 116t108 130.5t60.5 75q31 31 54 9q18 -17 8 -38q-2 -4 -5 -7q-2 -2 -42.5 -55.5t-94.5 -116.5t-121 -129t-142.5 -110 t-138.5 -44q-68 0 -122 70t-81.5 175t-27.5 220zM104 639q70 59 129 147t58 132q0 26 -31 32q-27 5 -53.5 -25.5t-46 -81.5t-34 -103t-22.5 -101zM235 1211.5q0 34.5 12.5 66.5t35.5 66t46.5 60t49.5 50q53 46 91 20q28 -19 20 -55q-4 -17 -17 -30q-131 -138 -160 -175 q-28 -38 -37 -67q-1 -5 -4 -7.5t-8.5 -0.5t-11.5 10q-17 28 -17 62.5z" />
<glyph unicode="&#xea;" horiz-adv-x="708" d="M-41 549q0 208 96 353t203 145q39 0 71.5 -26.5t32.5 -86.5q0 -90 -81.5 -191.5t-184.5 -179.5q1 -167 40.5 -265.5t94.5 -98.5q63 0 141 54.5t131.5 116t108 130.5t60.5 75q31 31 54 9q18 -17 8 -38q-2 -4 -5 -7q-2 -2 -42.5 -55.5t-94.5 -116.5t-121 -129t-142.5 -110 t-138.5 -44q-68 0 -122 70t-81.5 175t-27.5 220zM26 1255q1 9 9 15q21 17 57.5 48.5t54.5 47t49.5 39.5t65.5 47q19 15 37 4q14 -10 45 -52t70.5 -90t74.5 -73q12 -11 9.5 -27t-18 -25.5t-29.5 -0.5q-101 80 -177 176q-61 -49 -168 -150q-25 -25 -58 -1q-27 19 -22 42z M104 639q70 59 129 147t58 132q0 26 -31 32q-27 5 -53.5 -25.5t-46 -81.5t-34 -103t-22.5 -101z" />
<glyph unicode="&#xeb;" horiz-adv-x="708" d="M-41 549q0 208 96 353t203 145q39 0 71.5 -26.5t32.5 -86.5q0 -90 -81.5 -191.5t-184.5 -179.5q1 -167 40.5 -265.5t94.5 -98.5q63 0 141 54.5t131.5 116t108 130.5t60.5 75q31 31 54 9q18 -17 8 -38q-2 -4 -5 -7q-2 -2 -42.5 -55.5t-94.5 -116.5t-121 -129t-142.5 -110 t-138.5 -44q-68 0 -122 70t-81.5 175t-27.5 220zM104 639q70 59 129 147t58 132q0 26 -31 32q-27 5 -53.5 -25.5t-46 -81.5t-34 -103t-22.5 -101zM115 1243q1 27 16.5 41t34.5 14q23 0 40.5 -16.5t16.5 -42.5q-4 -22 -20.5 -34.5t-36.5 -12.5q-24 0 -39 13t-12 38zM295 1243 q1 27 16.5 41t34.5 14q23 0 40.5 -16.5t16.5 -42.5q-4 -22 -20.5 -34.5t-36.5 -12.5q-24 0 -39 13t-12 38z" />
<glyph unicode="&#xec;" horiz-adv-x="649" d="M-131 1135q-30 63 4 93q26 22 59 5q15 -8 25 -23q9 -14 25 -40t23.5 -37.5t20.5 -32.5t19.5 -30.5t17 -25.5t17 -24t15.5 -19t16 -18t14.5 -13.5t15.5 -11.5q5 -2 7 -5.5t-1 -8t-14 -8.5q-39 -12 -80 2.5t-75.5 50t-60.5 71t-48 75.5zM-45.5 362.5q-8.5 88.5 2 183.5 t37.5 179t84 94q43 7 71 -29q23 -31 13 -71q-51 -207 -42 -339t39.5 -193t65.5 -60q28 1 69 34t79 76t84.5 105.5t74.5 104.5t61 93t34 52q29 41 49 28.5t-6 -55.5l-19 -32q-19 -32 -34.5 -57t-45 -70t-56.5 -81t-62 -80t-69.5 -77t-71.5 -62t-74.5 -44.5t-71.5 -16.5 q-62 -1 -108.5 42t-70.5 115t-32.5 160.5z" />
<glyph unicode="&#xed;" horiz-adv-x="649" d="M-45.5 362.5q-8.5 88.5 2 183.5t37.5 179t84 94q43 7 71 -29q23 -31 13 -71q-51 -207 -42 -339t39.5 -193t65.5 -60q28 1 69 34t79 76t84.5 105.5t74.5 104.5t61 93t34 52q29 41 49 28.5t-6 -55.5l-19 -32q-19 -32 -34.5 -57t-45 -70t-56.5 -81t-62 -80t-69.5 -77 t-71.5 -62t-74.5 -44.5t-71.5 -16.5q-62 -1 -108.5 42t-70.5 115t-32.5 160.5zM81 980.5q0 34.5 12.5 66.5t35.5 66t46.5 60t49.5 50q52 45 90 20q28 -18 21 -53q-4 -19 -17 -33q-132 -139 -161 -179q-26 -35 -35 -63q-1 -5 -4 -7t-9 0t-12 10q-17 28 -17 62.5z" />
<glyph unicode="&#xee;" horiz-adv-x="649" d="M-128 1023q1 9 9 15q21 18 57.5 49.5t55 46.5t50 39.5t65.5 47.5q18 15 36 4q14 -10 45.5 -52t71 -90t74.5 -73q12 -11 9 -27t-18.5 -26t-29.5 -1q-96 76 -176 177q-61 -49 -168 -150q-25 -25 -58 -2q-27 19 -23 42zM-45.5 362.5q-8.5 88.5 2 183.5t37.5 179t84 94 q43 7 71 -29q23 -31 13 -71q-51 -207 -42 -339t39.5 -193t65.5 -60q28 1 69 34t79 76t84.5 105.5t74.5 104.5t61 93t34 52q29 41 49 28.5t-6 -55.5l-19 -32q-19 -32 -34.5 -57t-45 -70t-56.5 -81t-62 -80t-69.5 -77t-71.5 -62t-74.5 -44.5t-71.5 -16.5q-62 -1 -108.5 42 t-70.5 115t-32.5 160.5z" />
<glyph unicode="&#xef;" horiz-adv-x="649" d="M-45.5 362.5q-8.5 88.5 2 183.5t37.5 179t84 94q43 7 71 -29q23 -31 13 -71q-51 -207 -42 -339t39.5 -193t65.5 -60q28 1 69 34t79 76t84.5 105.5t74.5 104.5t61 93t34 52q29 41 49 28.5t-6 -55.5l-19 -32q-19 -32 -34.5 -57t-45 -70t-56.5 -81t-62 -80t-69.5 -77 t-71.5 -62t-74.5 -44.5t-71.5 -16.5q-62 -1 -108.5 42t-70.5 115t-32.5 160.5zM-39 1012q1 27 16.5 41t34.5 14q23 0 41 -16.5t17 -42.5q-4 -22 -21 -34.5t-37 -12.5q-24 0 -39 13t-12 38zM141 1012q1 27 16.5 41t35.5 14q23 0 40.5 -16.5t16.5 -42.5q-4 -22 -20.5 -34.5 t-36.5 -12.5q-24 0 -39.5 13t-12.5 38z" />
<glyph unicode="&#xf0;" horiz-adv-x="552" d="M-45 453q-19 116 29 239t143.5 198.5t200.5 57.5q4 0 12 -4q-19 118 -61 203q-148 -103 -177 -121q-19 -14 -35 10q-20 29 -2 59q7 11 19 19q53 37 147 107q-45 54 -100 71q-38 12 -36 44q2 29 33 40q31 12 69 -8q53 -27 106 -96q104 76 113 88q33 31 61 11 q25 -18 15 -51q-5 -17 -21 -32q-25 -23 -123 -92q49 -96 76 -219t27 -246q0 -146 -29.5 -258.5t-76.5 -175t-98 -93t-102 -30.5q-144 0 -190 279zM94 487q10 -128 69 -167q50 -33 102 19q76 77 93 275q6 83 0 181q-1 1 -1.5 3t-1 5.5t-1.5 5.5q-12 57 -47 57q-36 0 -76 -30 t-72.5 -79.5t-51.5 -121.5t-13 -148z" />
<glyph unicode="&#xf1;" horiz-adv-x="886" d="M-33 696q6 83 48 97q31 11 55 -22q13 -19 16 -46q1 -11 2.5 -29t5 -56.5t7 -62.5t5.5 -22q5 22 12 46t23.5 69t35.5 84t49.5 82t64.5 71.5t81 44.5t99 9q32 -4 54.5 -23t32 -46t14 -59t-0.5 -63q-11 -102 -86 -331t-79 -279q-3 -37 12 -36q15 2 45 32q17 17 103.5 97.5 t169 165t155.5 175.5q21 24 41 11q21 -13 8 -42q-4 -9 -12 -18q-81 -94 -193.5 -215t-229.5 -230t-147 -106q-67 5 -51 196q7 80 21 163.5t28.5 144.5t29 120t22 98.5t8 70.5t-13 46.5t-42.5 16.5q-46 3 -89.5 -52.5t-72.5 -137t-52 -171.5t-33.5 -156t-10.5 -91 q-3 -44 -14 -69.5t-26 -30t-30 3t-27 28t-17 45.5q-12 63 -19.5 232t-1.5 245zM82 1098q-43 25 2 84t104 75q34 9 85 -10.5t98 -43t65 -23.5q32 0 59 11t39 21t29 13.5t29 -11.5q20 -18 0 -50.5t-61 -57.5t-74 -25q-32 0 -112.5 46.5t-123.5 41.5q-20 -2 -47.5 -25.5 t-51 -39.5t-40.5 -6z" />
<glyph unicode="&#xf2;" horiz-adv-x="495" d="M-117 979q-30 63 4 93q26 23 59 6q15 -8 25 -23q104 -167 135 -204q27 -33 50 -48q5 -2 7 -6t-1.5 -8.5t-14.5 -8.5q-39 -12 -80 2.5t-75.5 50t-60.5 71t-48 75.5zM-93.5 281q1.5 71 13 137.5t38.5 124t62 90.5q42 40 79 48.5t64 -9.5t49.5 -56.5t37 -86.5t24.5 -107 q37 19 78 49.5t75 59.5t42 34q32 22 55 1q20 -19 5 -42q-6 -10 -17 -16q-9 -5 -91 -65t-136 -91l6 -88q5 -125 -29 -211t-112 -100q-61 -12 -109.5 11t-76 71.5t-43.5 111.5t-14.5 134zM55 342q4 -82 19 -150.5t43 -111t63 -31.5q37 11 47.5 94t-4.5 179q-43 -17 -63 -17 q-78 0 -105 37zM61 524q27 -129 117 -129q9 0 33 4q-42 195 -94 209q-9 0 -21 -4q-22 -16 -35 -80z" />
<glyph unicode="&#xf3;" horiz-adv-x="495" d="M-93.5 281q1.5 71 13 137.5t38.5 124t62 90.5q42 40 79 48.5t64 -9.5t49.5 -56.5t37 -86.5t24.5 -107q37 19 78 49.5t75 59.5t42 34q32 22 55 1q20 -19 5 -42q-6 -10 -17 -16q-9 -5 -91 -65t-136 -91l6 -88q5 -125 -29 -211t-112 -100q-61 -12 -109.5 11t-76 71.5 t-43.5 111.5t-14.5 134zM55 342q4 -82 19 -150.5t43 -111t63 -31.5q37 11 47.5 94t-4.5 179q-43 -17 -63 -17q-78 0 -105 37zM61 524q27 -129 117 -129q9 0 33 4q-42 195 -94 209q-9 0 -21 -4q-22 -16 -35 -80zM96 824.5q0 34.5 12.5 66.5t35.5 66t46.5 60t49.5 50 q52 45 90 20q28 -18 21 -53q-3 -19 -17 -33q-130 -137 -157 -171q-30 -40 -40 -70q-1 -5 -4 -7.5t-8.5 -0.5t-11.5 10q-17 28 -17 62.5z" />
<glyph unicode="&#xf4;" horiz-adv-x="495" d="M-113 868q2 9 9 15q21 17 57.5 48.5t54.5 47t49.5 39.5t65.5 47q19 15 37 4q14 -10 45 -52t70.5 -90t74.5 -73q12 -11 9 -27t-18.5 -25.5t-29.5 -0.5q-98 78 -176 176q-61 -49 -168 -150q-25 -25 -58 -1q-27 19 -22 42zM-93.5 281q1.5 71 13 137.5t38.5 124t62 90.5 q42 40 79 48.5t64 -9.5t49.5 -56.5t37 -86.5t24.5 -107q37 19 78 49.5t75 59.5t42 34q32 22 55 1q20 -19 5 -42q-6 -10 -17 -16q-9 -5 -91 -65t-136 -91l6 -88q5 -125 -29 -211t-112 -100q-61 -12 -109.5 11t-76 71.5t-43.5 111.5t-14.5 134zM55 342q4 -82 19 -150.5 t43 -111t63 -31.5q37 11 47.5 94t-4.5 179q-43 -17 -63 -17q-78 0 -105 37zM61 524q27 -129 117 -129q9 0 33 4q-42 195 -94 209q-9 0 -21 -4q-22 -16 -35 -80z" />
<glyph unicode="&#xf5;" horiz-adv-x="495" d="M-104 811q-43 25 2 84.5t104 75.5q34 9 85 -10.5t98 -43.5t65 -24q32 0 59 11t39 21t29 14t29 -11q20 -18 -0.5 -50.5t-61.5 -57.5t-74 -25q-32 0 -112 46.5t-123 41.5q-20 -2 -47.5 -25.5t-51 -40t-40.5 -6.5zM-93.5 281q1.5 71 13 137.5t38.5 124t62 90.5 q42 40 79 48.5t64 -9.5t49.5 -56.5t37 -86.5t24.5 -107q37 19 78 49.5t75 59.5t42 34q32 22 55 1q20 -19 5 -42q-6 -10 -17 -16q-9 -5 -91 -65t-136 -91l6 -88q5 -125 -29 -211t-112 -100q-61 -12 -109.5 11t-76 71.5t-43.5 111.5t-14.5 134zM55 342q4 -82 19 -150.5 t43 -111t63 -31.5q37 11 47.5 94t-4.5 179q-43 -17 -63 -17q-78 0 -105 37zM61 524q27 -129 117 -129q9 0 33 4q-42 195 -94 209q-9 0 -21 -4q-22 -16 -35 -80z" />
<glyph unicode="&#xf6;" horiz-adv-x="495" d="M-93.5 281q1.5 71 13 137.5t38.5 124t62 90.5q42 40 79 48.5t64 -9.5t49.5 -56.5t37 -86.5t24.5 -107q37 19 78 49.5t75 59.5t42 34q32 22 55 1q20 -19 5 -42q-6 -10 -17 -16q-9 -5 -91 -65t-136 -91l6 -88q5 -125 -29 -211t-112 -100q-61 -12 -109.5 11t-76 71.5 t-43.5 111.5t-14.5 134zM-25 856q1 27 16.5 41t35.5 14q23 0 40.5 -16.5t16.5 -42.5q-4 -22 -20.5 -34.5t-36.5 -12.5q-24 0 -39.5 13t-12.5 38zM55 342q4 -82 19 -150.5t43 -111t63 -31.5q37 11 47.5 94t-4.5 179q-43 -17 -63 -17q-78 0 -105 37zM61 524q27 -129 117 -129 q9 0 33 4q-42 195 -94 209q-9 0 -21 -4q-22 -16 -35 -80zM156 856q1 27 16.5 41t34.5 14q23 0 40.5 -16.5t16.5 -42.5q-4 -22 -20.5 -34.5t-36.5 -12.5q-24 0 -39 13t-12 38z" />
<glyph unicode="&#xf7;" d="M200.5 853q-11.5 28 3.5 53.5t48 21.5q160 -22 279.5 -25.5t342.5 8.5q61 3 78 -43q14 -38 -9 -67q-16 -19 -40 -19q-248 2 -377 8.5t-282 30.5q-32 4 -43.5 32zM530 612q3 27 19 41.5t35 14.5q23 0 40.5 -17t14.5 -43q-3 -22 -19 -34.5t-36 -12.5q-24 0 -39.5 13 t-14.5 38zM530 1069q3 27 19 41t35 14q23 0 40.5 -16.5t14.5 -42.5q-3 -22 -19 -34.5t-36 -12.5q-24 0 -39.5 13t-14.5 38z" />
<glyph unicode="&#xf8;" horiz-adv-x="495" d="M-87.5 187.5q-18.5 130.5 12 258t95.5 187.5q103 95 175 12q7 17 23 48t18 36q12 22 31.5 24t27.5 -13.5t-2 -39.5q-48 -99 -60 -127q51 -125 58 -309q5 -125 -29 -211t-112 -100q-56 -11 -103 8l-12 -70q-7 -37 -24 -45t-29 9.5t-7 42.5q9 36 23 96q-67 63 -85.5 193.5z M55.5 475q-9.5 -107 5.5 -213q50 183 99 299q-21 41 -43 47q-9 0 -21 -4q-31 -22 -40.5 -129zM88 143q16 -52 39 -77.5t53 -16.5q35 12 46.5 84.5t1 165t-34.5 174.5q-67 -183 -105 -330z" />
<glyph unicode="&#xf9;" horiz-adv-x="1112" d="M-37 148q-19 147 11 492q2 21 8 85q6 65 57 87.5t95.5 -7t35.5 -88.5q-33 -196 -43.5 -343.5t0.5 -220t39 -71.5q47 2 92.5 50t77.5 117t58 144t38.5 132t13.5 81q6 80 60 91q42 8 75 -27q28 -29 21 -64q-15 -68 -32.5 -172.5t-34.5 -236t-11.5 -223t39.5 -91.5 q47 0 134.5 94.5t177 225t149.5 225t84 137.5q19 33 49 25q24 -7 24 -31q0 -13 -10 -27q-4 -5 -45 -72.5t-89.5 -144t-118.5 -173t-135 -172t-135 -127.5t-122 -52q-64 0 -107.5 106t-19.5 291q-15 -64 -104 -164t-166 -100q-139 0 -166 224zM113 1157q-30 63 4 93 q26 23 59 6q15 -8 25 -23q9 -14 25 -40t23.5 -37.5t20.5 -32.5t19.5 -30.5t17 -25.5t17 -24t15.5 -19t16 -18t14.5 -13.5t15.5 -11.5q5 -2 7 -6t-1 -8.5t-14 -8.5q-39 -12 -80 2.5t-75.5 50t-60.5 71t-48 75.5z" />
<glyph unicode="&#xfa;" horiz-adv-x="1112" d="M-37 148q-19 147 11 492q2 21 8 85q6 65 57 87.5t95.5 -7t35.5 -88.5q-33 -196 -43.5 -343.5t0.5 -220t39 -71.5q47 2 92.5 50t77.5 117t58 144t38.5 132t13.5 81q6 80 60 91q42 8 75 -27q28 -29 21 -64q-15 -68 -32.5 -172.5t-34.5 -236t-11.5 -223t39.5 -91.5 q47 0 134.5 94.5t177 225t149.5 225t84 137.5q19 33 49 25q24 -7 24 -31q0 -13 -10 -27q-4 -5 -45 -72.5t-89.5 -144t-118.5 -173t-135 -172t-135 -127.5t-122 -52q-64 0 -107.5 106t-19.5 291q-15 -64 -104 -164t-166 -100q-139 0 -166 224zM325 1002.5q0 34.5 12.5 66.5 t35.5 66t46.5 60t49.5 50q53 46 91 20q28 -19 20 -55q-4 -17 -17 -30q-132 -139 -161 -179q-26 -35 -35 -63q-1 -5 -4 -7.5t-9 -0.5t-12 10q-17 28 -17 62.5z" />
<glyph unicode="&#xfb;" horiz-adv-x="1112" d="M-37 148q-19 147 11 492q2 21 8 85q6 65 57 87.5t95.5 -7t35.5 -88.5q-33 -196 -43.5 -343.5t0.5 -220t39 -71.5q47 2 92.5 50t77.5 117t58 144t38.5 132t13.5 81q6 80 60 91q42 8 75 -27q28 -29 21 -64q-15 -68 -32.5 -172.5t-34.5 -236t-11.5 -223t39.5 -91.5 q47 0 134.5 94.5t177 225t149.5 225t84 137.5q19 33 49 25q24 -7 24 -31q0 -13 -10 -27q-4 -5 -45 -72.5t-89.5 -144t-118.5 -173t-135 -172t-135 -127.5t-122 -52q-64 0 -107.5 106t-19.5 291q-15 -64 -104 -164t-166 -100q-139 0 -166 224zM116 1046q2 9 9 15 q21 17 57.5 48.5t54.5 47t49.5 39.5t65.5 47q19 15 37 4q14 -10 45.5 -52t71 -90t74.5 -73q12 -11 9 -27t-18.5 -25.5t-29.5 -0.5q-98 78 -176 176q-68 -55 -168 -149q-25 -25 -58 -2q-27 19 -23 42z" />
<glyph unicode="&#xfc;" horiz-adv-x="1112" d="M-37 148q-19 147 11 492q2 21 8 85q6 65 57 87.5t95.5 -7t35.5 -88.5q-33 -196 -43.5 -343.5t0.5 -220t39 -71.5q47 2 92.5 50t77.5 117t58 144t38.5 132t13.5 81q6 80 60 91q42 8 75 -27q28 -29 21 -64q-15 -68 -32.5 -172.5t-34.5 -236t-11.5 -223t39.5 -91.5 q47 0 134.5 94.5t177 225t149.5 225t84 137.5q19 33 49 25q24 -7 24 -31q0 -13 -10 -27q-4 -5 -45 -72.5t-89.5 -144t-118.5 -173t-135 -172t-135 -127.5t-122 -52q-64 0 -107.5 106t-19.5 291q-15 -64 -104 -164t-166 -100q-139 0 -166 224zM205 1034q1 27 16.5 41.5 t34.5 14.5q23 0 40.5 -17t16.5 -43q-4 -22 -20.5 -34.5t-36.5 -12.5q-24 0 -39 13t-12 38zM385 1034q1 27 16.5 41.5t34.5 14.5q23 0 41 -17t17 -43q-4 -22 -21 -34.5t-37 -12.5q-24 0 -39 13t-12 38z" />
<glyph unicode="&#xfd;" horiz-adv-x="1126" d="M-162 -961q2 106 46.5 227t115 235t168 236t196.5 225t211 206q-17 120 -39 186t-42.5 83.5t-49.5 15.5q-19 -2 -59 -43t-89 -96t-103.5 -108t-117 -82.5t-114.5 -14.5q-50 14 -63.5 78.5t4 149.5t49 179t64 167t57.5 114q44 70 97 60q35 -7 47 -44q9 -28 -5 -57 q-57 -115 -108 -253t-70.5 -226t2.5 -99q39 -2 100.5 53t117 123.5t120.5 130.5t108 70q70 12 136 -46t110 -208q128 108 237.5 188t168.5 111q28 15 43 -11q14 -25 -4 -47q-6 -8 -15 -12q-47 -21 -162.5 -103t-251.5 -196q14 -61 22.5 -103.5t20 -118.5t16 -144t5 -162 t-7.5 -190q-11 -139 -42.5 -256.5t-74.5 -200t-98 -148t-111.5 -105.5t-118 -66t-113 -36t-100.5 -10q-125 0 -216 97t-87 251zM-92 -977q-6 -128 60.5 -203t203.5 -75q72 0 142.5 48.5t131 140.5t104.5 238.5t60 327.5q9 104 9 202t-5 150t-15.5 132.5t-12.5 105.5 q-130 -122 -241 -246t-210.5 -264t-160 -284t-66.5 -273zM458 910.5q0 34.5 12.5 66.5t35.5 66t46.5 60t49.5 50q52 45 90 20q28 -18 21 -53q-4 -19 -17 -33q-131 -138 -159 -175t-37 -66q-1 -5 -4 -7.5t-9 -0.5t-12 10q-17 28 -17 62.5z" />
<glyph unicode="&#xfe;" horiz-adv-x="778" d="M-59 -442q-22 384 14 849t113 883q8 41 27 67t40.5 30t40.5 -5t29.5 -39t5.5 -71q-23 -132 -43 -287q51 17 105 12t105.5 -22t97 -55.5t79.5 -87.5t54 -117.5t20 -147.5q0 -138 -43.5 -260t-115.5 -206t-171 -127.5t-205 -30.5q0 -166 21 -381q6 -64 -37 -91t-89 -1.5 t-48 88.5zM94 117q77 -9 149.5 23.5t130.5 98.5t93 173t35 237q0 78 -32.5 133.5t-83.5 79t-113.5 21.5t-122.5 -31q-48 -393 -56 -735z" />
<glyph unicode="&#xff;" horiz-adv-x="1126" d="M-162 -961q2 106 46.5 227t115 235t168 236t196.5 225t211 206q-17 120 -39 186t-42.5 83.5t-49.5 15.5q-19 -2 -59 -43t-89 -96t-103.5 -108t-117 -82.5t-114.5 -14.5q-50 14 -63.5 78.5t4 149.5t49 179t64 167t57.5 114q44 70 97 60q35 -7 47 -44q9 -28 -5 -57 q-57 -115 -108 -253t-70.5 -226t2.5 -99q39 -2 100.5 53t117 123.5t120.5 130.5t108 70q70 12 136 -46t110 -208q128 108 237.5 188t168.5 111q28 15 43 -11q14 -25 -4 -47q-6 -8 -15 -12q-47 -21 -162.5 -103t-251.5 -196q14 -61 22.5 -103.5t20 -118.5t16 -144t5 -162 t-7.5 -190q-11 -139 -42.5 -256.5t-74.5 -200t-98 -148t-111.5 -105.5t-118 -66t-113 -36t-100.5 -10q-125 0 -216 97t-87 251zM-92 -977q-6 -128 60.5 -203t203.5 -75q72 0 142.5 48.5t131 140.5t104.5 238.5t60 327.5q9 104 9 202t-5 150t-15.5 132.5t-12.5 105.5 q-130 -122 -241 -246t-210.5 -264t-160 -284t-66.5 -273zM338 942q1 27 16.5 41t34.5 14q23 0 40.5 -16.5t16.5 -42.5q-4 -22 -20.5 -34.5t-36.5 -12.5q-24 0 -39 13t-12 38zM518 942q1 27 16.5 41t34.5 14q23 0 41 -16.5t17 -42.5q-4 -22 -21 -34.5t-37 -12.5q-24 0 -39 13 t-12 38z" />
<glyph unicode="&#x152;" horiz-adv-x="2043" d="M20.5 755.5q15.5 205.5 85 380.5t183 302.5t241.5 173.5q73 26 134.5 31t102 -5.5t73 -34t50 -49t30 -56t16.5 -49t6 -34.5q5 -66 -28 -84q-25 -14 -46 14q-11 16 -14 39q0 3 -0.5 21.5t-1.5 36.5t-6.5 42.5t-15 43.5t-29 35.5t-46 23t-68 1.5t-93.5 -25 q-106 -40 -186.5 -126t-126 -197.5t-66 -242t-14 -265.5t36.5 -263q50 -212 133 -317.5t213 -92.5q91 9 174.5 79t145.5 177.5t106.5 244.5t65 280t14 283.5t-39.5 255.5t-103 196.5t-169 105.5q-29 7 -34.5 22t10 26.5t39.5 7.5q229 -32 344 -199q97 35 215 63.5 t243.5 43.5t231 10.5t177.5 -40.5t81 -104q4 -33 -7 -48.5t-27 -9t-26 29.5q-66 138 -307 106q-72 -10 -148.5 -31t-115 -35t-136 -53l-122.5 -49q62 -161 51 -407q74 46 160 68.5t177 3.5t145 -91q61 -82 6 -123q-10 -8 -20 -8.5t-18 3t-17 13t-15 18t-15 21.5t-14 19 q-32 42 -91 51.5t-121.5 -9.5t-114.5 -58q-50 -40 -76 -66q-2 -16 -27 -149q-39 -188 -106 -318q275 -184 381 -192q47 -5 103.5 11t103.5 39.5t104 65.5t91 70t79 72.5t53.5 53t28.5 30.5q17 20 36.5 18.5t22.5 -18.5t-16 -43q-7 -7 -43.5 -48t-72.5 -80.5t-94.5 -91.5 t-115 -90.5t-128.5 -68t-140 -33.5q-86 -6 -162 30t-289 175q-101 -158 -238 -243t-280 -85q-322 0 -452 387q-67 202 -51.5 407.5z" />
<glyph unicode="&#x153;" horiz-adv-x="917" d="M-93.5 281q1.5 71 13 137.5t38.5 124t62 90.5q42 38 78 47.5t64 -8t49 -51t37 -82.5q33 147 115 241t165 94q40 0 72.5 -26t32.5 -86q0 -90 -81.5 -191.5t-184.5 -179.5q3 -213 104 -212q103 2 334 246q57 60 137 150q28 31 52 11q19 -16 11 -38q-2 -5 -6 -9 q-2 -2 -42.5 -55.5t-94.5 -116.5t-120.5 -129t-142 -110t-138.5 -44q-117 0 -174 68q-25 -180 -137 -199q-61 -12 -109.5 11t-76 71.5t-43.5 111.5t-14.5 134zM53 421q-3 -167 37 -284q36 -105 90 -88q38 12 47.5 98t-4.5 184.5t-44 182.5t-62 94q-9 0 -21 -4 q-40 -29 -43 -183zM375 467q70 59 128.5 146.5t57.5 131.5q0 27 -31 33q-27 5 -53 -25.5t-46 -81.5t-34 -103t-22 -101z" />
<glyph unicode="&#x178;" horiz-adv-x="1822" d="M-10 1401q1 19 18 45q88 142 281 217q87 31 188.5 48.5t249 30.5t191.5 19q22 3 31 -8t3 -33q-32 -95 -61.5 -234.5t-47.5 -290t3 -266t86 -136.5q20 -6 65 25.5t96 84t83.5 87.5t54.5 61q8 10 24 22q13 229 72 596q4 27 35 43.5t60.5 5t29.5 -54.5q0 -89 -4 -208 t-9.5 -241t-6.5 -157q-10 -394 -68 -695q174 28 291 75t180 134q35 34 61 23q22 -9 8 -37q-5 -11 -16 -22q-81 -94 -217 -149.5t-321 -90.5q-50 -229 -142 -412q-79 -152 -234.5 -282t-340 -197.5t-336.5 -42.5q-68 11 -117.5 28.5t-94 50t-66.5 87t-19 129.5q2 80 41.5 159 t117 157t208.5 149.5t303 124.5q38 12 82.5 22.5t80 17.5t90.5 15t84.5 12t93 12t87.5 11q54 275 61 622q-35 -49 -83 -102t-103 -103.5t-110.5 -79t-92.5 -18.5q-62 14 -107 81.5t-66.5 163t-24 211.5t13.5 224.5t53 204.5t90 150q-358 -29 -475 -66q-161 -50 -270 -203 q-31 -44 -63 -44q-23 0 -21 24zM96 -373q10 -68 55 -109.5t140 -54.5q128 -18 285 46t291 184.5t200 259.5q65 136 107 311q-21 -3 -86.5 -13t-92 -14t-80.5 -13t-86 -16.5t-73 -18t-74 -21.5q-133 -44 -240 -102.5t-172.5 -116.5t-108 -119t-57 -111.5t-8.5 -91.5z M1022 1921q1 27 16.5 41t34.5 14q23 0 40.5 -16.5t16.5 -42.5q-4 -22 -20.5 -34.5t-36.5 -12.5q-24 0 -39 13t-12 38zM1202 1921q1 27 16.5 41t34.5 14q23 0 41 -16.5t17 -42.5q-4 -22 -21 -34.5t-37 -12.5q-24 0 -39 13t-12 38z" />
<glyph unicode="&#x2c6;" d="M401 1232q1 9 9 15q23 19 58 49.5t54 46.5t50 40t65 47q19 15 37 4q14 -10 45 -52t70.5 -90t74.5 -73q12 -11 9 -27t-18.5 -26t-29.5 -1q-98 78 -176 176q-68 -55 -168 -149q-25 -25 -58 -2q-26 19 -22 42z" />
<glyph unicode="&#x2dc;" d="M416 1176q-43 25 2 84t104 75q34 9 85 -10.5t98 -43.5t65 -24q32 0 59 11t39 21t29 14t29 -11q20 -18 0 -50.5t-61 -57.5t-74 -25q-32 0 -112.5 46.5t-123.5 41.5q-20 -2 -47.5 -25.5t-51 -39.5t-40.5 -6z" />
<glyph unicode="&#x2000;" horiz-adv-x="1222" />
<glyph unicode="&#x2001;" horiz-adv-x="2445" />
<glyph unicode="&#x2002;" horiz-adv-x="1222" />
<glyph unicode="&#x2003;" horiz-adv-x="2445" />
<glyph unicode="&#x2004;" horiz-adv-x="815" />
<glyph unicode="&#x2005;" horiz-adv-x="611" />
<glyph unicode="&#x2006;" horiz-adv-x="407" />
<glyph unicode="&#x2007;" horiz-adv-x="407" />
<glyph unicode="&#x2008;" horiz-adv-x="305" />
<glyph unicode="&#x2009;" horiz-adv-x="489" />
<glyph unicode="&#x200a;" horiz-adv-x="135" />
<glyph unicode="&#x2010;" d="M302 764.5q-15 30.5 3.5 58.5t59.5 25q151 -11 244 -10.5t253 12.5q51 4 74 -43q20 -41 -1 -74q-15 -24 -48 -24q-57 2 -169.5 3t-189 5t-172.5 14q-39 3 -54 33.5z" />
<glyph unicode="&#x2011;" d="M302 764.5q-15 30.5 3.5 58.5t59.5 25q151 -11 244 -10.5t253 12.5q51 4 74 -43q20 -41 -1 -74q-15 -24 -48 -24q-57 2 -169.5 3t-189 5t-172.5 14q-39 3 -54 33.5z" />
<glyph unicode="&#x2012;" d="M302 764.5q-15 30.5 3.5 58.5t59.5 25q151 -11 244 -10.5t253 12.5q51 4 74 -43q20 -41 -1 -74q-15 -24 -48 -24q-57 2 -169.5 3t-189 5t-172.5 14q-39 3 -54 33.5z" />
<glyph unicode="&#x2013;" horiz-adv-x="1515" d="M220 552.5q-8 27.5 8.5 51.5t47.5 21q271 -37 465.5 -38.5t485.5 21.5q63 5 83 -43q16 -37 -7 -67q-15 -17 -37 -19q-32 -1 -139 -3t-134.5 -2.5t-113 -1t-120.5 1t-108.5 4t-125 8t-122.5 13.5t-145 19q-30 7 -38 34.5z" />
<glyph unicode="&#x2014;" horiz-adv-x="1720" d="M181.5 511q-9.5 26 11 49t57.5 20q333 -35 567 -36t590 21q77 5 102 -42q18 -34 -7 -62q-17 -18 -46 -19q-43 -1 -170 -3t-163 -2.5t-138.5 -1t-146.5 1t-132.5 4t-152 7.5t-150 12.5t-176.5 18.5q-36 6 -45.5 32z" />
<glyph unicode="&#x2018;" horiz-adv-x="315" d="M104 1094q4 -32 24.5 -54.5t49.5 -15.5q26 6 34 40t-11 56q-18 19 -25.5 42.5t-6 40.5t8.5 28q22 27 12 42q-7 13 -26 -3q-45 -40 -60 -113q-4 -31 0 -63z" />
<glyph unicode="&#x2019;" horiz-adv-x="319" d="M105.5 1230q-7.5 -34 11.5 -56q18 -19 25.5 -42.5t5.5 -40.5t-9 -28q-22 -27 -12 -42q8 -13 27 3q44 38 59 113q4 31 0 63t-24.5 54.5t-49.5 15.5q-26 -6 -33.5 -40z" />
<glyph unicode="&#x201a;" horiz-adv-x="317" d="M104.5 79q-8.5 -34 10.5 -56q17 -20 24 -43t5 -40t-9 -28q-24 -28 -14 -43q8 -11 26 2q46 38 64 113q10 49 -9.5 96t-62.5 39q-26 -6 -34.5 -40z" />
<glyph unicode="&#x201c;" horiz-adv-x="532" d="M96 1094q4 -32 24.5 -54.5t49.5 -15.5q26 6 34 40t-11 56q-18 19 -25.5 42.5t-6 40.5t8.5 28q22 27 12 42q-7 13 -26 -3q-45 -40 -60 -113q-4 -31 0 -63zM283 1157q-9 -50 11.5 -96.5t63.5 -36.5q26 6 34 40t-11 56q-26 29 -30.5 64t7.5 47q23 28 12 43q-8 11 -26 -2 q-42 -37 -61 -115z" />
<glyph unicode="&#x201d;" horiz-adv-x="532" d="M97.5 1064q7.5 -34 33.5 -40q43 -10 64 36.5t12 96.5q-19 77 -62 115q-20 15 -27 0q-7 -16 13 -41q12 -12 8 -47t-30 -64q-19 -22 -11.5 -56zM285.5 1064q7.5 -34 33.5 -40q29 -7 49.5 15.5t24.5 54.5t0 63q-15 75 -59 113q-20 17 -27 2q-7 -17 12 -41q7 -11 9 -28 t-5.5 -40.5t-25.5 -42.5q-19 -22 -11.5 -56z" />
<glyph unicode="&#x201e;" horiz-adv-x="532" d="M115 79q-9 -34 10 -56q17 -20 24 -43t5 -40t-9 -28q-24 -28 -13 -43q8 -11 26 2q44 37 63 113q4 31 1 63t-23 55t-49 17q-26 -6 -35 -40zM303 81q-9 -34 10 -56q17 -20 24 -43t5.5 -40t-8.5 -28q-24 -28 -14 -43q8 -11 26 2q46 38 64 113q10 49 -9.5 96t-62.5 39 q-26 -6 -35 -40z" />
<glyph unicode="&#x2022;" horiz-adv-x="872" d="M336 332q4 80 48.5 120t100.5 40q67 0 120.5 -47.5t47.5 -122.5q-11 -67 -60.5 -105.5t-107.5 -38.5q-68 0 -112.5 40t-36.5 114z" />
<glyph unicode="&#x2026;" horiz-adv-x="610" d="M45 92q1 27 16.5 41t34.5 14q23 0 41 -16.5t17 -42.5q-4 -22 -21 -34.5t-37 -12.5q-24 0 -39 13t-12 38zM248 92q1 27 16.5 41t34.5 14q23 0 40.5 -16.5t16.5 -42.5q-4 -22 -20.5 -34.5t-36.5 -12.5q-24 0 -39 13t-12 38zM461 92q1 27 16.5 41t34.5 14q23 0 40.5 -16.5 t16.5 -42.5q-4 -22 -20.5 -34.5t-36.5 -12.5q-24 0 -39 13t-12 38z" />
<glyph unicode="&#x202f;" horiz-adv-x="489" />
<glyph unicode="&#x2039;" horiz-adv-x="614" d="M131 563q13 18 64.5 58.5t111.5 92t92 95.5q15 17 35.5 13.5t33.5 -22.5t1 -36q-91 -123 -219 -229q61 -78 194 -211q29 -28 5 -69q-20 -34 -49 -36q-16 -1 -27 12q-24 28 -63.5 72.5t-60 68t-51.5 62.5t-61 82q-19 27 -6 47z" />
<glyph unicode="&#x203a;" horiz-adv-x="614" d="M149 274q1 19 15 33q118 116 209 228q-128 106 -221 231q-22 30 -2 50t51 2q9 -6 18 -15q52 -59 148 -146.5t110 -109.5q14 -21 -4 -47q-31 -43 -63 -83t-48.5 -59.5t-61.5 -71.5t-62 -71q-23 -26 -57 0q-33 24 -32 59z" />
<glyph unicode="&#x205f;" horiz-adv-x="611" />
<glyph unicode="&#x20ac;" horiz-adv-x="1351" d="M58.5 788q-11.5 28 4 53t48.5 21q144 -20 235 -22q3 57 12 116q-21 2 -215 25q-29 4 -44.5 22.5t-13.5 39t21 35.5t50 12q217 -21 223 -21q35 165 101.5 301.5t149 224.5t174.5 136.5t181 48.5q74 0 144 -40t92 -112q18 -61 -12 -91q-25 -23 -53 -2q-20 16 -30 48 q-39 133 -133 133q-122 0 -253 -186t-185 -465q47 0 223 8q61 3 80 -43q15 -37 -8 -67q-17 -21 -45 -21q-128 0 -268 4q-10 -96 -11 -108q47 0 207 8q61 3 78 -43q14 -38 -9 -67q-16 -19 -40 -19q-48 0 -127 1t-111 1q-3 -303 44 -494.5t126 -191.5q45 0 89.5 25.5t80 63.5 t69.5 90.5t57 98.5t44 95.5t29.5 72.5t13.5 39q10 27 40.5 33t52 -14t8.5 -54q-8 -22 -26 -62t-51.5 -107t-78 -131.5t-96.5 -124t-116.5 -96t-127.5 -36.5q-47 0 -94 26t-93.5 88t-81.5 151.5t-54.5 228t-16.5 307.5q-117 9 -240 29q-32 4 -43.5 32z" />
<glyph unicode="&#x2122;" horiz-adv-x="1009" d="M69 1235q1 7 5 16q13 28 174 42t174 -7q22 -37 2 -55t-74 -23q-29 -3 -45 -45t-28.5 -119.5t-24.5 -113.5q-20 -66 -49 -74q-22 -5 -28 27q-5 24 3 59q14 62 19.5 87t14 77t4.5 74.5t-19 23.5q-11 1 -25 1h-24t-22 0.5t-20 1.5t-16 3t-12.5 5.5t-7 8t-1.5 11.5zM393 922 q0 -28 22.5 -35.5t41.5 26.5q9 17 27.5 80.5t35 117t23.5 54.5q5 1 23.5 -20.5t43 -44.5t43.5 -25q14 -2 50 43t50 49q15 3 23 -22q7 -21 9 -53t1.5 -59.5t0.5 -52t7 -36.5t19 -6q22 10 38 93.5t10 167t-38 91.5q-16 4 -45.5 -22.5t-60.5 -56t-49 -29.5q-13 1 -31 19.5 t-33.5 40.5t-38 41t-43.5 20q-20 1 -50.5 -57t-54.5 -150.5t-24 -173.5z" />
<glyph unicode="&#x25fc;" horiz-adv-x="921" d="M0 0v922h922v-922h-922z" />
</font>
</defs>
</svg>
